<svg width="24" height="23" viewBox="0 0 24 23" fill="none" xmlns="http://www.w3.org/2000/svg">
<path d="M6.65491 0.25C3.11245 0.25 0.239746 3.0339 0.239746 6.46684V16.4138C0.239746 19.8467 3.11245 22.6306 6.65491 22.6306H16.9192C20.4616 22.6306 23.3343 19.8467 23.3343 16.4138V6.46684C23.3343 3.0339 20.4616 0.25 16.9192 0.25H6.65491ZM19.4852 2.73674C20.1935 2.73674 20.7683 3.29377 20.7683 3.98011C20.7683 4.66645 20.1935 5.22347 19.4852 5.22347C18.777 5.22347 18.2022 4.66645 18.2022 3.98011C18.2022 3.29377 18.777 2.73674 19.4852 2.73674ZM11.787 5.22347C15.3295 5.22347 18.2022 8.00738 18.2022 11.4403C18.2022 14.8733 15.3295 17.6572 11.787 17.6572C8.24458 17.6572 5.37187 14.8733 5.37187 11.4403C5.37187 8.00738 8.24458 5.22347 11.787 5.22347ZM11.787 7.71021C10.7662 7.71021 9.78716 8.1032 9.06531 8.80273C8.34347 9.50226 7.93794 10.451 7.93794 11.4403C7.93794 12.4296 8.34347 13.3784 9.06531 14.0779C9.78716 14.7774 10.7662 15.1704 11.787 15.1704C12.8079 15.1704 13.7869 14.7774 14.5088 14.0779C15.2306 13.3784 15.6361 12.4296 15.6361 11.4403C15.6361 10.451 15.2306 9.50226 14.5088 8.80273C13.7869 8.1032 12.8079 7.71021 11.787 7.71021Z" fill="black"/>
</svg>
