<svg width="211" height="187" viewBox="0 0 211 187" fill="none" xmlns="http://www.w3.org/2000/svg">
<path d="M94.6952 150.25L96.3212 150.757C98.5477 151.452 100.938 150.199 101.633 147.973L138.726 29.1476C139.421 26.9211 138.168 24.5306 135.942 23.8356L134.316 23.3281C132.089 22.6331 129.699 23.8861 129.004 26.1126L91.9107 144.938C91.2157 147.164 92.4687 149.554 94.6952 150.25Z" fill="#233863"/>
<path d="M97.5819 151.7C97.0844 151.7 96.5849 151.625 96.0974 151.473L94.4714 150.965C93.2034 150.569 92.1634 149.7 91.5434 148.516C90.9229 147.332 90.7994 145.982 91.1954 144.714L128.288 25.889C128.683 24.621 129.553 23.5805 130.737 22.9605C131.92 22.3405 133.27 22.216 134.539 22.6125L136.165 23.12C138.792 23.94 140.262 26.744 139.442 29.371L102.349 148.197C101.953 149.464 101.083 150.504 99.8999 151.124C99.1709 151.507 98.3789 151.7 97.5819 151.7Z" fill="#233863"/>
<path d="M158.566 178.028L103.623 160.876C97.6975 159.027 94.3935 152.723 96.243 146.798L133.063 28.8466C134.913 22.9211 141.216 19.6171 147.142 21.4666L202.085 38.6181C208.01 40.4676 211.314 46.7711 209.465 52.6966L172.645 170.648C170.795 176.573 164.492 179.877 158.566 178.028Z" fill="#2F4770"/>
<path d="M161.907 179.289C160.727 179.289 159.527 179.113 158.342 178.743L103.399 161.592C100.342 160.638 97.8391 158.55 96.3521 155.713C94.8651 152.877 94.5716 149.631 95.5266 146.574L132.347 28.6231C134.317 22.3126 141.051 18.7801 147.365 20.7506L202.308 37.9016C208.618 39.8716 212.15 46.6086 210.18 52.9191L173.36 170.871C171.76 175.997 167.014 179.289 161.907 179.289ZM158.789 177.312C161.464 178.146 164.303 177.89 166.785 176.589C169.266 175.288 171.093 173.099 171.928 170.424L208.748 52.4731C210.471 46.9516 207.382 41.0576 201.861 39.3341L146.918 22.1831C141.396 20.4596 135.503 23.5491 133.779 29.0706L96.9586 147.022C96.1236 149.697 96.3801 152.536 97.6811 155.018C98.9821 157.499 101.171 159.326 103.846 160.161L158.789 177.312Z" fill="#233863"/>
<path d="M138.645 32.5335L123.973 79.5356L188.11 99.5577L202.783 52.5555L138.645 32.5335Z" fill="white"/>
<path d="M188.105 100.31C188.031 100.31 187.956 100.299 187.881 100.276L123.745 80.2548C123.555 80.1958 123.397 80.0633 123.304 79.8873C123.211 79.7113 123.193 79.5053 123.252 79.3158L137.924 32.3153C137.983 32.1253 138.116 31.9668 138.292 31.8743C138.468 31.7818 138.674 31.7633 138.863 31.8228L203 51.8438C203.19 51.9028 203.348 52.0353 203.44 52.2113C203.533 52.3873 203.552 52.5933 203.492 52.7828L188.82 99.7838C188.72 100.104 188.425 100.31 188.105 100.31ZM124.908 79.0468L187.612 98.6203L201.837 53.0518L139.133 33.4778L124.908 79.0468Z" fill="#233863"/>
<path d="M195.044 43.7843C194.995 43.7843 194.945 43.7768 194.895 43.7613L150.127 29.7863C149.864 29.7043 149.717 29.4238 149.799 29.1603C149.881 28.8963 150.162 28.7498 150.425 28.8318L195.193 42.8068C195.457 42.8888 195.604 43.1693 195.521 43.4328C195.455 43.6473 195.257 43.7843 195.044 43.7843Z" fill="white"/>
<path d="M150.083 45.106L140.099 41.989C139.787 41.892 139.614 41.5605 139.711 41.249L140.288 39.3995C140.385 39.088 140.717 38.914 141.028 39.0115L151.013 42.1285C151.324 42.226 151.498 42.557 151.401 42.8685L150.823 44.718C150.726 45.0295 150.394 45.2035 150.083 45.106Z" fill="#FFB44F"/>
<path d="M150.26 45.6335C150.151 45.6335 150.041 45.617 149.934 45.5835L139.95 42.4665C139.376 42.2875 139.054 41.6745 139.233 41.1005L139.811 39.2505C139.897 38.9725 140.087 38.745 140.345 38.6095C140.603 38.4745 140.898 38.4475 141.177 38.5345L151.161 41.651C151.44 41.738 151.667 41.928 151.802 42.186C151.938 42.4445 151.964 42.7395 151.877 43.018L151.3 44.867C151.213 45.145 151.023 45.373 150.765 45.508C150.607 45.5915 150.434 45.6335 150.26 45.6335ZM150.232 44.629C150.279 44.642 150.331 44.6175 150.346 44.5695L150.923 42.72C150.936 42.6785 150.904 42.6185 150.863 42.606L140.879 39.4895C140.839 39.478 140.778 39.509 140.765 39.549L140.187 41.399C140.173 41.4465 140.199 41.4975 140.247 41.5125L150.232 44.629Z" fill="#233863"/>
<path d="M164.922 49.7386L154.937 46.6216C154.626 46.5246 154.452 46.1931 154.549 45.8816L155.127 44.0321C155.224 43.7206 155.555 43.5471 155.867 43.6441L165.851 46.7611C166.163 46.8586 166.336 47.1896 166.239 47.5011L165.662 49.3506C165.565 49.6621 165.233 49.8356 164.922 49.7386Z" fill="#FFB44F"/>
<path d="M165.099 50.2661C164.99 50.2661 164.88 50.2496 164.773 50.2161L154.788 47.0991C154.215 46.9201 153.893 46.3071 154.072 45.7331L154.649 43.8836C154.828 43.3096 155.441 42.9871 156.015 43.1671L166 46.2841C166.278 46.3706 166.506 46.5606 166.641 46.8186C166.776 47.0771 166.803 47.3721 166.716 47.6501L166.138 49.5001C166.052 49.7781 165.862 50.0061 165.604 50.1411C165.446 50.2236 165.274 50.2661 165.099 50.2661ZM165.071 49.2616C165.111 49.2746 165.172 49.2436 165.185 49.2021L165.763 47.3521C165.775 47.3111 165.744 47.2511 165.703 47.2386L155.718 44.1216C155.677 44.1096 155.618 44.1406 155.604 44.1816L155.027 46.0311C155.012 46.0791 155.038 46.1301 155.086 46.1451L165.071 49.2616Z" fill="#233863"/>
<path d="M180.877 54.7193L170.892 51.6022C170.581 51.5052 170.407 51.1738 170.504 50.8623L171.082 49.0127C171.179 48.7012 171.51 48.5272 171.822 48.6247L181.806 51.7418C182.118 51.8388 182.291 52.1703 182.194 52.4818L181.617 54.3313C181.52 54.6428 181.189 54.8163 180.877 54.7193Z" fill="#FFB44F"/>
<path d="M181.052 55.2463C180.945 55.2463 180.836 55.2303 180.728 55.1968L170.743 52.0798C170.17 51.9008 169.848 51.2878 170.027 50.7138L170.604 48.8643C170.691 48.5863 170.881 48.3583 171.139 48.2228C171.398 48.0878 171.692 48.0608 171.97 48.1478L181.955 51.2648C182.529 51.4438 182.85 52.0568 182.672 52.6308L182.094 54.4808C181.948 54.9468 181.517 55.2463 181.052 55.2463ZM181.026 54.2418C181.074 54.2563 181.125 54.2298 181.14 54.1823L181.718 52.3323C181.732 52.2843 181.706 52.2333 181.658 52.2183L171.673 49.1013C171.633 49.0888 171.572 49.1203 171.559 49.1613L170.982 51.0108C170.967 51.0588 170.993 51.1098 171.041 51.1243L181.026 54.2418Z" fill="#233863"/>
<path d="M195.898 59.408L185.914 56.291C185.602 56.194 185.429 55.8625 185.526 55.551L186.103 53.7015C186.2 53.39 186.532 53.2165 186.843 53.3135L196.828 56.4305C197.139 56.528 197.313 56.859 197.216 57.1705L196.638 59.02C196.541 59.3315 196.21 59.5055 195.898 59.408Z" fill="#FFB44F"/>
<path d="M196.076 59.9353C195.967 59.9353 195.857 59.9188 195.75 59.8853L185.765 56.7688C185.487 56.6818 185.259 56.4918 185.124 56.2338C184.989 55.9753 184.962 55.6803 185.05 55.4018L185.626 53.5528C185.805 52.9788 186.418 52.6568 186.993 52.8363L196.977 55.9528C197.551 56.1323 197.873 56.7453 197.694 57.3193L197.116 59.1693C197.03 59.4473 196.84 59.6748 196.582 59.8103C196.423 59.8933 196.251 59.9353 196.076 59.9353ZM196.048 58.9308C196.096 58.9453 196.147 58.9188 196.162 58.8713L196.74 57.0213C196.754 56.9738 196.728 56.9223 196.679 56.9073L186.695 53.7908C186.647 53.7753 186.596 53.8023 186.581 53.8503L186.004 55.6998C185.991 55.7413 186.023 55.8013 186.064 55.8138L196.048 58.9308Z" fill="#233863"/>
<path d="M123.915 82.7945L120.31 94.3442L182.701 113.821L186.306 102.271L123.915 82.7945Z" fill="#233863"/>
<path d="M182.694 114.573C182.619 114.573 182.543 114.562 182.47 114.539L120.081 95.0635C119.686 94.94 119.465 94.5195 119.589 94.1245L123.194 82.5755C123.253 82.3855 123.385 82.227 123.561 82.1345C123.738 82.0415 123.943 82.023 124.134 82.083L186.523 101.558C186.918 101.682 187.138 102.102 187.015 102.498L183.41 114.047C183.351 114.237 183.218 114.395 183.042 114.488C182.933 114.544 182.814 114.573 182.694 114.573ZM121.244 93.855L182.201 112.884L185.359 102.767L124.401 83.738L121.244 93.855Z" fill="#233863"/>
<path d="M141.286 97.3548C141.163 97.3548 141.038 97.3368 140.914 97.2983L129.845 93.8423C129.188 93.6368 128.82 92.9348 129.025 92.2768L129.99 89.1853C130.089 88.8663 130.307 88.6053 130.603 88.4503C130.899 88.2953 131.237 88.2643 131.556 88.3643L142.625 91.8198C142.943 91.9193 143.204 92.1368 143.359 92.4323C143.514 92.7278 143.545 93.0663 143.446 93.3853L142.481 96.4768C142.314 97.0118 141.819 97.3548 141.286 97.3548ZM141.064 96.8208C141.454 96.9438 141.88 96.7238 142.003 96.3283L142.968 93.2368C143.028 93.0453 143.01 92.8423 142.917 92.6648C142.824 92.4873 142.667 92.3568 142.476 92.2973L131.407 88.8418C131.217 88.7823 131.013 88.8003 130.835 88.8938C130.658 88.9868 130.527 89.1433 130.468 89.3348L129.503 92.4263C129.379 92.8208 129.6 93.2423 129.995 93.3658L141.064 96.8208Z" fill="white"/>
<path d="M158.398 102.696C158.273 102.696 158.147 102.677 158.024 102.639L146.955 99.1842C146.637 99.0847 146.376 98.8667 146.221 98.5707C146.065 98.2747 146.035 97.9367 146.135 97.6177L147.1 94.5267C147.199 94.2077 147.417 93.9467 147.713 93.7917C148.009 93.6362 148.347 93.6057 148.666 93.7057L159.735 97.1612C160.053 97.2607 160.314 97.4787 160.469 97.7742C160.624 98.0702 160.655 98.4082 160.556 98.7272L159.59 101.819C159.491 102.137 159.273 102.398 158.977 102.553C158.796 102.648 158.598 102.696 158.398 102.696ZM158.174 102.161C158.365 102.221 158.568 102.202 158.745 102.11C158.923 102.017 159.053 101.86 159.113 101.669L160.078 98.5772C160.138 98.3862 160.12 98.1832 160.026 98.0057C159.933 97.8282 159.777 97.6977 159.585 97.6382L148.516 94.1822C148.325 94.1227 148.123 94.1407 147.945 94.2342C147.767 94.3272 147.637 94.4837 147.577 94.6752L146.612 97.7667C146.552 97.9577 146.571 98.1607 146.664 98.3387C146.757 98.5157 146.913 98.6467 147.105 98.7062L158.174 102.161Z" fill="white"/>
<path d="M175.698 108.096C175.573 108.096 175.447 108.077 175.324 108.039L164.255 104.584C163.597 104.378 163.229 103.676 163.434 103.018L164.399 99.9261C164.499 99.6076 164.717 99.3466 165.012 99.1916C165.308 99.0366 165.646 99.0056 165.965 99.1051L177.034 102.561C177.353 102.66 177.614 102.878 177.769 103.174C177.924 103.47 177.954 103.808 177.855 104.127L176.89 107.218C176.79 107.537 176.572 107.798 176.277 107.953C176.095 108.048 175.897 108.096 175.698 108.096ZM175.473 107.562C175.664 107.621 175.867 107.603 176.044 107.51C176.222 107.418 176.352 107.261 176.412 107.069L177.377 103.978C177.437 103.787 177.419 103.584 177.325 103.406C177.232 103.229 177.076 103.098 176.884 103.039L165.815 99.5831C165.624 99.5236 165.421 99.5416 165.244 99.6351C165.066 99.7281 164.936 99.8846 164.876 100.076L163.911 103.168C163.788 103.562 164.008 103.984 164.403 104.107L175.473 107.562Z" fill="white"/>
<path d="M127.592 118.357L119.654 115.879C117.428 115.184 116.175 112.793 116.87 110.567L118.307 105.963C119.002 103.736 121.392 102.483 123.619 103.178L131.556 105.656C133.783 106.351 135.036 108.742 134.341 110.968L132.904 115.572C132.209 117.799 129.818 119.052 127.592 118.357Z" fill="#5A6F8E"/>
<path d="M128.853 119.3C128.355 119.3 127.856 119.225 127.368 119.073L119.431 116.595C116.804 115.775 115.334 112.971 116.154 110.344L117.591 105.74C118.412 103.113 121.215 101.643 123.842 102.463L131.78 104.941C134.406 105.761 135.876 108.565 135.057 111.192L133.62 115.796C133.224 117.064 132.354 118.104 131.171 118.724C130.442 119.107 129.65 119.3 128.853 119.3ZM122.357 103.736C120.87 103.736 119.489 104.695 119.023 106.187L117.586 110.791C117.012 112.628 118.041 114.59 119.878 115.163L127.816 117.641C128.702 117.917 129.645 117.83 130.474 117.396C131.303 116.962 131.911 116.235 132.188 115.349L133.625 110.745C134.198 108.908 133.17 106.946 131.333 106.372L123.395 103.895C123.051 103.787 122.701 103.736 122.357 103.736Z" fill="#233863"/>
<path d="M149.285 125.129L141.348 122.651C139.121 121.956 137.868 119.565 138.563 117.339L140 112.735C140.695 110.508 143.086 109.255 145.312 109.95L153.25 112.428C155.476 113.123 156.729 115.514 156.034 117.74L154.597 122.344C153.902 124.571 151.512 125.824 149.285 125.129Z" fill="#5A6F8E"/>
<path d="M150.545 126.073C150.048 126.073 149.549 125.998 149.062 125.845L141.124 123.367C138.497 122.547 137.027 119.743 137.847 117.116L139.284 112.512C139.68 111.244 140.55 110.204 141.733 109.584C142.917 108.964 144.267 108.839 145.535 109.236L153.473 111.714C156.099 112.534 157.569 115.337 156.75 117.965L155.312 122.569C154.917 123.837 154.047 124.877 152.863 125.497C152.135 125.879 151.342 126.073 150.545 126.073ZM149.509 124.413C150.394 124.689 151.338 124.602 152.167 124.168C152.996 123.734 153.605 123.007 153.881 122.121L155.319 117.517C155.595 116.631 155.508 115.687 155.074 114.859C154.639 114.03 153.912 113.421 153.026 113.145L145.089 110.667C144.204 110.391 143.259 110.478 142.43 110.912C141.602 111.346 140.993 112.073 140.716 112.959L139.279 117.563C139.003 118.449 139.09 119.392 139.524 120.221C139.958 121.05 140.685 121.658 141.571 121.935L149.509 124.413Z" fill="#233863"/>
<path d="M170.653 131.799L162.716 129.321C160.489 128.626 159.236 126.236 159.931 124.009L161.368 119.405C162.063 117.179 164.454 115.926 166.68 116.621L174.618 119.099C176.844 119.794 178.097 122.184 177.402 124.411L175.965 129.015C175.27 131.241 172.88 132.494 170.653 131.799Z" fill="#5A6F8E"/>
<path d="M171.914 132.742C171.423 132.742 170.924 132.669 170.43 132.515L162.492 130.037C159.866 129.217 158.396 126.413 159.215 123.786L160.652 119.182C161.048 117.914 161.918 116.874 163.101 116.253C164.286 115.632 165.636 115.509 166.903 115.905L174.841 118.383C177.467 119.203 178.937 122.007 178.118 124.634L176.681 129.238C176.015 131.372 174.04 132.742 171.914 132.742ZM165.422 117.178C164.864 117.178 164.309 117.314 163.799 117.582C162.97 118.016 162.361 118.743 162.084 119.629L160.647 124.233C160.074 126.07 161.102 128.032 162.94 128.606L170.877 131.083C172.714 131.656 174.676 130.629 175.25 128.791L176.687 124.187C177.26 122.35 176.232 120.388 174.394 119.815L166.457 117.337C166.117 117.231 165.769 117.178 165.422 117.178Z" fill="#233863"/>
<path d="M122.289 135.343L114.351 132.865C112.125 132.17 110.872 129.78 111.567 127.553L113.004 122.949C113.699 120.723 116.089 119.47 118.316 120.165L126.253 122.643C128.48 123.338 129.733 125.728 129.038 127.955L127.601 132.559C126.906 134.785 124.515 136.038 122.289 135.343Z" fill="#5A6F8E"/>
<path d="M123.55 136.286C123.059 136.286 122.559 136.213 122.066 136.059L114.128 133.581C112.86 133.185 111.82 132.315 111.2 131.132C110.58 129.948 110.456 128.598 110.852 127.33L112.289 122.726C113.108 120.1 115.91 118.63 118.54 119.449L126.478 121.927C127.746 122.323 128.786 123.193 129.406 124.376C130.027 125.56 130.15 126.91 129.754 128.178L128.317 132.782C127.651 134.915 125.676 136.286 123.55 136.286ZM122.513 134.627C124.349 135.2 126.312 134.173 126.885 132.335L128.322 127.731C128.599 126.846 128.512 125.902 128.077 125.073C127.643 124.244 126.916 123.635 126.03 123.359L118.092 120.881C117.207 120.604 116.263 120.692 115.434 121.126C114.606 121.56 113.997 122.287 113.72 123.173L112.283 127.777C112.006 128.662 112.094 129.606 112.528 130.435C112.962 131.264 113.689 131.873 114.575 132.149L122.513 134.627Z" fill="#233863"/>
<path d="M143.983 142.115L136.046 139.637C133.819 138.942 132.566 136.552 133.261 134.325L134.698 129.721C135.393 127.495 137.784 126.242 140.01 126.937L147.948 129.415C150.174 130.11 151.427 132.5 150.732 134.727L149.295 139.331C148.6 141.557 146.21 142.81 143.983 142.115Z" fill="#5A6F8E"/>
<path d="M145.243 143.058C144.752 143.058 144.252 142.984 143.759 142.831L135.821 140.353C134.553 139.957 133.513 139.087 132.893 137.904C132.273 136.72 132.149 135.37 132.545 134.102L133.982 129.498C134.802 126.872 137.605 125.402 140.233 126.221L148.171 128.699C149.439 129.095 150.479 129.965 151.099 131.148C151.719 132.332 151.843 133.682 151.447 134.95L150.01 139.554C149.344 141.687 147.369 143.058 145.243 143.058ZM144.206 141.399C146.043 141.972 148.005 140.944 148.579 139.107L150.016 134.503C150.292 133.618 150.205 132.674 149.771 131.845C149.336 131.016 148.609 130.407 147.723 130.131L139.786 127.653C137.95 127.081 135.987 128.107 135.413 129.945L133.976 134.549C133.7 135.434 133.787 136.378 134.221 137.207C134.656 138.036 135.383 138.645 136.269 138.921L144.206 141.399Z" fill="#233863"/>
<path d="M165.35 148.785L157.413 146.307C155.186 145.612 153.933 143.222 154.628 140.995L156.065 136.391C156.76 134.165 159.151 132.912 161.377 133.607L169.315 136.085C171.541 136.78 172.794 139.17 172.099 141.397L170.662 146.001C169.967 148.227 167.577 149.48 165.35 148.785Z" fill="#5A6F8E"/>
<path d="M166.611 149.728C166.12 149.728 165.621 149.655 165.127 149.501L157.19 147.023C154.563 146.203 153.093 143.399 153.913 140.772L155.35 136.168C156.17 133.542 158.971 132.072 161.601 132.891L169.539 135.369C170.807 135.765 171.847 136.635 172.467 137.818C173.088 139.002 173.211 140.352 172.815 141.62L171.378 146.224C170.713 148.358 168.737 149.728 166.611 149.728ZM165.574 148.07C167.411 148.643 169.373 147.615 169.947 145.777L171.384 141.173C171.66 140.288 171.573 139.344 171.139 138.515C170.705 137.687 169.978 137.078 169.092 136.801L161.154 134.323C160.268 134.047 159.324 134.135 158.496 134.568C157.667 135.003 157.058 135.73 156.782 136.616L155.344 141.219C154.771 143.056 155.799 145.018 157.637 145.592L165.574 148.07Z" fill="#233863"/>
<path d="M116.986 152.33L109.049 149.852C106.822 149.157 105.569 146.766 106.264 144.54L107.701 139.936C108.396 137.709 110.787 136.456 113.013 137.151L120.951 139.629C123.177 140.324 124.43 142.715 123.735 144.941L122.298 149.545C121.603 151.772 119.213 153.025 116.986 152.33Z" fill="#3AAED5"/>
<path d="M118.246 153.273C117.748 153.273 117.249 153.198 116.762 153.046L108.824 150.568C107.556 150.172 106.516 149.302 105.896 148.119C105.275 146.935 105.152 145.585 105.548 144.317L106.985 139.713C107.38 138.445 108.25 137.405 109.434 136.785C110.618 136.165 111.968 136.04 113.236 136.437L121.173 138.915C123.8 139.735 125.27 142.539 124.45 145.166L123.013 149.77C122.617 151.038 121.747 152.078 120.564 152.698C119.835 153.079 119.043 153.273 118.246 153.273ZM117.209 151.614C118.095 151.89 119.039 151.803 119.868 151.369C120.696 150.935 121.305 150.208 121.582 149.322L123.019 144.718C123.295 143.833 123.208 142.889 122.774 142.06C122.34 141.231 121.613 140.623 120.727 140.346L112.789 137.868C111.904 137.591 110.96 137.679 110.131 138.113C109.302 138.547 108.693 139.274 108.417 140.16L106.98 144.764C106.703 145.65 106.79 146.594 107.224 147.422C107.659 148.251 108.386 148.86 109.272 149.136L117.209 151.614Z" fill="#233863"/>
<path d="M138.681 159.102L130.743 156.624C128.517 155.929 127.264 153.538 127.959 151.312L129.396 146.708C130.091 144.481 132.481 143.228 134.708 143.923L142.645 146.401C144.872 147.096 146.125 149.487 145.43 151.713L143.993 156.317C143.297 158.544 140.907 159.797 138.681 159.102Z" fill="#FFB44F"/>
<path d="M139.94 160.045C139.443 160.045 138.944 159.97 138.456 159.818L130.519 157.34C129.251 156.944 128.211 156.075 127.59 154.891C126.97 153.708 126.846 152.358 127.242 151.089L128.68 146.485C129.075 145.217 129.945 144.177 131.129 143.556C132.312 142.935 133.662 142.812 134.931 143.208L142.869 145.686C145.496 146.506 146.965 149.311 146.145 151.937L144.708 156.541C144.312 157.809 143.443 158.849 142.259 159.469C141.529 159.851 140.738 160.045 139.94 160.045ZM133.448 144.481C132.89 144.481 132.335 144.617 131.825 144.885C130.996 145.319 130.387 146.046 130.111 146.932L128.673 151.536C128.397 152.422 128.484 153.366 128.918 154.194C129.353 155.023 130.08 155.632 130.966 155.908L138.903 158.386C139.787 158.662 140.733 158.576 141.561 158.141C142.39 157.707 142.999 156.98 143.276 156.094L144.713 151.49C145.286 149.653 144.258 147.692 142.421 147.118L134.483 144.64C134.143 144.534 133.795 144.481 133.448 144.481Z" fill="#233863"/>
<path d="M160.048 165.772L152.11 163.294C149.884 162.599 148.631 160.209 149.326 157.982L150.763 153.378C151.458 151.152 153.848 149.899 156.075 150.594L164.012 153.072C166.239 153.767 167.492 156.157 166.797 158.384L165.36 162.988C164.665 165.214 162.274 166.467 160.048 165.772Z" fill="#3D85FD"/>
<path d="M161.308 166.716C160.81 166.716 160.311 166.641 159.824 166.488L151.886 164.01C150.618 163.615 149.578 162.745 148.958 161.561C148.338 160.378 148.214 159.027 148.61 157.759L150.047 153.156C150.443 151.888 151.313 150.848 152.496 150.227C153.68 149.607 155.03 149.482 156.298 149.879L164.236 152.357C165.504 152.752 166.544 153.622 167.164 154.806C167.785 155.989 167.908 157.34 167.512 158.608L166.075 163.211C165.68 164.479 164.81 165.519 163.626 166.14C162.897 166.522 162.105 166.716 161.308 166.716ZM160.271 165.056C161.156 165.333 162.101 165.245 162.93 164.811C163.758 164.377 164.367 163.65 164.644 162.764L166.081 158.16C166.357 157.274 166.27 156.331 165.836 155.502C165.402 154.673 164.675 154.064 163.789 153.788L155.851 151.31C154.966 151.034 154.022 151.121 153.193 151.555C152.364 151.989 151.755 152.716 151.479 153.602L150.042 158.206C149.765 159.091 149.852 160.035 150.286 160.864C150.721 161.693 151.448 162.302 152.334 162.578L160.271 165.056Z" fill="#233863"/>
<path d="M157.697 180.631L102.856 163.511C101.088 162.959 100.093 161.061 100.645 159.293C101.197 157.525 103.095 156.53 104.863 157.082L159.705 174.202C161.473 174.754 162.468 176.652 161.916 178.42C161.364 180.187 159.465 181.183 157.697 180.631Z" fill="#233863"/>
<path d="M158.698 181.534C158.293 181.534 157.881 181.473 157.474 181.346L102.632 164.227C100.465 163.55 99.2518 161.237 99.9288 159.069C100.606 156.902 102.918 155.689 105.087 156.366L159.929 173.485C160.975 173.812 161.833 174.53 162.345 175.506C162.857 176.483 162.958 177.597 162.632 178.643C162.082 180.403 160.452 181.534 158.698 181.534ZM157.921 179.915C159.297 180.344 160.769 179.574 161.2 178.195C161.407 177.532 161.342 176.824 161.016 176.202C160.69 175.581 160.145 175.124 159.481 174.917L104.639 157.797C103.263 157.368 101.791 158.139 101.36 159.517C100.931 160.895 101.702 162.365 103.08 162.796L157.921 179.915Z" fill="#233863"/>
<path d="M156.821 154.31C156.821 154.969 156.287 155.502 155.629 155.502C154.97 155.502 154.437 154.968 154.437 154.31C154.437 153.652 154.971 153.118 155.629 153.118C156.287 153.118 156.821 153.652 156.821 154.31Z" fill="white"/>
<path d="M135.453 147.785C135.453 148.444 134.919 148.977 134.261 148.977C133.603 148.977 133.069 148.443 133.069 147.785C133.069 147.127 133.603 146.593 134.261 146.593C134.92 146.593 135.453 147.127 135.453 147.785Z" fill="white"/>
<path d="M113.055 140.63C113.055 141.288 112.521 141.822 111.863 141.822C111.204 141.822 110.671 141.288 110.671 140.63C110.671 139.971 111.205 139.438 111.863 139.438C112.521 139.437 113.055 139.971 113.055 140.63Z" fill="white"/>
<path d="M162.553 163.002C162.553 163.344 162.276 163.621 161.935 163.621C161.593 163.621 161.316 163.344 161.316 163.002C161.316 162.661 161.593 162.384 161.935 162.384C162.276 162.384 162.553 162.661 162.553 163.002Z" fill="white"/>
<path d="M166.239 119.345C166.239 119.785 165.883 120.141 165.443 120.141C165.003 120.141 164.646 119.785 164.646 119.345C164.646 118.905 165.003 118.548 165.443 118.548C165.882 118.548 166.239 118.905 166.239 119.345Z" fill="#233863"/>
<path d="M160.536 137.185C160.536 137.625 160.18 137.982 159.74 137.982C159.3 137.982 158.943 137.625 158.943 137.185C158.943 136.745 159.3 136.389 159.74 136.389C160.18 136.389 160.536 136.745 160.536 137.185Z" fill="#233863"/>
<path d="M185.895 90.8116C185.895 91.9641 184.961 92.8981 183.808 92.8981C182.656 92.8981 181.722 91.9641 181.722 90.8116C181.722 89.6591 182.656 88.7251 183.808 88.7251C184.961 88.7251 185.895 89.6591 185.895 90.8116Z" fill="#2F4770"/>
<path d="M183.808 93.6481C182.243 93.6481 180.971 92.3756 180.971 90.8116C180.971 89.2476 182.243 87.9751 183.808 87.9751C185.372 87.9751 186.644 89.2476 186.644 90.8116C186.644 92.3756 185.372 93.6481 183.808 93.6481ZM183.808 89.4751C183.07 89.4751 182.471 90.0746 182.471 90.8116C182.471 91.5486 183.07 92.1481 183.808 92.1481C184.545 92.1481 185.144 91.5486 185.144 90.8116C185.144 90.0746 184.545 89.4751 183.808 89.4751Z" fill="#233863"/>
<path d="M65.8764 182.626C79.7518 182.626 90.9999 171.378 90.9999 157.502C90.9999 143.627 79.7518 132.379 65.8764 132.379C52.0011 132.379 40.7529 143.627 40.7529 157.502C40.7529 171.378 52.0011 182.626 65.8764 182.626Z" fill="#233863"/>
<path d="M87.9023 161.94C91.0908 148.436 82.7289 134.905 69.2255 131.716C55.722 128.528 42.1904 136.89 39.0019 150.393C35.8133 163.897 44.1752 177.428 57.6787 180.617C71.1822 183.805 84.7137 175.443 87.9023 161.94Z" fill="#233863"/>
<path d="M87.9023 161.94C91.0908 148.436 82.7289 134.905 69.2255 131.716C55.722 128.528 42.1904 136.89 39.0019 150.393C35.8133 163.897 44.1752 177.428 57.6787 180.617C71.1822 183.805 84.7137 175.443 87.9023 161.94Z" fill="#FFB44F"/>
<path d="M63.456 182.027C49.1895 182.027 37.583 170.42 37.583 156.154C37.583 141.887 49.1895 130.28 63.456 130.28C77.7225 130.28 89.3295 141.887 89.3295 156.154C89.3295 170.42 77.7225 182.027 63.456 182.027ZM63.456 131.78C50.0165 131.78 39.083 142.714 39.083 156.153C39.083 169.593 50.0165 180.527 63.456 180.527C76.8955 180.527 87.8295 169.593 87.8295 156.153C87.8295 142.714 76.8955 131.78 63.456 131.78Z" fill="#233863"/>
<path d="M63.4567 176.888C52.0242 176.888 42.7227 167.586 42.7227 156.153C42.7227 144.72 52.0242 135.419 63.4567 135.419C74.8897 135.419 84.1912 144.72 84.1912 156.153C84.1912 167.587 74.8897 176.888 63.4567 176.888ZM63.4567 136.419C52.5752 136.419 43.7227 145.272 43.7227 156.154C43.7227 167.035 52.5752 175.888 63.4567 175.888C74.3382 175.888 83.1912 167.035 83.1912 156.154C83.1912 145.272 74.3382 136.419 63.4567 136.419Z" fill="white"/>
<path d="M63.2263 174.644C53.0308 174.644 44.7363 166.349 44.7363 156.154C44.7363 145.959 53.0313 137.664 63.2263 137.664C73.4218 137.664 81.7163 145.959 81.7163 156.154C81.7168 166.349 73.4218 174.644 63.2263 174.644ZM63.2263 138.664C53.5823 138.664 45.7363 146.51 45.7363 156.154C45.7363 165.798 53.5823 173.644 63.2263 173.644C72.8703 173.644 80.7163 165.798 80.7163 156.154C80.7168 146.51 72.8703 138.664 63.2263 138.664Z" fill="white"/>
<path d="M70.1561 159.047C70.1561 160.682 69.502 162.261 68.3785 163.412C67.6245 164.209 66.7146 164.763 65.6766 165.062V166.257C65.6766 166.826 65.4631 167.366 65.0796 167.765C64.6956 168.163 64.1695 168.39 63.6005 168.39C62.9885 168.39 62.4631 168.163 62.0646 167.765C61.6666 167.366 61.425 166.826 61.425 166.257V165.29H59.4481C58.5521 165.29 57.8126 165.006 57.3006 164.536C56.8031 164.067 56.5331 163.399 56.5331 162.617C56.5331 161.066 57.5711 160.284 59.4481 160.284H64.1265C64.3115 160.284 64.5675 160.213 64.7525 160.057C64.994 159.872 65.108 159.63 65.108 159.346C65.108 158.933 64.9515 158.663 64.639 158.506C64.482 158.435 64.383 158.407 64.312 158.392C64.2125 158.378 64.1555 158.364 64.1555 158.364H61.9225C60.372 158.321 58.936 157.709 57.898 156.7C56.86 155.676 56.248 154.311 56.248 152.761C56.248 151.154 56.9306 149.604 58.0686 148.466C58.9786 147.556 60.159 146.944 61.425 146.731V145.934C61.425 145.351 61.6386 144.853 62.0646 144.427C62.4771 144.014 62.989 143.801 63.5865 143.801C64.141 143.801 64.6671 144.028 65.0656 144.427C65.4776 144.853 65.677 145.351 65.677 145.934V146.645H66.431C68.294 146.645 69.389 147.541 69.389 149.092C69.389 150.798 68.294 151.708 66.431 151.708H62.065C61.5675 151.708 61.2401 152.035 61.2401 152.49C61.2401 152.959 61.496 153.343 61.9085 153.343H64.056C65.7195 153.343 67.2556 153.926 68.3791 154.95C69.5161 155.975 70.1561 157.411 70.1561 159.047Z" fill="#233863"/>
<path d="M77.6133 156.929C77.6133 157.931 76.8018 158.742 75.8003 158.742C74.7988 158.742 73.9873 157.931 73.9873 156.929C73.9873 155.928 74.7988 155.116 75.8003 155.116C76.8018 155.116 77.6133 155.928 77.6133 156.929Z" fill="#233863"/>
<path d="M52.1426 156.929C52.1426 157.931 51.3311 158.742 50.3296 158.742C49.3281 158.742 48.5166 157.931 48.5166 156.929C48.5166 155.928 49.3286 155.116 50.3296 155.116C51.3311 155.116 52.1426 155.928 52.1426 156.929Z" fill="#233863"/>
<path d="M46.3959 126.725C45.3014 131.615 40.4494 134.693 35.5589 133.599C30.6679 132.504 27.5904 127.653 28.6849 122.762C29.7794 117.871 34.6314 114.793 39.5219 115.888C44.4129 116.982 47.4904 121.834 46.3959 126.725Z" fill="#233863"/>
<path d="M44.3465 129.105C47.1285 124.937 46.0043 119.302 41.8356 116.52C37.6668 113.738 32.0321 114.862 29.2501 119.031C26.4681 123.2 27.5923 128.834 31.7611 131.616C35.9298 134.398 41.5645 133.274 44.3465 129.105Z" fill="#233863"/>
<path d="M44.3465 129.105C47.1285 124.937 46.0043 119.302 41.8356 116.52C37.6668 113.738 32.0321 114.862 29.2501 119.031C26.4681 123.2 27.5923 128.834 31.7611 131.616C35.9298 134.398 41.5645 133.274 44.3465 129.105Z" fill="#FFB44F"/>
<path d="M36.7948 133.653C36.1043 133.653 35.4043 133.578 34.7028 133.42C32.2073 132.862 30.0783 131.365 28.7083 129.205C27.3388 127.046 26.8918 124.482 27.4503 121.986C28.0083 119.49 29.5053 117.361 31.6653 115.992C33.8243 114.622 36.3868 114.174 38.8843 114.733C41.3798 115.291 43.5088 116.788 44.8783 118.948C46.2483 121.108 46.6953 123.671 46.1368 126.168C45.1408 130.618 41.1768 133.653 36.7948 133.653ZM36.7773 115.5C35.1693 115.5 33.5918 115.954 32.2013 116.837C30.2673 118.063 28.9263 119.97 28.4263 122.205C27.9263 124.44 28.3263 126.736 29.5533 128.67C30.7798 130.604 32.6868 131.945 34.9218 132.445C39.5338 133.475 44.1283 130.564 45.1613 125.95C45.6613 123.715 45.2608 121.419 44.0343 119.485C42.8073 117.551 40.9008 116.21 38.6658 115.71C38.0378 115.569 37.4053 115.5 36.7773 115.5Z" fill="#233863"/>
<path d="M36.8026 131.576C36.2551 131.576 35.7041 131.515 35.1566 131.393C31.1236 130.49 28.5761 126.474 29.4786 122.441C29.9151 120.49 31.0881 118.825 32.7806 117.751C34.4731 116.678 36.4781 116.326 38.4311 116.762C42.4646 117.666 45.0121 121.681 44.1091 125.714C43.6726 127.665 42.4996 129.331 40.8071 130.405C39.5891 131.177 38.2081 131.576 36.8026 131.576ZM35.2391 131.027C37.0926 131.441 38.9986 131.108 40.6061 130.088C42.2146 129.068 43.3281 127.486 43.7426 125.632C44.6006 121.801 42.1806 117.986 38.3486 117.128C36.4956 116.714 34.5891 117.047 32.9816 118.067C31.3731 119.087 30.2596 120.669 29.8451 122.522C28.9876 126.354 31.4071 130.17 35.2391 131.027Z" fill="white"/>
<path d="M36.7138 130.746C36.2313 130.746 35.7428 130.694 35.2528 130.584C31.6558 129.779 29.3838 126.197 30.1883 122.6C30.5778 120.86 31.6238 119.374 33.1338 118.417C34.6433 117.459 36.4333 117.147 38.1728 117.535C41.7698 118.34 44.0418 121.922 43.2373 125.52C42.5418 128.627 39.7738 130.746 36.7138 130.746ZM36.7048 117.747C35.5218 117.747 34.3598 118.083 33.3343 118.733C31.9093 119.638 30.9223 121.039 30.5543 122.682C29.7943 126.077 31.9393 129.458 35.3348 130.218C36.9778 130.585 38.6668 130.29 40.0913 129.386C41.5168 128.482 42.5038 127.08 42.8713 125.438C43.2388 123.796 42.9438 122.106 42.0393 120.681C41.1353 119.256 39.7333 118.269 38.0913 117.901C37.6303 117.798 37.1658 117.747 36.7048 117.747Z" fill="white"/>
<path d="M38.925 125.626C38.796 126.202 38.441 126.707 37.9545 127.024C37.6265 127.245 37.262 127.369 36.8725 127.392L36.7785 127.813C36.7335 128.013 36.616 128.187 36.4495 128.297C36.283 128.407 36.0795 128.446 35.879 128.401C35.6635 128.353 35.4955 128.231 35.3875 128.06C35.2785 127.888 35.2355 127.678 35.2805 127.478L35.3565 127.137L34.6595 126.981C34.344 126.91 34.106 126.752 33.963 126.546C33.8245 126.342 33.7825 126.085 33.844 125.809C33.966 125.263 34.394 125.069 35.055 125.217L36.704 125.585C36.769 125.6 36.8645 125.595 36.9425 125.555C37.0415 125.509 37.101 125.433 37.1235 125.332C37.156 125.188 37.122 125.08 37.0245 125C36.9745 124.963 36.942 124.945 36.918 124.934C36.884 124.921 36.865 124.912 36.865 124.912L36.0785 124.735C35.536 124.598 35.078 124.269 34.792 123.832C34.507 123.389 34.399 122.86 34.521 122.314C34.648 121.747 35.0105 121.255 35.5015 120.944C35.894 120.695 36.358 120.573 36.821 120.597L36.8835 120.317C36.93 120.111 37.044 119.952 37.228 119.836C37.405 119.723 37.603 119.689 37.813 119.736C38.009 119.779 38.1765 119.901 38.285 120.073C38.397 120.255 38.4275 120.447 38.381 120.652L38.3255 120.902L38.591 120.962C39.247 121.109 39.5625 121.511 39.4405 122.057C39.3055 122.658 38.8475 122.893 38.1915 122.746L36.6535 122.401C36.4775 122.362 36.3365 122.451 36.301 122.612C36.264 122.777 36.3245 122.933 36.469 122.965L37.226 123.134C37.8125 123.266 38.3075 123.592 38.623 124.042C38.9415 124.493 39.054 125.049 38.925 125.626Z" fill="#233863"/>
<path d="M41.7227 125.467C41.6437 125.82 41.2937 126.042 40.9407 125.963C40.5877 125.884 40.3657 125.534 40.4447 125.181C40.5237 124.828 40.8737 124.606 41.2267 124.685C41.5797 124.764 41.8017 125.114 41.7227 125.467Z" fill="#233863"/>
<path d="M32.7451 123.459C32.6661 123.812 32.3161 124.034 31.9631 123.955C31.6101 123.876 31.3881 123.526 31.4671 123.173C31.5461 122.82 31.8961 122.598 32.2491 122.677C32.6021 122.756 32.8241 123.106 32.7451 123.459Z" fill="#233863"/>
<path d="M29.6028 157.521C34.8649 153.295 35.7047 145.603 31.4785 140.341C27.2524 135.079 19.5606 134.239 14.2984 138.465C9.03631 142.691 8.1965 150.383 12.4227 155.645C16.6488 160.907 24.3406 161.747 29.6028 157.521Z" fill="#233863"/>
<path d="M32.8514 147.963C33.0094 141.217 27.6679 135.619 20.921 135.461C14.1741 135.303 8.57669 140.645 8.41876 147.392C8.26084 154.138 13.6023 159.736 20.3491 159.894C27.096 160.052 32.6935 154.71 32.8514 147.963Z" fill="#233863"/>
<path d="M32.8514 147.963C33.0094 141.217 27.6679 135.619 20.921 135.461C14.1741 135.303 8.57669 140.645 8.41876 147.392C8.26084 154.138 13.6023 159.736 20.3491 159.894C27.096 160.052 32.6935 154.71 32.8514 147.963Z" fill="#FFB44F"/>
<path d="M20.6446 160.646C14.9886 160.646 9.77606 156.913 8.16006 151.209C6.21156 144.327 10.2246 137.144 17.1056 135.195C23.9901 133.247 31.1711 137.26 33.1191 144.14C35.0676 151.022 31.0551 158.205 24.1741 160.154C22.9971 160.487 21.8116 160.646 20.6446 160.646ZM20.6566 136.199C19.6071 136.199 18.5516 136.344 17.5146 136.638C11.4291 138.362 7.88006 144.715 9.60356 150.8C11.3271 156.885 17.6796 160.433 23.7651 158.71C26.7131 157.876 29.1596 155.943 30.6531 153.268C32.1471 150.593 32.5106 147.497 31.6756 144.549C30.8411 141.6 28.9081 139.154 26.2331 137.66C24.5001 136.692 22.5891 136.199 20.6566 136.199Z" fill="#233863"/>
<path d="M20.644 157.705C16.2705 157.705 12.2395 154.818 10.99 150.407C9.48302 145.086 12.586 139.531 17.907 138.024C20.4805 137.294 23.1875 137.614 25.529 138.922C27.8705 140.23 29.561 142.368 30.2895 144.941C31.0185 147.514 30.6995 150.222 29.3915 152.563C28.084 154.904 25.946 156.595 23.373 157.323C22.463 157.582 21.546 157.705 20.644 157.705ZM20.6465 138.016C19.765 138.016 18.88 138.138 18.01 138.384C12.8875 139.835 9.90052 145.183 11.3505 150.305C12.802 155.427 18.1525 158.412 23.271 156.963C25.748 156.262 27.8055 154.634 29.065 152.38C30.3245 150.126 30.6315 147.52 29.9295 145.043C29.228 142.566 27.6005 140.508 25.346 139.249C23.884 138.433 22.2735 138.016 20.6465 138.016Z" fill="white"/>
<path d="M20.5252 156.646C19.0187 156.646 17.5287 156.26 16.1747 155.505C14.0882 154.339 12.5812 152.434 11.9322 150.141C11.2822 147.847 11.5667 145.435 12.7322 143.348C13.8982 141.261 15.8032 139.754 18.0967 139.106C20.3912 138.455 22.8032 138.741 24.8892 139.906C26.9762 141.072 28.4832 142.977 29.1317 145.27C29.7817 147.564 29.4972 149.976 28.3317 152.063C27.1657 154.149 25.2607 155.656 22.9672 156.305C22.1617 156.533 21.3412 156.646 20.5252 156.646ZM20.5377 139.139C19.7562 139.139 18.9707 139.248 18.1987 139.466C16.0012 140.088 14.1762 141.532 13.0597 143.531C11.9432 145.53 11.6707 147.841 12.2927 150.038C12.9152 152.236 14.3592 154.061 16.3582 155.177C18.3577 156.294 20.6697 156.565 22.8652 155.944C25.0627 155.322 26.8877 153.878 28.0042 151.879C29.1207 149.88 29.3932 147.569 28.7712 145.372C28.1487 143.174 26.7052 141.349 24.7062 140.233C23.4092 139.508 21.9807 139.139 20.5377 139.139Z" fill="white"/>
<path d="M24.1601 148.138C24.3771 148.904 24.2796 149.729 23.9066 150.418C23.6591 150.891 23.3066 151.271 22.8601 151.549L23.0181 152.108C23.0936 152.374 23.0656 152.655 22.9381 152.893C22.8121 153.13 22.5946 153.306 22.3286 153.381C22.0426 153.462 21.7661 153.426 21.5266 153.292C21.2871 153.158 21.1026 152.938 21.0271 152.671L20.8986 152.218L19.9726 152.481C19.5536 152.599 19.1691 152.564 18.8676 152.412C18.5721 152.258 18.3571 151.982 18.2536 151.615C18.0476 150.89 18.4301 150.386 19.3086 150.137L21.4996 149.517C21.5861 149.492 21.6961 149.425 21.7621 149.327C21.8506 149.209 21.8716 149.08 21.8341 148.946C21.7796 148.753 21.6711 148.648 21.5036 148.616C21.4211 148.604 21.3706 148.604 21.3356 148.606C21.2866 148.612 21.2586 148.613 21.2586 148.613L20.2131 148.909C19.4816 149.096 18.7281 148.999 18.1081 148.664C17.4866 148.323 17.0186 147.764 16.8131 147.039C16.6001 146.286 16.7146 145.47 17.0956 144.787C17.4011 144.24 17.8736 143.797 18.4376 143.529L18.3321 143.156C18.2546 142.884 18.2886 142.622 18.4321 142.366C18.5696 142.118 18.7816 141.95 19.0611 141.871C19.3211 141.798 19.5971 141.835 19.8366 141.968C20.0861 142.113 20.2456 142.32 20.3231 142.593L20.4171 142.926L20.7696 142.826C21.6421 142.579 22.2736 142.854 22.4791 143.579C22.7056 144.378 22.3131 144.949 21.4411 145.196L19.3971 145.775C19.1636 145.841 19.0541 146.037 19.1151 146.25C19.1776 146.47 19.3481 146.616 19.5416 146.561L20.5471 146.276C21.3261 146.056 22.1216 146.125 22.7841 146.455C23.4531 146.785 23.9431 147.373 24.1601 148.138Z" fill="#233863"/>
<path d="M27.3672 146.161C27.4997 146.629 27.2277 147.117 26.7592 147.25C26.2907 147.382 25.8032 147.11 25.6702 146.642C25.5377 146.173 25.8097 145.686 26.2782 145.553C26.7472 145.42 27.2347 145.692 27.3672 146.161Z" fill="#233863"/>
<path d="M15.4473 149.537C15.5803 150.005 15.3078 150.493 14.8393 150.626C14.3708 150.758 13.8833 150.486 13.7503 150.018C13.6178 149.549 13.8898 149.062 14.3583 148.929C14.8268 148.796 15.3143 149.068 15.4473 149.537Z" fill="#233863"/>
<path d="M111.295 99.8739L59.2583 97.2799C56.8168 97.1584 54.9358 95.0799 55.0573 92.6384L58.9598 14.3534C59.3278 6.9654 65.6158 1.2749 73.0038 1.6434L107.545 3.3654C114.933 3.7339 120.624 10.0214 120.255 17.4094L116.374 95.2779C116.241 97.9489 113.967 100.007 111.295 99.8739Z" fill="#233863"/>
<path d="M107.948 99.8739L55.9116 97.2799C53.4701 97.1584 51.5891 95.0799 51.7106 92.6384L55.6131 14.3534C55.9816 6.9654 62.2691 1.2749 69.6571 1.6434L104.199 3.3654C111.587 3.7339 117.278 10.0214 116.909 17.4094L113.028 95.2779C112.894 97.9489 110.62 100.007 107.948 99.8739Z" fill="white"/>
<path d="M108.192 100.63C108.098 100.63 108.005 100.628 107.911 100.623L55.8741 98.0289C53.0231 97.8869 50.8196 95.4519 50.9616 92.6009L54.8641 14.3158C55.0521 10.5428 56.6981 7.06885 59.4996 4.53385C62.3016 1.99885 65.9316 0.706847 69.6946 0.894347L104.236 2.61585C112.026 3.00435 118.047 9.65735 117.659 17.4463L113.777 95.3149C113.627 98.3009 111.15 100.63 108.192 100.63ZM107.985 99.1249C110.258 99.2394 112.166 97.4934 112.278 95.2399L116.16 17.3713C116.507 10.4083 111.125 4.46085 104.162 4.11385L69.6201 2.39235C66.2456 2.22435 63.0101 3.37935 60.5061 5.64585C58.0016 7.91235 56.5301 11.0178 56.3621 14.3908L52.4596 92.6759C52.3591 94.7009 53.9241 96.4304 55.9486 96.5309L107.985 99.1249Z" fill="#233863"/>
<path d="M103.575 3.34963L103.576 3.33363L54.3437 0.879628C48.6772 0.597128 43.8447 5.16013 43.5502 11.0716L43.3477 15.1371L93.1372 17.6191L93.3397 13.5531C93.6242 7.83713 98.1527 3.38213 103.575 3.34963Z" fill="white"/>
<path d="M93.1371 18.3692C93.1251 18.3692 93.1121 18.3687 93.1001 18.3682L43.3106 15.8862C42.8966 15.8657 42.5781 15.5137 42.5986 15.0997L42.8011 11.0342C42.9531 7.9812 44.2376 5.1662 46.4171 3.1072C48.6061 1.0407 51.4321 -0.0168009 54.3806 0.130199L103.614 2.5847C103.814 2.5947 104.002 2.6842 104.135 2.8337C104.269 2.9827 104.337 3.1792 104.325 3.3792C104.301 3.7732 103.975 4.0977 103.58 4.0997C98.5216 4.1297 94.3526 8.2987 94.0891 13.5907L93.8866 17.6562C93.8766 17.8547 93.7886 18.0417 93.6411 18.1752C93.5026 18.3002 93.3226 18.3692 93.1371 18.3692ZM44.1346 14.4257L92.4256 16.8327L92.5911 13.5162C92.8026 9.2682 95.2161 5.6497 98.6446 3.8392L54.3066 1.6287C51.7686 1.5047 49.3361 2.4147 47.4471 4.1982C45.5501 5.9897 44.4321 8.4442 44.2991 11.1092L44.1346 14.4257Z" fill="#233863"/>
<g opacity="0.11">
<path d="M103.575 3.34963L103.576 3.33363L54.3437 0.879628C48.6772 0.597128 43.8447 5.16013 43.5502 11.0716L43.3477 15.1371L93.1372 17.6191L93.3397 13.5531C93.6242 7.83713 98.1527 3.38213 103.575 3.34963Z" fill="#233863"/>
</g>
<path d="M79.463 24.9536C79.4505 24.9536 79.438 24.9531 79.4255 24.9526L66.876 24.3271C66.462 24.3066 66.1435 23.9546 66.164 23.5406C66.1845 23.1271 66.5485 22.8081 66.95 22.8291L79.4995 23.4546C79.9135 23.4751 80.232 23.8271 80.2115 24.2411C80.1915 24.6421 79.86 24.9536 79.463 24.9536Z" fill="#233863"/>
<path d="M107.921 26.7354C107.908 26.7354 107.896 26.7354 107.883 26.7344L95.3331 26.1084C94.9191 26.0879 94.6006 25.7359 94.6211 25.3219C94.6416 24.9084 95.0046 24.5884 95.4071 24.6104L107.957 25.2359C108.371 25.2564 108.69 25.6084 108.669 26.0224C108.649 26.4239 108.318 26.7354 107.921 26.7354Z" fill="#233863"/>
<path d="M91.1015 40.2125C91.091 40.2125 91.0795 40.2125 91.0685 40.212L66.1425 39.124C65.729 39.106 65.4075 38.756 65.4255 38.342C65.4435 37.9285 65.7775 37.6045 66.208 37.6255L91.134 38.7135C91.5475 38.7315 91.869 39.0815 91.851 39.4955C91.833 39.898 91.501 40.2125 91.1015 40.2125Z" fill="#233863"/>
<path d="M75.8737 47.8578C75.8597 47.8578 75.8452 47.8573 75.8312 47.8568L65.4377 47.2758C65.0242 47.2528 64.7077 46.8988 64.7307 46.4853C64.7542 46.0718 65.1087 45.7578 65.5217 45.7783L75.9152 46.3593C76.3287 46.3823 76.6452 46.7363 76.6222 47.1498C76.5997 47.5488 76.2687 47.8578 75.8737 47.8578Z" fill="#233863"/>
<path d="M84.4404 32.6248C84.4279 32.6248 84.4154 32.6248 84.4029 32.6238L66.5069 31.7313C66.0929 31.7108 65.7744 31.3588 65.7949 30.9448C65.8159 30.5308 66.1699 30.2133 66.5809 30.2333L84.4769 31.1258C84.8909 31.1463 85.2094 31.4983 85.1889 31.9123C85.1689 32.3133 84.8374 32.6248 84.4404 32.6248Z" fill="#233863"/>
<path d="M91.1013 32.9572C91.0888 32.9572 91.0763 32.9572 91.0633 32.9562L88.7408 32.8402C88.3273 32.8197 88.0088 32.4672 88.0293 32.0537C88.0503 31.6397 88.3868 31.3167 88.8158 31.3422L91.1388 31.4582C91.5523 31.4787 91.8708 31.8312 91.8503 32.2447C91.8298 32.6452 91.4983 32.9572 91.1013 32.9572Z" fill="#233863"/>
<path d="M108.216 44.9199C108.158 46.2834 107.557 47.5759 106.58 48.4959C105.924 49.1324 105.145 49.5629 104.269 49.7749L104.227 50.7704C104.207 51.2444 104.01 51.6879 103.675 52.0054C103.341 52.3239 102.895 52.4949 102.42 52.4744C101.91 52.4529 101.48 52.2449 101.162 51.8984C100.844 51.5529 100.663 51.0934 100.683 50.6194L100.717 49.8134L99.0689 49.7434C98.3224 49.7119 97.7159 49.4484 97.3064 49.0389C96.9079 48.6304 96.7064 48.0634 96.7339 47.4114C96.7889 46.1199 97.6824 45.5044 99.2469 45.5709L103.147 45.7369C103.301 45.7434 103.516 45.6934 103.676 45.5699C103.884 45.4244 103.987 45.2269 103.998 44.9894C104.012 44.6464 103.892 44.4149 103.637 44.2734C103.508 44.2089 103.426 44.1814 103.368 44.1669C103.286 44.1514 103.239 44.1374 103.239 44.1374L101.377 44.0584C100.087 43.9674 98.9119 43.4074 98.0819 42.5284C97.2534 41.6384 96.7924 40.4789 96.8469 39.1869C96.9039 37.8474 97.5279 36.5794 98.5164 35.6719C99.3074 34.9454 100.313 34.4774 101.375 34.3444L101.404 33.6809C101.425 33.1949 101.62 32.7874 101.991 32.4469C102.349 32.1179 102.783 31.9584 103.281 31.9794C103.743 31.9989 104.174 32.2074 104.492 32.5534C104.82 32.9239 104.968 33.3459 104.947 33.8319L104.922 34.4249L105.551 34.4519C107.103 34.5179 107.985 35.3034 107.93 36.5954C107.869 38.0179 106.924 38.7374 105.371 38.6714L101.733 38.5164C101.318 38.4989 101.034 38.7599 101.017 39.1394C101.001 39.5304 101.2 39.8594 101.544 39.8744L103.334 39.9504C104.72 40.0094 105.98 40.5499 106.88 41.4429C107.792 42.3369 108.274 43.5569 108.216 44.9199Z" fill="#233863" stroke="white" stroke-width="2" stroke-miterlimit="10"/>
<path d="M44.2998 11.1089L54.9558 11.5444" stroke="#233863" stroke-width="3" stroke-miterlimit="10" stroke-linecap="round"/>
<path d="M9.51855 52.7331L50.1465 107.306L84.9795 81.3736L43.5836 25.7686L43.2256 31.9506L37.5075 30.5931L37.1675 36.4606L31.7556 35.1756L31.4281 40.8336L26.1181 39.5731L25.7971 45.1261L20.4871 43.8656L20.1961 48.8951L14.3756 47.5131L14.0236 53.5901L9.51855 52.7331Z" fill="#3AAED5"/>
<path d="M50.1465 108.056C50.1105 108.056 50.074 108.053 50.0375 108.048C49.8405 108.019 49.6635 107.913 49.545 107.753L8.91705 53.1806C8.73255 52.9326 8.71855 52.5971 8.88305 52.3351C9.04705 52.0731 9.35505 51.9386 9.65905 51.9961L13.325 52.6936L13.627 47.4696C13.6395 47.2481 13.7496 47.0436 13.9281 46.9111C14.1056 46.7786 14.3315 46.7316 14.549 46.7831L19.4985 47.9586L19.738 43.8221C19.7505 43.6006 19.8606 43.3961 20.0386 43.2636C20.2156 43.1311 20.4425 43.0836 20.6595 43.1356L25.099 44.1896L25.369 39.5296C25.3815 39.3081 25.4915 39.1036 25.67 38.9711C25.847 38.8386 26.0735 38.7916 26.291 38.8431L30.7305 39.8971L31.007 35.1322C31.0195 34.9107 31.1295 34.7061 31.308 34.5741C31.485 34.4416 31.7126 34.3946 31.9291 34.4461L36.4701 35.5241L36.7585 30.5496C36.771 30.3281 36.8811 30.1236 37.0596 29.9916C37.2366 29.8591 37.464 29.8121 37.6805 29.8636L42.528 31.0146L42.8346 25.7256C42.8526 25.4111 43.066 25.1411 43.3675 25.0506C43.67 24.9601 43.9961 25.0681 44.1846 25.3216L85.5805 80.9266C85.828 81.2586 85.759 81.7286 85.4265 81.9761L50.5935 107.909C50.4645 108.005 50.307 108.056 50.1465 108.056ZM11.27 53.8296L50.3005 106.257L83.9305 81.2196L44.213 27.8701L43.974 31.9941C43.9615 32.2156 43.8515 32.4201 43.673 32.5521C43.4955 32.6846 43.2691 32.7316 43.0521 32.6801L38.2045 31.5291L37.916 36.5036C37.9035 36.7251 37.7936 36.9296 37.6151 37.0616C37.4376 37.1941 37.211 37.2416 36.994 37.1896L32.453 36.1117L32.1765 40.8766C32.164 41.0981 32.054 41.3026 31.8755 41.4346C31.6985 41.5671 31.4711 41.6146 31.2546 41.5626L26.815 40.5086L26.545 45.1686C26.5325 45.3901 26.4225 45.5946 26.244 45.7271C26.0665 45.8596 25.8401 45.9071 25.6231 45.8551L21.1835 44.8011L20.944 48.9376C20.9315 49.1591 20.8216 49.3636 20.6431 49.4961C20.4656 49.6286 20.2385 49.6756 20.022 49.6241L15.0725 48.4486L14.772 53.6326C14.76 53.8481 14.655 54.0481 14.485 54.1806C14.3145 54.3136 14.0945 54.3656 13.8835 54.3261L11.27 53.8296Z" fill="#233863"/>
<path d="M21.9507 60.4706C21.7217 60.4706 21.4957 60.3661 21.3487 60.1681C21.1012 59.8361 21.1702 59.3661 21.5027 59.1186L32.2127 51.1456C32.5442 50.8981 33.0147 50.9671 33.2622 51.2996C33.5097 51.6316 33.4407 52.1016 33.1082 52.3491L22.3982 60.3221C22.2637 60.4221 22.1067 60.4706 21.9507 60.4706Z" fill="white"/>
<path d="M25.1206 64.7283C24.8916 64.7283 24.6656 64.6238 24.5186 64.4258C24.2711 64.0938 24.3401 63.6238 24.6726 63.3763L44.3611 48.7193C44.6926 48.4718 45.1636 48.5408 45.4106 48.8733C45.6581 49.2053 45.5891 49.6753 45.2566 49.9228L25.5681 64.5798C25.4336 64.6798 25.2766 64.7283 25.1206 64.7283Z" fill="#233863"/>
<path d="M46.939 48.485C46.71 48.485 46.484 48.3805 46.337 48.183C46.0895 47.8505 46.1585 47.381 46.491 47.1335L49.128 45.1705C49.46 44.923 49.9305 44.992 50.1775 45.3245C50.425 45.657 50.356 46.1265 50.0235 46.374L47.3865 48.337C47.252 48.437 47.095 48.485 46.939 48.485Z" fill="white"/>
<path d="M29.6831 70.8568C29.4541 70.8568 29.2281 70.7523 29.0811 70.5543C28.8336 70.2223 28.9026 69.7523 29.2351 69.5048L36.4696 64.1193C36.8011 63.8723 37.2721 63.9413 37.5191 64.2733C37.7666 64.6053 37.6976 65.0753 37.3651 65.3228L30.1306 70.7083C29.9961 70.8083 29.8391 70.8568 29.6831 70.8568Z" fill="#233863"/>
<path d="M40.0415 63.145C39.8125 63.145 39.5865 63.041 39.4395 62.843C39.192 62.511 39.261 62.041 39.5935 61.7935L53.69 51.299C54.0215 51.0515 54.492 51.12 54.7395 51.453C54.987 51.785 54.9185 52.255 54.5855 52.5025L40.489 62.997C40.3545 63.097 40.1975 63.145 40.0415 63.145Z" fill="#233863"/>
<path d="M36.3823 79.8556C36.1533 79.8556 35.9273 79.7511 35.7803 79.5536C35.5328 79.2216 35.6018 78.7516 35.9343 78.5041L51.8098 66.6856C52.1413 66.4381 52.6123 66.5071 52.8593 66.8396C53.1068 67.1716 53.0378 67.6416 52.7053 67.8891L36.8298 79.7076C36.6953 79.8076 36.5378 79.8556 36.3823 79.8556Z" fill="white"/>
<path d="M59.9273 75.713C59.6983 75.713 59.4722 75.6085 59.3252 75.411C59.0777 75.079 59.1467 74.609 59.4792 74.3615L66.8018 68.9105C67.1338 68.6635 67.6043 68.732 67.8513 69.0645C68.0988 69.3965 68.0298 69.8665 67.6973 70.114L60.3747 75.565C60.2402 75.6645 60.0828 75.713 59.9273 75.713Z" fill="#233863"/>
<path d="M64.3803 42.5318L59.3203 83.1148L90.2143 86.9668L95.3698 45.6163L92.1868 48.0938L89.8353 45.0723L86.8138 47.4238L84.5883 44.5643L81.6748 46.8318L79.4913 44.0263L76.6318 46.2518L74.4483 43.4463L71.8583 45.4618L69.4648 42.3863L66.3358 44.8218L64.4208 42.3613" fill="#FFB44F"/>
<path d="M90.2146 87.7169C90.1836 87.7169 90.1526 87.7149 90.1216 87.7109L59.2276 83.8589C58.8166 83.8079 58.5251 83.4329 58.5761 83.0219L63.6361 42.4394C63.6436 42.3819 63.6566 42.3264 63.6756 42.2739C63.6986 42.0814 63.7951 41.8979 63.9601 41.7694C64.2856 41.5144 64.7576 41.5734 65.0121 41.9004L66.4666 43.7689L69.0041 41.7944C69.1611 41.6724 69.3606 41.6179 69.5576 41.6419C69.7551 41.6664 69.9346 41.7684 70.0566 41.9254L71.9891 44.4089L73.9871 42.8544C74.3131 42.5994 74.7846 42.6584 75.0396 42.9854L76.7626 45.1989L79.0306 43.4344C79.3566 43.1794 79.8281 43.2384 80.0826 43.5654L81.8051 45.7789L84.1271 43.9724C84.4531 43.7174 84.9246 43.7764 85.1791 44.1034L86.9441 46.3709L89.3736 44.4804C89.6996 44.2249 90.1711 44.2849 90.4256 44.6114L92.3166 47.0409L94.9081 45.0244C95.1471 44.8379 95.4751 44.8139 95.7391 44.9639C96.0026 45.1139 96.1501 45.4079 96.1126 45.7089L90.9566 87.0589C90.9321 87.2564 90.8301 87.4359 90.6731 87.5579C90.5426 87.6614 90.3806 87.7169 90.2146 87.7169ZM60.1571 82.4634L89.5631 86.1299L94.4021 47.3204L92.6476 48.6854C92.3211 48.9399 91.8496 48.8814 91.5956 48.5544L89.7046 46.1249L87.2751 48.0154C86.9486 48.2699 86.4771 48.2109 86.2226 47.8844L84.4576 45.6169L82.1361 47.4234C81.9791 47.5459 81.7796 47.6014 81.5826 47.5759C81.3851 47.5514 81.2056 47.4494 81.0836 47.2924L79.3611 45.0789L77.0931 46.8434C76.7666 47.0979 76.2951 47.0389 76.0411 46.7124L74.3181 44.4989L72.3201 46.0534C72.1631 46.1754 71.9641 46.2319 71.7666 46.2059C71.5691 46.1814 71.3896 46.0794 71.2676 45.9224L69.3351 43.4389L66.7976 45.4134C66.4711 45.6679 65.9991 45.6089 65.7456 45.2824L64.9256 44.2294L60.1571 82.4634Z" fill="#233863"/>
<path d="M77.0361 52.5021C77.0156 52.5021 76.9946 52.5012 76.9736 52.4982L67.4751 51.3137C67.2011 51.2797 67.0066 51.0297 67.0411 50.7557C67.0746 50.4817 67.3236 50.2852 67.5991 50.3212L77.0976 51.5057C77.3716 51.5397 77.5656 51.7897 77.5316 52.0637C77.5006 52.3172 77.2846 52.5021 77.0361 52.5021Z" fill="white"/>
<path d="M84.605 56.6613C84.5845 56.6613 84.5635 56.6603 84.5425 56.6573L67.0805 54.4803C66.8065 54.4463 66.612 54.1963 66.6465 53.9223C66.6805 53.6483 66.927 53.4533 67.2045 53.4878L84.6665 55.6653C84.9405 55.6993 85.135 55.9493 85.1005 56.2233C85.0695 56.4763 84.8535 56.6613 84.605 56.6613Z" fill="#233863"/>
<path d="M88.832 57.1885C88.8115 57.1885 88.7905 57.187 88.7695 57.1845L86.431 56.893C86.157 56.859 85.963 56.609 85.997 56.335C86.0305 56.061 86.2785 55.8655 86.555 55.9005L88.8935 56.192C89.1675 56.226 89.3615 56.476 89.3275 56.75C89.2965 57.0035 89.0805 57.1885 88.832 57.1885Z" fill="white"/>
<path d="M72.9911 59.8414C72.9706 59.8414 72.9496 59.8404 72.9286 59.8374L66.5121 59.0374C66.2381 59.0034 66.0441 58.7534 66.0781 58.4794C66.1116 58.2054 66.3631 58.0109 66.6361 58.0449L73.0526 58.8449C73.3266 58.8789 73.5211 59.1289 73.4866 59.4029C73.4556 59.6564 73.2401 59.8414 72.9911 59.8414Z" fill="#233863"/>
<path d="M88.2637 61.7458C88.2432 61.7458 88.2222 61.7448 88.2012 61.7418L75.6987 60.1828C75.4247 60.1488 75.2302 59.8988 75.2647 59.6248C75.2982 59.3508 75.5482 59.1543 75.8227 59.1903L88.3252 60.7493C88.5992 60.7833 88.7937 61.0333 88.7592 61.3073C88.7282 61.5608 88.5122 61.7458 88.2637 61.7458Z" fill="#233863"/>
<path d="M79.8201 67.489C79.7996 67.489 79.7786 67.488 79.7576 67.485L65.6781 65.7295C65.4041 65.6955 65.2101 65.4455 65.2441 65.1715C65.2781 64.8975 65.5241 64.702 65.8021 64.737L79.8816 66.4925C80.1556 66.5265 80.3496 66.7765 80.3156 67.0505C80.2841 67.304 80.0686 67.489 79.8201 67.489Z" fill="#233863"/>
<path d="M86.632 75.0922C86.601 75.0922 86.57 75.0902 86.538 75.0862L80.044 74.2767C79.633 74.2257 79.3415 73.8507 79.3925 73.4397C79.4435 73.0287 79.8125 72.7362 80.2295 72.7882L86.7235 73.5977C87.1345 73.6487 87.426 74.0237 87.375 74.4347C87.3275 74.8142 87.0045 75.0922 86.632 75.0922Z" fill="#233863"/>
<path d="M147.86 117.6L67.1959 137.074C64.6549 137.688 62.0974 136.125 61.4839 133.584L48.6479 80.415C48.0344 77.874 49.5969 75.3165 52.1384 74.703L132.803 55.229C135.344 54.6155 137.901 56.178 138.515 58.7195L151.351 111.888C151.964 114.429 150.402 116.987 147.86 117.6Z" fill="#3D85FD"/>
<path d="M66.0749 137.958C65.0784 137.958 64.0984 137.685 63.2264 137.152C61.9769 136.389 61.0989 135.184 60.7554 133.76L47.9194 80.5911C47.2099 77.6521 49.0239 74.6836 51.9629 73.9741L132.628 54.5001C135.565 53.7901 138.534 55.6041 139.244 58.5431L152.08 111.712C152.79 114.651 150.976 117.619 148.037 118.329C148.037 118.329 148.037 118.329 148.037 118.329L67.3719 137.802C66.9419 137.907 66.5069 137.958 66.0749 137.958ZM133.914 55.8466C133.606 55.8466 133.292 55.8826 132.979 55.9581L52.3144 75.4321C50.1794 75.9476 48.8624 78.1041 49.3774 80.2391L62.2134 133.408C62.4634 134.442 63.1004 135.317 64.0089 135.873C64.9169 136.427 65.9874 136.596 67.0199 136.345L147.685 116.872H147.685C149.82 116.356 151.137 114.2 150.622 112.065L137.786 58.8951C137.346 57.0731 135.711 55.8466 133.914 55.8466Z" fill="#233863"/>
<path opacity="0.36" d="M123.161 56.6886L99.4575 62.4676L104.967 85.0671C105.682 87.9991 103.176 91.1281 99.3695 92.0556C92.142 93.8176 87.383 99.7591 88.74 105.326C89.314 107.682 87.3005 110.196 84.2425 110.941C75.7055 113.022 70.085 120.04 71.688 126.615L73.8575 135.514L146.275 117.859C149.855 116.986 152.05 113.376 151.177 109.796L139.172 60.5541C138.185 56.5036 134.101 54.0206 130.051 55.0081L123.161 56.6886Z" fill="#233863"/>
<path d="M79.6448 107.221L68.6888 109.892C68.4148 109.959 68.1383 109.791 68.0718 109.517L67.5128 107.224C67.4458 106.95 67.6138 106.673 67.8883 106.607L78.8443 103.936C79.1183 103.869 79.3948 104.037 79.4613 104.311L80.0203 106.605C80.0868 106.878 79.9188 107.154 79.6448 107.221Z" fill="#233863"/>
<path d="M93.6838 103.799L82.7278 106.47C82.4538 106.537 82.1773 106.369 82.1108 106.094L81.5518 103.801C81.4848 103.527 81.6528 103.251 81.9273 103.184L92.8833 100.513C93.1573 100.446 93.4338 100.614 93.5003 100.889L94.0593 103.182C94.1263 103.455 93.9583 103.732 93.6838 103.799Z" fill="#233863"/>
<path d="M107.424 100.449L96.4681 103.12C96.1941 103.187 95.9176 103.019 95.8511 102.745L95.2921 100.451C95.2251 100.177 95.3931 99.9007 95.6676 99.8342L106.624 97.1632C106.898 97.0962 107.174 97.2642 107.241 97.5387L107.8 99.8322C107.866 100.106 107.698 100.382 107.424 100.449Z" fill="#233863"/>
<path d="M121.165 97.0986L110.209 99.7696C109.935 99.8366 109.659 99.6686 109.592 99.3941L109.033 97.1006C108.966 96.8266 109.134 96.5501 109.409 96.4836L120.365 93.8126C120.639 93.7456 120.915 93.9136 120.982 94.1881L121.541 96.4816C121.607 96.7556 121.439 97.0321 121.165 97.0986Z" fill="#233863"/>
<path d="M79.2841 115.354L70.2656 117.552C69.9916 117.619 69.7151 117.451 69.6486 117.177L69.3731 116.046C69.3061 115.772 69.4741 115.495 69.7486 115.429L78.7671 113.23C79.0411 113.163 79.3176 113.331 79.3841 113.605L79.6596 114.736C79.7266 115.011 79.5581 115.287 79.2841 115.354Z" fill="white"/>
<path d="M131.471 65.1478L122.312 66.6583C122.033 66.7043 121.771 66.5158 121.725 66.2373L121.535 65.0888C121.489 64.8103 121.678 64.5478 121.956 64.5018L131.115 62.9913C131.394 62.9453 131.656 63.1338 131.702 63.4123L131.892 64.5608C131.937 64.8388 131.749 65.1018 131.471 65.1478Z" fill="white"/>
<path d="M97.953 74.0452L61.731 82.8757C61.362 82.9657 60.9905 82.7397 60.9005 82.3707L60.5295 80.8487C60.4395 80.4797 60.6655 80.1082 61.0345 80.0182L97.2565 71.1877C97.6255 71.0977 97.997 71.3237 98.087 71.6927L98.458 73.2147C98.548 73.5837 98.322 73.9557 97.953 74.0452Z" fill="white"/>
<path d="M92.0629 112.182L83.0444 114.381C82.7704 114.448 82.4939 114.28 82.4269 114.005L82.1514 112.874C82.0844 112.6 82.2524 112.324 82.5269 112.257L91.5454 110.059C91.8194 109.992 92.0959 110.16 92.1624 110.434L92.4379 111.565C92.5049 111.839 92.3369 112.115 92.0629 112.182Z" fill="white"/>
<path d="M104.527 109.242L95.5083 111.441C95.2343 111.508 94.9578 111.34 94.8913 111.065L94.6153 109.934C94.5483 109.66 94.7163 109.384 94.9908 109.317L104.009 107.119C104.283 107.052 104.56 107.22 104.626 107.494L104.902 108.625C104.969 108.899 104.801 109.176 104.527 109.242Z" fill="white"/>
<path d="M80.5751 121.947L71.5566 124.145C71.2826 124.212 71.0061 124.044 70.9396 123.77L70.6641 122.639C70.5971 122.365 70.7651 122.088 71.0396 122.021L80.0581 119.823C80.3321 119.756 80.6086 119.924 80.6751 120.198L80.9506 121.329C81.0171 121.603 80.8491 121.88 80.5751 121.947Z" fill="#FFB44F"/>
<path d="M80.4967 97.3367L67.3082 100.521C66.5787 100.697 65.8442 100.248 65.6682 99.5187L64.7102 95.5512L63.8302 91.9057C63.6542 91.1762 64.1027 90.4417 64.8327 90.2657L78.0207 87.0817C78.7502 86.9057 79.4847 87.3542 79.6607 88.0837L81.4987 95.6967C81.6747 96.4262 81.2262 97.1602 80.4967 97.3367Z" fill="#FFB44F"/>
<path d="M63.8882 96.5627C63.5527 96.5627 63.2472 96.3357 63.1617 95.9957C63.0602 95.5942 63.3037 95.1862 63.7057 95.0852L80.3327 90.8972C80.7347 90.7967 81.1422 91.0397 81.2427 91.4412C81.3442 91.8427 81.1007 92.2507 80.6987 92.3517L64.0717 96.5397C64.0102 96.5552 63.9487 96.5627 63.8882 96.5627Z" fill="#3D85FD"/>
<path d="M75.0226 93.4183C75.1566 94.8108 74.1366 96.0488 72.7441 96.1828C71.3516 96.3168 70.1136 95.2968 69.9796 93.9043C69.8456 92.5118 70.8656 91.2738 72.2581 91.1398C73.6506 91.0053 74.8881 92.0258 75.0226 93.4183Z" fill="#FFB44F"/>
<path d="M72.4982 96.9448C70.8282 96.9448 69.3957 95.6718 69.2322 93.9763C69.1482 93.1033 69.4092 92.2498 69.9672 91.5728C70.5247 90.8958 71.3127 90.4773 72.1862 90.3933C73.9867 90.2193 75.5952 91.5443 75.7692 93.3463C75.9432 95.1483 74.6177 96.7558 72.8157 96.9298C72.7092 96.9398 72.6032 96.9448 72.4982 96.9448ZM72.5037 91.8778C72.4462 91.8778 72.3877 91.8808 72.3292 91.8863C71.8552 91.9318 71.4272 92.1593 71.1242 92.5268C70.8217 92.8943 70.6792 93.3578 70.7252 93.8318C70.8192 94.8108 71.6887 95.5313 72.6717 95.4358C73.1457 95.3903 73.5737 95.1623 73.8767 94.7948C74.1792 94.4273 74.3217 93.9638 74.2757 93.4898C74.2297 93.0158 74.0022 92.5878 73.6347 92.2848C73.3122 92.0198 72.9162 91.8778 72.5037 91.8778Z" fill="#3D85FD"/>
<path d="M130.982 108.902C130.591 107.523 130.834 106.117 131.532 104.985C130.472 104.452 129.219 104.295 127.987 104.644C125.376 105.384 123.86 108.101 124.601 110.712C125.341 113.323 128.058 114.839 130.669 114.099C131.901 113.749 132.884 112.957 133.506 111.947C132.319 111.351 131.373 110.282 130.982 108.902Z" fill="white"/>
<path d="M136.045 102.377C134.813 102.727 133.83 103.519 133.208 104.529C132.51 105.66 132.267 107.066 132.658 108.446C133.05 109.825 133.995 110.894 135.182 111.491C136.242 112.024 137.495 112.182 138.727 111.833C141.338 111.092 142.854 108.375 142.113 105.764C141.373 103.153 138.656 101.637 136.045 102.377Z" fill="#FFB44F"/>
<path d="M139.382 15.4972C139.441 15.3772 139.534 15.2722 139.658 15.1992L147.8 10.3832C148.137 10.1842 148.571 10.2962 148.771 10.6322C148.969 10.9702 148.856 11.4032 148.522 11.6027L140.379 16.4187C140.043 16.6177 139.608 16.5057 139.409 16.1697C139.282 15.9557 139.281 15.7037 139.382 15.4972Z" fill="#233863"/>
<path d="M133.844 14.1932C133.833 14.0977 133.841 13.9992 133.871 13.9017L137.794 1.31816C137.91 0.944656 138.307 0.736656 138.68 0.853156C139.053 0.969156 139.262 1.36666 139.145 1.73966L135.223 14.3232C135.107 14.6967 134.71 14.9052 134.336 14.7882C134.061 14.7022 133.875 14.4627 133.844 14.1932Z" fill="#233863"/>
<path d="M120.265 2.39913C120.108 2.05963 120.242 1.65313 120.577 1.47613C120.922 1.29363 121.351 1.42563 121.534 1.77113L128.241 14.4596C128.418 14.8181 128.291 15.2341 127.946 15.4166C127.6 15.5991 127.171 15.4671 126.989 15.1216L120.281 2.43313C120.276 2.42213 120.27 2.41063 120.265 2.39913Z" fill="#233863"/>
<path d="M100.203 169.961C100.142 170.059 100.052 170.141 99.9398 170.193L92.5003 173.611C92.1928 173.752 91.8288 173.617 91.6873 173.31C91.5468 173.001 91.6828 172.638 91.9883 172.497L99.4278 169.079C99.7353 168.937 100.099 169.073 100.241 169.38C100.33 169.575 100.309 169.792 100.203 169.961Z" fill="#233863"/>
<path d="M104.853 171.577C104.854 171.66 104.838 171.745 104.803 171.826L100.303 182.307C100.169 182.618 99.8094 182.762 99.4984 182.628C99.1879 182.495 99.0429 182.134 99.1769 181.823L103.677 171.342C103.811 171.031 104.171 170.887 104.482 171.021C104.712 171.12 104.851 171.342 104.853 171.577Z" fill="#233863"/>
<path d="M115.49 182.943C115.594 183.249 115.442 183.587 115.139 183.709C114.825 183.836 114.468 183.684 114.341 183.37L109.701 171.848C109.581 171.524 109.727 171.177 110.041 171.051C110.355 170.924 110.712 171.076 110.838 171.39L115.478 182.912C115.482 182.922 115.486 182.933 115.49 182.943Z" fill="#233863"/>
<path d="M22.368 96.8721L22.0305 88.2656L36.8515 102.046L23.1555 116.945L22.818 108.34C22.818 108.34 10.028 105.773 1.95155 120.649C1.95155 120.649 -0.642452 109.637 8.70505 101.221C8.70505 101.221 12.9195 96.9576 22.368 96.8721Z" fill="#FFB44F"/>
<path d="M1.95186 121.399C1.91936 121.399 1.88586 121.397 1.85236 121.392C1.54436 121.351 1.29336 121.124 1.22186 120.821C1.19486 120.706 -1.36364 109.277 8.20336 100.663C8.34886 100.514 12.4814 96.4386 21.5889 96.1376L21.2814 88.2941C21.2699 87.9906 21.4419 87.7101 21.7179 87.5831C21.9934 87.4571 22.3194 87.5091 22.5419 87.7156L37.3629 101.496C37.6649 101.777 37.6839 102.249 37.4044 102.553L23.7089 117.452C23.5029 117.677 23.1829 117.754 22.8979 117.649C22.6129 117.544 22.4194 117.278 22.4074 116.974L22.0939 108.989C19.5559 108.7 9.44586 108.417 2.61186 121.006C2.47886 121.251 2.22436 121.399 1.95186 121.399ZM22.8514 90.0526L23.1174 96.8426C23.1254 97.0451 23.0509 97.2426 22.9109 97.3896C22.7709 97.5361 22.5774 97.6201 22.3749 97.6221C13.3404 97.7031 9.27886 101.708 9.23836 101.748C2.72036 107.618 2.21336 114.852 2.42336 118.364C10.6964 105.319 22.8374 107.579 22.9654 107.605C23.3054 107.673 23.5539 107.965 23.5674 108.311L23.8339 115.099L35.7944 102.088L22.8514 90.0526Z" fill="#233863"/>
<path d="M173.906 126.35L173.667 134.96L159.802 120.219L174.464 106.27L174.225 114.878C174.225 114.878 186.814 118.297 195.868 103.994C195.868 103.994 197.719 115.155 187.829 122.927C187.829 122.927 183.338 126.898 173.906 126.35Z" fill="#FFB44F"/>
<path d="M173.666 135.71C173.463 135.71 173.264 135.628 173.12 135.474L159.255 120.732C158.973 120.432 158.986 119.959 159.285 119.675L173.947 105.726C174.167 105.517 174.492 105.461 174.769 105.585C175.047 105.708 175.222 105.987 175.214 106.291L174.992 114.278C177.504 114.738 187.573 115.695 195.235 103.593C195.401 103.331 195.711 103.196 196.018 103.259C196.323 103.321 196.558 103.564 196.609 103.872C196.628 103.987 198.415 115.562 188.293 123.517C188.138 123.655 183.744 127.445 174.635 127.135L174.416 134.981C174.408 135.284 174.218 135.553 173.933 135.661C173.846 135.694 173.756 135.71 173.666 135.71ZM160.859 120.248L172.967 133.122L173.156 126.329C173.162 126.127 173.249 125.935 173.398 125.797C173.548 125.661 173.748 125.589 173.949 125.601C182.919 126.116 187.292 122.4 187.335 122.362C194.251 116.926 195.231 109.748 195.25 106.235C186.121 118.702 174.153 115.636 174.029 115.601C173.694 115.51 173.466 115.202 173.476 114.856L173.664 108.065L160.859 120.248Z" fill="#233863"/>
</svg>
