<svg width="1922" height="1717" viewBox="0 0 1922 1717" fill="none" xmlns="http://www.w3.org/2000/svg">
<mask id="mask0_361_161" style="mask-type:luminance" maskUnits="userSpaceOnUse" x="0" y="0" width="1922" height="1717">
<path d="M1917.24 1255.64C1894.84 1402.62 1805.73 1562.07 1669.62 1626.29C1536.56 1688.98 1293.98 1696 1149.7 1671.66C911.407 1631.44 710.425 1827.02 267.3 1618.41C157.185 1566.58 55.7794 1484.28 15.5244 1369.33C5.22743 1339.91 -1.31253 1308.64 1.52047 1277.6C7.14647 1216.14 47.7424 1164.58 82.5924 1113.66C126.333 1049.74 163.272 981.153 192.577 909.44C208.731 869.888 222.775 827.996 219.792 785.366C213.292 692.238 130.572 624.719 90.7204 540.316C54.6554 463.932 55.7405 370.993 93.5835 295.475C131.427 219.957 205.215 163.493 287.965 146.71C468.272 110.156 658.556 253.094 830.766 188.323C920.126 154.718 1013.5 90.116 1100.44 50.664C1472.13 -117.991 1777.29 176.54 1762.56 415.405C1750.38 613.034 1687.42 618.652 1599.12 779.06C1587.19 800.733 1581.8 826.45 1584.88 851.002C1591.18 901.52 1639.72 935.992 1687.59 953.263C1735.45 970.524 1787.82 977.775 1830.42 1005.62C1908.47 1056.65 1931.3 1163.42 1917.24 1255.64Z" fill="white"/>
</mask>
<g mask="url(#mask0_361_161)">
<path d="M1917.24 1255.64C1894.84 1402.62 1805.73 1562.07 1669.62 1626.29C1536.56 1688.98 1293.98 1696 1149.7 1671.66C911.407 1631.44 710.425 1827.02 267.3 1618.41C157.185 1566.58 55.7794 1484.28 15.5244 1369.33C5.22743 1339.91 -1.31253 1308.64 1.52047 1277.6C7.14647 1216.14 47.7424 1164.58 82.5924 1113.66C126.333 1049.74 163.272 981.153 192.577 909.44C208.731 869.888 222.775 827.996 219.792 785.366C213.292 692.238 130.572 624.719 90.7204 540.316C54.6554 463.932 55.7405 370.993 93.5835 295.475C131.427 219.957 205.215 163.493 287.965 146.71C468.272 110.156 658.556 253.094 830.766 188.323C920.126 154.718 1013.5 90.116 1100.44 50.664C1472.13 -117.991 1777.29 176.54 1762.56 415.405C1750.38 613.034 1687.42 618.652 1599.12 779.06C1587.19 800.733 1581.8 826.45 1584.88 851.002C1591.18 901.52 1639.72 935.992 1687.59 953.263C1735.45 970.524 1787.82 977.775 1830.42 1005.62C1908.47 1056.65 1931.3 1163.42 1917.24 1255.64Z" fill="#E9F4F6"/>
</g>
<mask id="mask1_361_161" style="mask-type:luminance" maskUnits="userSpaceOnUse" x="0" y="0" width="1922" height="1717">
<path d="M1917.24 1255.64C1894.84 1402.62 1805.73 1562.07 1669.62 1626.29C1536.56 1688.98 1293.98 1696 1149.7 1671.66C911.407 1631.44 710.425 1827.02 267.3 1618.41C157.185 1566.58 55.7794 1484.28 15.5244 1369.33C5.22743 1339.91 -1.31253 1308.64 1.52047 1277.6C7.14647 1216.14 47.7424 1164.58 82.5924 1113.66C126.333 1049.74 163.272 981.153 192.577 909.44C208.731 869.888 222.775 827.996 219.792 785.366C213.292 692.238 130.572 624.719 90.7204 540.316C54.6554 463.932 55.7405 370.993 93.5835 295.475C131.427 219.957 205.215 163.493 287.965 146.71C468.272 110.156 658.556 253.094 830.766 188.323C920.126 154.718 1013.5 90.116 1100.44 50.664C1472.13 -117.991 1777.29 176.54 1762.56 415.405C1750.38 613.034 1687.42 618.652 1599.12 779.06C1587.19 800.733 1581.8 826.45 1584.88 851.002C1591.18 901.52 1639.72 935.992 1687.59 953.263C1735.45 970.524 1787.82 977.775 1830.42 1005.62C1908.47 1056.65 1931.3 1163.42 1917.24 1255.64Z" fill="white"/>
</mask>
<g mask="url(#mask1_361_161)">
<path d="M583.662 1619.29C685.994 1615.82 796.793 1577.46 843.358 1489.65C856.961 1464 864.265 1433.73 855.565 1406.1C846.865 1378.47 818.882 1355.41 789.122 1358.26C763.366 1360.73 740.205 1381.01 714.752 1376.36C696.968 1373.11 683.622 1357.91 677.542 1341.46C671.462 1325.02 671.245 1307.21 670.364 1289.78C669.218 1267.13 666.838 1244.53 663.237 1222.11C658.976 1195.58 651.929 1167.43 631.218 1149.44C610.506 1131.46 572.093 1130.79 558.91 1154.38C552.679 1165.53 553.385 1178.98 550.249 1191.29C547.113 1203.6 536.736 1216.47 523.735 1214.51C518.644 1213.74 514.203 1210.78 510.274 1207.55C479.967 1182.69 477.787 1167.77 448.334 1127.37C436.98 1111.8 412.355 1089.71 394.815 1081.16C315.692 1042.57 220.702 1019.96 139.074 1052.82C123.111 1059.25 107.545 1068.09 97.5469 1081.69C78.5779 1107.51 84.8309 1144.81 104.179 1170.48C123.527 1196.15 153.245 1212.48 182.78 1226.46C212.314 1240.44 243.14 1253.19 267.76 1274.25C244.879 1286.02 218.667 1291.71 192.726 1290.56C179.289 1289.96 164.738 1287.8 153.284 1294.57C135.039 1305.34 136.825 1333.7 151.849 1348.47C166.873 1363.24 189.646 1367.47 211.005 1369.14C268.088 1373.59 330.783 1366.45 377.614 1398.36C383.902 1402.64 390.243 1408.57 390.16 1415.98C390.103 1421.07 386.952 1425.63 383.402 1429.39C365.698 1448.12 337.787 1453.36 314.319 1464.79C308.884 1467.43 303.49 1470.57 299.879 1475.3C285.602 1493.99 307.319 1518.53 327.533 1531.26C403.762 1579.27 482.78 1615.56 583.662 1619.29Z" fill="#49B2A4"/>
<path d="M199.629 1149.51C286.365 1175.32 368.64 1214.9 443.343 1265.94C517.336 1316.5 583.747 1378.18 639.657 1448.21C671.085 1487.58 699.025 1529.68 723.216 1573.86C725.629 1578.27 732.373 1574.34 729.956 1569.92C686.637 1490.81 631.083 1418.56 566.157 1355.96C500.928 1293.07 426.297 1239.8 345.362 1199.03C299.273 1175.81 251.166 1156.7 201.704 1141.98C196.878 1140.55 194.817 1148.08 199.629 1149.51Z" fill="#53CEBA"/>
</g>
<mask id="mask2_361_161" style="mask-type:luminance" maskUnits="userSpaceOnUse" x="0" y="0" width="1922" height="1717">
<path d="M1917.24 1255.64C1894.84 1402.62 1805.73 1562.07 1669.62 1626.29C1536.56 1688.98 1293.98 1696 1149.7 1671.66C911.407 1631.44 710.425 1827.02 267.3 1618.41C157.185 1566.58 55.7794 1484.28 15.5244 1369.33C5.22743 1339.91 -1.31253 1308.64 1.52047 1277.6C7.14647 1216.14 47.7424 1164.58 82.5924 1113.66C126.333 1049.74 163.272 981.153 192.577 909.44C208.731 869.888 222.775 827.996 219.792 785.366C213.292 692.238 130.572 624.719 90.7204 540.316C54.6554 463.932 55.7405 370.993 93.5835 295.475C131.427 219.957 205.215 163.493 287.965 146.71C468.272 110.156 658.556 253.094 830.766 188.323C920.126 154.718 1013.5 90.116 1100.44 50.664C1472.13 -117.991 1777.29 176.54 1762.56 415.405C1750.38 613.034 1687.42 618.652 1599.12 779.06C1587.19 800.733 1581.8 826.45 1584.88 851.002C1591.18 901.52 1639.72 935.992 1687.59 953.263C1735.45 970.524 1787.82 977.775 1830.42 1005.62C1908.47 1056.65 1931.3 1163.42 1917.24 1255.64Z" fill="white"/>
</mask>
<g mask="url(#mask2_361_161)">
<g opacity="0.7">
<path d="M1076.16 1663.66C957.57 1667.18 826.8 1630.9 766.938 1532.61C749.45 1503.9 738.931 1469.37 747.103 1436.72C755.275 1404.08 786.06 1375.3 820.675 1376.41C850.633 1377.37 878.807 1399.16 907.926 1391.89C928.272 1386.81 942.667 1368.23 948.573 1348.72C954.479 1329.22 953.512 1308.58 953.339 1288.32C953.114 1261.99 954.32 1235.64 956.951 1209.4C960.064 1178.35 966.288 1145.22 989.012 1122.86C1011.74 1100.5 1056.12 1096.89 1072.98 1123.25C1080.95 1135.71 1081.05 1151.34 1085.52 1165.37C1089.99 1179.4 1102.87 1193.55 1117.77 1190.32C1123.61 1189.05 1128.54 1185.29 1132.86 1181.27C1166.21 1150.22 1173.85 1100.88 1203.76 1066.72C1218.54 1049.85 1238.05 1037.53 1257.75 1026.33C1346.62 975.798 1454.93 942.604 1551.59 974.653C1570.49 980.921 1589.1 990.015 1601.59 1005.04C1625.3 1033.55 1620.62 1077.23 1600 1108.39C1579.38 1139.55 1546.12 1160.66 1512.92 1179.03C1479.72 1197.4 1444.94 1214.45 1417.91 1240.66C1445.17 1252.6 1475.88 1257.27 1505.8 1254.02C1521.3 1252.34 1537.98 1248.76 1551.69 1255.75C1573.53 1266.89 1573.41 1299.88 1557.04 1318.1C1540.68 1336.32 1514.63 1342.89 1490.04 1346.4C1424.32 1355.76 1351.32 1352.12 1299.35 1392.53C1292.37 1397.95 1285.44 1405.29 1286.04 1413.87C1286.46 1419.76 1290.41 1424.82 1294.78 1428.91C1316.53 1449.3 1349.17 1453.32 1377.1 1464.82C1383.56 1467.49 1390.02 1470.72 1394.52 1475.93C1412.31 1496.53 1388.87 1526.57 1366.36 1542.81C1281.49 1604.03 1192.58 1651.9 1076.16 1663.66Z" fill="#96CEDA"/>
</g>
</g>
<mask id="mask3_361_161" style="mask-type:luminance" maskUnits="userSpaceOnUse" x="0" y="0" width="1922" height="1717">
<path d="M1917.24 1255.64C1894.84 1402.62 1805.73 1562.07 1669.62 1626.29C1536.56 1688.98 1293.98 1696 1149.7 1671.66C911.407 1631.44 710.425 1827.02 267.3 1618.41C157.185 1566.58 55.7794 1484.28 15.5244 1369.33C5.22743 1339.91 -1.31253 1308.64 1.52047 1277.6C7.14647 1216.14 47.7424 1164.58 82.5924 1113.66C126.333 1049.74 163.272 981.153 192.577 909.44C208.731 869.888 222.775 827.996 219.792 785.366C213.292 692.238 130.572 624.719 90.7204 540.316C54.6554 463.932 55.7405 370.993 93.5835 295.475C131.427 219.957 205.215 163.493 287.965 146.71C468.272 110.156 658.556 253.094 830.766 188.323C920.126 154.718 1013.5 90.116 1100.44 50.664C1472.13 -117.991 1777.29 176.54 1762.56 415.405C1750.38 613.034 1687.42 618.652 1599.12 779.06C1587.19 800.733 1581.8 826.45 1584.88 851.002C1591.18 901.52 1639.72 935.992 1687.59 953.263C1735.45 970.524 1787.82 977.775 1830.42 1005.62C1908.47 1056.65 1931.3 1163.42 1917.24 1255.64Z" fill="white"/>
</mask>
<g mask="url(#mask3_361_161)">
<path d="M1151.66 938.764C1151.49 965.504 1148.63 993.156 1141.95 1020.91V1020.93C1137.85 1037.96 1132.31 1055.03 1125.07 1071.94C1118.26 1087.86 1109.95 1103.64 1099.9 1119.14C1097.57 1122.79 1095.12 1126.4 1092.56 1130.01C1078.23 1150.3 1060.8 1170.03 1039.78 1188.84C1034.71 1193.38 1030.11 1198.71 1025.96 1204.74C1025.96 1204.74 1025.94 1204.74 1025.93 1204.75C1016.66 1218.16 1009.48 1235.04 1003.98 1254.45C1000.98 1265.06 998.464 1276.44 996.4 1288.41C995.567 1293.15 994.808 1297.97 994.125 1302.89C992.906 1311.49 991.887 1320.34 991.041 1329.4C990.979 1330.11 990.916 1330.8 990.854 1331.5C988.479 1357.8 987.509 1385.76 987.385 1414.14C986.987 1500.37 994.373 1590.43 993.739 1648.85C993.553 1665.84 992.682 1680.15 990.755 1690.91C849.026 1716.46 694.503 1754.8 489.967 1720.71C494.705 1642.26 511.504 1506.39 527.37 1368.58C539.096 1266.61 550.299 1163.58 555.721 1081.99C560.222 1014.21 560.72 961.226 554.204 935.941L680.7 881.685L685.363 879.688L701.354 872.833L1092.38 705.109C1092.38 705.109 1116.41 747.74 1133.86 811.229C1134.35 812.992 1134.83 814.767 1135.31 816.567C1135.74 818.207 1136.16 819.871 1136.59 821.535C1140.79 838.043 1144.46 855.783 1147.13 874.435C1150.07 894.937 1151.79 916.536 1151.66 938.764Z" fill="#FDBAA0"/>
<path d="M592.237 1152.92C650.904 1218.97 699.794 868.084 684.589 784.896C674.3 728.603 676.271 672.357 678.712 636.268C683.312 568.249 675.935 506.562 625.521 495.993C604.901 491.669 596.609 496.454 592.261 512.068C588.626 525.092 587.732 545.648 584.726 574.727C582.508 596.021 579.164 621.886 572.765 652.714C547.148 776.137 503.152 1052.62 592.237 1152.92Z" fill="#FDBAA0"/>
<path d="M993.736 1648.85C994.988 1533.09 964.754 1293.19 1025.93 1204.75C1024.03 1205.57 902.541 1258.43 910.219 1339.93C917.952 1422.06 951.15 1490.87 933.739 1551.4C917.818 1606.72 950.668 1655.21 993.736 1648.85Z" fill="#FFD1C3"/>
<path d="M1037.67 1480.5C1035.8 1420.66 1021.48 1406.82 987.385 1414.14C971.78 1417.48 952.034 1425.26 927.438 1435.07C910.042 1442.02 890.234 1449.99 867.74 1458.12C764.409 1495.53 607.473 1380.96 527.37 1368.58C511.578 1366.14 498.758 1367.68 489.943 1375.14C436.387 1420.42 497.491 1502.66 460.237 1603.21C446.223 1641.02 434.025 1676.64 426.851 1708.19C448.425 1713.15 469.452 1717.3 489.968 1720.71C694.504 1754.8 849.027 1716.46 990.756 1690.91C1016.99 1686.18 1042.79 1681.89 1068.38 1678.59C1057.98 1637.08 1040.01 1555.66 1037.67 1480.5Z" fill="#FFBF00"/>
<path d="M627.964 1378.76C638.42 1382.96 648.876 1387.16 659.332 1391.36C665.923 1394.01 668.787 1383.33 662.267 1380.71C651.811 1376.51 641.355 1372.32 630.899 1368.12C624.307 1365.47 621.443 1376.14 627.964 1378.76Z" fill="#FFBF00"/>
<path d="M1027.66 1193.37C989.598 1218.84 943.2 1229.32 897.89 1222.42C894.415 1221.89 892.917 1227.21 896.423 1227.74C943.203 1234.87 991.076 1224.48 1030.45 1198.13C1033.38 1196.17 1030.62 1191.38 1027.66 1193.37Z" fill="#E79780"/>
<path d="M564.351 1096.43C605.461 1141.16 656.374 1175.64 713.02 1197.54C716.335 1198.82 717.771 1193.48 714.487 1192.21C658.741 1170.67 608.695 1136.53 568.254 1092.53C565.845 1089.91 561.95 1093.82 564.351 1096.43Z" fill="#E79780"/>
<path d="M722.587 1144.02L1135.26 1128.39C1152.8 1127.72 1166.48 1112.95 1165.8 1095.41L1138.23 380.25C1137.56 362.723 1122.81 349.059 1105.28 349.723L692.612 365.36C675.069 366.025 661.389 380.792 662.065 398.334L689.634 1113.5C690.31 1131.02 705.06 1144.69 722.587 1144.02Z" fill="black"/>
<path d="M721.886 1087.22L1131.61 1071.7C1138.38 1071.44 1143.67 1065.74 1143.4 1058.97L1117.24 380.33C1116.98 373.562 1111.29 368.285 1104.52 368.542L694.797 384.067C688.022 384.324 682.739 390.026 683 396.801L709.161 1075.44C709.421 1082.2 715.117 1087.48 721.886 1087.22Z" fill="#F8FEFF"/>
<path d="M653.702 1144.73C653.4 1144.73 653.092 1144.66 652.804 1144.53C584.907 1110.33 556.618 1037.77 556.344 1037.05C555.946 1036.02 556.467 1034.85 557.502 1034.46C558.509 1034.09 559.688 1034.59 560.085 1035.62C560.359 1036.34 588.127 1107.47 654.599 1140.94C655.593 1141.44 655.99 1142.65 655.49 1143.64C655.141 1144.33 654.435 1144.73 653.702 1144.73Z" fill="#FDBAA0"/>
<g opacity="0.7">
<path d="M376.297 542.42C379.848 542.42 379.854 536.901 376.297 536.901C372.746 536.901 372.74 542.42 376.297 542.42Z" fill="white"/>
</g>
<path d="M915.245 1101.07C921.242 1101.12 927.24 1101.18 933.237 1101.23C935.978 1101.25 938.794 1101.07 941.517 1101.33C945.737 1101.74 956.418 1103.54 942.604 1111.02C938.256 1113.37 929.774 1112.28 924.969 1112.17C922.126 1112.11 919.267 1112.03 916.431 1111.82C914.904 1111.67 913.378 1111.52 911.851 1111.37C910.636 1103.76 912.698 1100.39 918.038 1101.25C921.581 1101.13 921.597 1095.61 918.038 1095.73C910.418 1095.97 895.671 1100.52 902.117 1111.33C904.608 1115.51 909.329 1116.58 913.758 1117.16C922.283 1118.29 931.786 1118.26 940.287 1117.01C947.79 1115.91 959.865 1108.97 952.751 1099.96C950.325 1096.89 946.263 1096.21 942.601 1095.86C933.625 1094.99 924.262 1095.63 915.245 1095.55C911.692 1095.52 911.689 1101.04 915.245 1101.07Z" fill="#8FD7E3"/>
<path d="M1179.5 583.535C1175.31 582.925 1171.44 584.486 1169.06 588.038C1167.08 590.997 1171.86 593.763 1173.83 590.824C1174.7 589.527 1176.44 588.626 1178.03 588.858C1179.5 589.073 1181 588.493 1181.43 586.931C1181.78 585.631 1180.98 583.751 1179.5 583.535Z" fill="#E9F4F6"/>
</g>
<mask id="mask4_361_161" style="mask-type:luminance" maskUnits="userSpaceOnUse" x="0" y="0" width="1922" height="1717">
<path d="M1917.24 1255.64C1894.84 1402.62 1805.73 1562.07 1669.62 1626.29C1536.56 1688.98 1293.98 1696 1149.7 1671.66C911.407 1631.44 710.425 1827.02 267.3 1618.41C157.185 1566.58 55.7794 1484.28 15.5244 1369.33C5.22743 1339.91 -1.31253 1308.64 1.52047 1277.6C7.14647 1216.14 47.7424 1164.58 82.5924 1113.66C126.333 1049.74 163.272 981.153 192.577 909.44C208.731 869.888 222.775 827.996 219.792 785.366C213.292 692.238 130.572 624.719 90.7204 540.316C54.6554 463.932 55.7405 370.993 93.5835 295.475C131.427 219.957 205.215 163.493 287.965 146.71C468.272 110.156 658.556 253.094 830.766 188.323C920.126 154.718 1013.5 90.116 1100.44 50.664C1472.13 -117.991 1777.29 176.54 1762.56 415.405C1750.38 613.034 1687.42 618.652 1599.12 779.06C1587.19 800.733 1581.8 826.45 1584.88 851.002C1591.18 901.52 1639.72 935.992 1687.59 953.263C1735.45 970.524 1787.82 977.775 1830.42 1005.62C1908.47 1056.65 1931.3 1163.42 1917.24 1255.64Z" fill="white"/>
</mask>
<g mask="url(#mask4_361_161)">
<path d="M1120.36 438.19L684.989 457.191L689.663 564.269L1125.03 545.268L1120.36 438.19Z" fill="#5BC2D3"/>
<path d="M789.263 535.287C788.715 534.755 788.417 533.935 788.369 532.826L785.919 476.729C785.868 475.559 786.091 474.684 786.591 474.107C787.09 473.53 787.987 473.213 789.281 473.156L793.532 472.97C794.394 472.932 795.077 473.027 795.581 473.251C796.084 473.476 796.598 473.947 797.124 474.665L829.471 515.661L827.691 474.905C827.64 473.735 827.863 472.86 828.363 472.283C828.861 471.706 829.728 471.39 830.961 471.336L835.859 471.122C837.091 471.068 837.996 471.306 838.575 471.837C839.154 472.367 839.469 473.219 839.52 474.389L841.97 530.486C842.018 531.595 841.792 532.438 841.294 533.016C840.794 533.593 839.898 533.91 838.604 533.967L834.26 534.157C833.396 534.195 832.745 534.116 832.305 533.919C831.864 533.723 831.35 533.266 830.764 532.551L798.421 491.648L800.197 532.312C800.245 533.421 800.019 534.264 799.52 534.842C799.02 535.419 798.124 535.736 796.83 535.793L791.932 536.007C790.7 536.057 789.81 535.818 789.263 535.287Z" fill="#F8FEFF"/>
<path d="M853.771 532.47C853.223 531.938 852.925 531.118 852.876 530.009L850.426 473.912C850.375 472.742 850.598 471.867 851.098 471.29C851.597 470.713 852.462 470.397 853.696 470.343L892.142 468.664C893.374 468.61 894.232 468.82 894.716 469.292C895.2 469.766 895.467 470.587 895.518 471.757L895.627 474.252C895.678 475.423 895.484 476.281 895.045 476.824C894.606 477.368 893.77 477.667 892.538 477.721L862.502 479.033L863.285 496.962L885.096 496.009C886.328 495.955 887.201 496.165 887.716 496.635C888.23 497.107 888.513 497.928 888.564 499.098L888.665 501.408C888.716 502.579 888.506 503.438 888.037 503.982C887.566 504.528 886.716 504.827 885.483 504.88L863.672 505.833L864.459 523.854L894.403 522.546C895.635 522.492 896.508 522.717 897.025 523.219C897.54 523.722 897.824 524.558 897.875 525.728L897.984 528.223C898.032 529.332 897.82 530.144 897.35 530.658C896.878 531.174 896.027 531.457 894.795 531.51L856.441 533.185C855.208 533.241 854.318 533.002 853.771 532.47Z" fill="#F8FEFF"/>
<path d="M918.754 529.955C918.277 529.637 917.928 529.051 917.705 528.195L900.556 470.517C900.486 470.335 900.444 470.059 900.428 469.689C900.388 468.765 900.952 468.278 902.123 468.226L909.609 467.899C910.533 467.859 911.187 467.985 911.57 468.276C911.953 468.569 912.22 469.05 912.374 469.722L923.391 509.982L932.916 473.64C933.129 472.89 933.4 472.369 933.727 472.077C934.053 471.785 934.617 471.621 935.419 471.586L939.67 471.4C940.47 471.365 941.046 471.479 941.398 471.741C941.748 472.004 942.063 472.499 942.342 473.228L955.091 508.598L962.464 467.535C962.557 466.852 962.797 466.349 963.185 466.022C963.572 465.697 964.196 465.515 965.06 465.477L972.638 465.146C973.808 465.095 974.414 465.531 974.454 466.455C974.47 466.825 974.45 467.103 974.398 467.291L962.25 526.249C962.041 527.123 961.713 527.739 961.266 528.097C960.819 528.456 960.163 528.654 959.301 528.692L954.311 528.91C953.448 528.948 952.779 528.808 952.302 528.489C951.825 528.171 951.444 527.586 951.16 526.733L938.363 490.254L928.888 527.706C928.679 528.58 928.351 529.196 927.904 529.554C927.457 529.913 926.801 530.111 925.939 530.149L920.856 530.371C919.931 530.413 919.23 530.274 918.754 529.955Z" fill="#F8FEFF"/>
<path d="M989.845 527.313C985.582 526.543 982.15 525.35 979.549 523.735C978.723 523.216 978.302 522.741 978.283 522.309C978.264 521.879 978.371 521.504 978.605 521.184L981.445 516.245C981.79 515.675 982.116 515.383 982.425 515.369C982.732 515.356 983.139 515.492 983.646 515.779C985.984 517.035 988.682 518.013 991.737 518.712C994.791 519.412 997.86 519.695 1000.94 519.56C1005.13 519.377 1008.26 518.546 1010.32 517.067C1012.39 515.588 1013.35 513.309 1013.22 510.227C1013.14 508.379 1012.67 506.918 1011.82 505.844C1010.97 504.77 1009.76 503.867 1008.19 503.133C1006.61 502.4 1004.07 501.43 1000.56 500.225L998.397 499.486C994.32 498.059 990.942 496.663 988.26 495.299C985.576 493.935 983.32 492.089 981.49 489.761C979.659 487.434 978.67 484.546 978.519 481.095C978.274 475.489 980.225 471.066 984.375 467.83C988.523 464.593 994.078 462.823 1001.04 462.518C1005.29 462.332 1008.99 462.573 1012.14 463.237C1015.28 463.903 1018.03 465.017 1020.39 466.581C1021.15 467.103 1021.54 467.611 1021.56 468.103C1021.58 468.473 1021.47 468.818 1021.24 469.136L1018.49 474.071C1018.15 474.641 1017.85 474.933 1017.6 474.943C1017.36 474.954 1016.95 474.786 1016.38 474.441C1012.32 472.088 1007.37 471.038 1001.52 471.294C997.635 471.463 994.74 472.301 992.83 473.803C990.92 475.307 990.033 477.599 990.167 480.679C990.25 482.59 990.733 484.096 991.615 485.199C992.497 486.303 993.755 487.22 995.392 487.951C997.029 488.682 999.664 489.648 1003.3 490.847L1005.65 491.67C1010.22 493.261 1013.81 494.755 1016.4 496.154C1018.99 497.554 1021.03 499.347 1022.51 501.535C1024 503.724 1024.82 506.573 1024.97 510.085C1025.2 515.384 1023.4 519.645 1019.56 522.868C1015.72 526.091 1010.13 527.863 1002.8 528.184C998.424 528.374 994.106 528.084 989.845 527.313Z" fill="#F8FEFF"/>
</g>
<mask id="mask5_361_161" style="mask-type:luminance" maskUnits="userSpaceOnUse" x="0" y="0" width="1922" height="1717">
<path d="M1917.24 1255.64C1894.84 1402.62 1805.73 1562.07 1669.62 1626.29C1536.56 1688.98 1293.98 1696 1149.7 1671.66C911.407 1631.44 710.425 1827.02 267.3 1618.41C157.185 1566.58 55.7794 1484.28 15.5244 1369.33C5.22743 1339.91 -1.31253 1308.64 1.52047 1277.6C7.14647 1216.14 47.7424 1164.58 82.5924 1113.66C126.333 1049.74 163.272 981.153 192.577 909.44C208.731 869.888 222.775 827.996 219.792 785.366C213.292 692.238 130.572 624.719 90.7204 540.316C54.6554 463.932 55.7405 370.993 93.5835 295.475C131.427 219.957 205.215 163.493 287.965 146.71C468.272 110.156 658.556 253.094 830.766 188.323C920.126 154.718 1013.5 90.116 1100.44 50.664C1472.13 -117.991 1777.29 176.54 1762.56 415.405C1750.38 613.034 1687.42 618.652 1599.12 779.06C1587.19 800.733 1581.8 826.45 1584.88 851.002C1591.18 901.52 1639.72 935.992 1687.59 953.263C1735.45 970.524 1787.82 977.775 1830.42 1005.62C1908.47 1056.65 1931.3 1163.42 1917.24 1255.64Z" fill="white"/>
</mask>
<g mask="url(#mask5_361_161)">
<path d="M812.899 626.874L728.219 630.569L731.915 715.25L816.595 711.554L812.899 626.874Z" fill="#53CEBA"/>
<path d="M818.358 751.953L733.678 755.648L737.373 840.329L822.054 836.633L818.358 751.953Z" fill="#8FD7E3"/>
<path d="M823.761 875.777L739.081 879.473L742.777 964.153L827.457 960.457L823.761 875.777Z" fill="#FC8377"/>
<path d="M1069.35 615.682L834.85 625.916L835.481 640.38L1069.98 630.145L1069.35 615.682Z" fill="#CAE1E5"/>
<path d="M1077.83 810.076L843.333 820.311L843.964 834.774L1078.46 824.54L1077.83 810.076Z" fill="#CAE1E5"/>
<path d="M1070.71 646.978L836.216 657.212L836.847 671.675L1071.34 661.441L1070.71 646.978Z" fill="#CAE1E5"/>
<path d="M998.768 681.902L837.6 688.936L838.231 703.4L999.399 696.366L998.768 681.902Z" fill="#CAE1E5"/>
<path d="M1074.98 744.86L840.487 755.094L841.119 769.558L1075.62 759.323L1074.98 744.86Z" fill="#CAE1E5"/>
<path d="M1003.04 779.785L841.871 786.819L842.502 801.283L1003.67 794.249L1003.04 779.785Z" fill="#CAE1E5"/>
<path d="M1080.21 864.586L845.712 874.82L846.343 889.283L1080.84 879.049L1080.21 864.586Z" fill="#CAE1E5"/>
<path d="M1008.27 899.51L847.098 906.544L847.729 921.007L1008.9 913.974L1008.27 899.51Z" fill="#CAE1E5"/>
</g>
<mask id="mask6_361_161" style="mask-type:luminance" maskUnits="userSpaceOnUse" x="0" y="0" width="1922" height="1717">
<path d="M1917.24 1255.64C1894.84 1402.62 1805.73 1562.07 1669.62 1626.29C1536.56 1688.98 1293.98 1696 1149.7 1671.66C911.407 1631.44 710.425 1827.02 267.3 1618.41C157.185 1566.58 55.7794 1484.28 15.5244 1369.33C5.22743 1339.91 -1.31253 1308.64 1.52047 1277.6C7.14647 1216.14 47.7424 1164.58 82.5924 1113.66C126.333 1049.74 163.272 981.153 192.577 909.44C208.731 869.888 222.775 827.996 219.792 785.366C213.292 692.238 130.572 624.719 90.7204 540.316C54.6554 463.932 55.7405 370.993 93.5835 295.475C131.427 219.957 205.215 163.493 287.965 146.71C468.272 110.156 658.556 253.094 830.766 188.323C920.126 154.718 1013.5 90.116 1100.44 50.664C1472.13 -117.991 1777.29 176.54 1762.56 415.405C1750.38 613.034 1687.42 618.652 1599.12 779.06C1587.19 800.733 1581.8 826.45 1584.88 851.002C1591.18 901.52 1639.72 935.992 1687.59 953.263C1735.45 970.524 1787.82 977.775 1830.42 1005.62C1908.47 1056.65 1931.3 1163.42 1917.24 1255.64Z" fill="white"/>
</mask>
<g mask="url(#mask6_361_161)">
<path d="M1159.98 456.815C1116.63 463.78 1073.63 475.088 1083.63 525.783C1093.59 576.237 1184.79 561.491 1193.67 520.912C1198.28 499.813 1194.85 451.214 1159.98 456.815Z" fill="#FFCFBF"/>
<path d="M1167.3 484.901C1167.3 484.901 1174.35 510.498 1168.23 519.271C1162.12 528.044 1139.28 539.35 1136.6 537.529C1133.92 535.708 1136.71 522.445 1133.29 507.236C1130.61 495.346 1120.18 484.829 1125.94 480.91C1131.69 476.99 1164.34 476.031 1167.3 484.901Z" fill="#FFBF00"/>
<path d="M1185.9 540.925C1138.48 546.248 1091.23 556.263 1099.39 611.33C1107.52 666.134 1207.28 654.836 1219.06 611.604C1225.18 589.126 1224.03 536.644 1185.9 540.925Z" fill="#FFCFBF"/>
<path d="M1195.17 574.327C1195.17 574.327 1203.34 597.583 1196.24 606.718C1189.13 615.854 1159.06 628.722 1156.25 626.627C1153.44 624.532 1157.17 610.397 1154.26 593.855C1151.99 580.924 1141.22 569.081 1147.68 565.151C1154.14 561.222 1192.42 564.631 1195.17 574.327Z" fill="#FFBF00"/>
<path d="M1157.32 631.102C1113.28 641.664 1069.95 656.666 1084.28 708.033C1098.54 759.156 1191.19 736.84 1197.08 694.4C1200.15 672.335 1192.74 622.608 1157.32 631.102Z" fill="#FFCFBF"/>
<path d="M1168.32 662.6C1168.32 662.6 1178.9 686.35 1173.31 695.854C1167.71 705.358 1142.6 717.629 1139.7 715.966C1136.8 714.302 1138.62 700.44 1133.88 685.062C1130.18 673.041 1118.61 663.039 1124.22 658.556C1129.83 654.074 1164.56 653.707 1168.32 662.6Z" fill="#FFBF00"/>
<path d="M1143.5 719.876C1109.48 728.801 1076.09 741.162 1088.08 780.811C1100.01 820.271 1171.57 801.421 1175.44 768.371C1177.45 751.187 1170.87 712.698 1143.5 719.876Z" fill="#FFCFBF"/>
<path d="M1152.91 743.242C1152.91 743.242 1159.41 760.373 1155.23 767.845C1151.04 775.317 1133.52 787.303 1131.24 786.059C1128.96 784.815 1130.14 774.022 1126.21 762.159C1123.13 752.886 1113.98 745.31 1118.26 741.737C1122.54 738.164 1149.84 736.399 1152.91 743.242Z" fill="#FFBF00"/>
<path d="M1123.38 557.955C1123.06 557.955 1122.76 557.791 1122.61 557.489C1122.41 557.064 1122.58 556.543 1123 556.338C1140.81 547.553 1179.5 540.837 1179.89 540.769C1180.31 540.755 1180.8 541.016 1180.88 541.468C1180.96 541.934 1180.65 542.386 1180.18 542.469C1179.8 542.524 1141.34 549.198 1123.76 557.874C1123.63 557.927 1123.51 557.955 1123.38 557.955Z" fill="#FDBAA0"/>
<path d="M1146.24 645.712C1135.91 645.712 1126.37 644.903 1121.52 642.423C1121.1 642.204 1120.93 641.683 1121.15 641.258C1121.36 640.847 1121.89 640.71 1122.3 640.888C1135.32 647.617 1186.07 641.368 1186.57 641.299C1187.05 641.231 1187.47 641.587 1187.53 642.039C1187.58 642.519 1187.25 642.944 1186.78 642.998C1185.43 643.162 1164.6 645.712 1146.24 645.712Z" fill="#FDBAA0"/>
<path d="M1120.42 736.689C1114.38 736.689 1109.26 735.949 1106.23 733.989C1105.83 733.742 1105.72 733.208 1105.98 732.81C1106.24 732.426 1106.77 732.303 1107.16 732.563C1118.96 740.197 1167.39 727.615 1167.87 727.478C1168.35 727.286 1168.79 727.629 1168.91 728.081C1169.03 728.547 1168.76 729.013 1168.3 729.123C1166.78 729.535 1139.16 736.689 1120.42 736.689Z" fill="#FDBAA0"/>
</g>
<mask id="mask7_361_161" style="mask-type:luminance" maskUnits="userSpaceOnUse" x="0" y="0" width="1922" height="1717">
<path d="M1917.24 1255.64C1894.84 1402.62 1805.73 1562.07 1669.62 1626.29C1536.56 1688.98 1293.98 1696 1149.7 1671.66C911.407 1631.44 710.425 1827.02 267.3 1618.41C157.185 1566.58 55.7794 1484.28 15.5244 1369.33C5.22743 1339.91 -1.31253 1308.64 1.52047 1277.6C7.14647 1216.14 47.7424 1164.58 82.5924 1113.66C126.333 1049.74 163.272 981.153 192.577 909.44C208.731 869.888 222.775 827.996 219.792 785.366C213.292 692.238 130.572 624.719 90.7204 540.316C54.6554 463.932 55.7405 370.993 93.5835 295.475C131.427 219.957 205.215 163.493 287.965 146.71C468.272 110.156 658.556 253.094 830.766 188.323C920.126 154.718 1013.5 90.116 1100.44 50.664C1472.13 -117.991 1777.29 176.54 1762.56 415.405C1750.38 613.034 1687.42 618.652 1599.12 779.06C1587.19 800.733 1581.8 826.45 1584.88 851.002C1591.18 901.52 1639.72 935.992 1687.59 953.263C1735.45 970.524 1787.82 977.775 1830.42 1005.62C1908.47 1056.65 1931.3 1163.42 1917.24 1255.64Z" fill="white"/>
</mask>
<g mask="url(#mask7_361_161)">
<path d="M1893.95 1622.62C1774.94 1678.68 1585.7 1698.67 1422.74 1694.26C1416.36 1690.54 1410.24 1687.43 1404.41 1684.96C1286.28 1635.07 1219.08 1590.38 1155.75 1520.85C1103.36 1463.34 1029.62 1374.78 990.854 1331.5C988.38 1328.75 986.054 1326.18 983.878 1323.81C978.929 1318.41 974.788 1314.06 971.642 1311C966.855 1306.35 963.423 1292.45 967.725 1279.53C971.667 1267.68 982.112 1256.68 1003.98 1254.45C1004.82 1254.38 1005.66 1254.3 1006.53 1254.24C1062.6 1250.43 1196.44 1402.4 1208.34 1388.17C1219.9 1374.39 1158.27 1242.22 1104.84 1129.54C1103.19 1126.05 1101.54 1122.59 1099.9 1119.14C1092.43 1103.39 1085.18 1088.12 1078.35 1073.72C1054.67 1023.64 1036.35 984.02 1033.07 971.223C1027.48 949.464 1030.46 929.665 1038.56 917.743C1048.26 903.467 1065.33 900.521 1083.84 919.124C1083.85 919.136 1083.86 919.149 1083.86 919.161C1090.89 926.213 1098.11 936.371 1105.21 950.179C1115.11 969.399 1127.96 994.314 1141.94 1020.88C1141.94 1020.89 1141.94 1020.89 1141.94 1020.91C1149.27 1034.8 1156.89 1049.14 1164.56 1063.35C1203.76 1135.97 1244.21 1205.19 1251.04 1193.76C1257.39 1183.16 1200.67 1063.44 1160.66 962.052C1157.54 954.162 1154.53 946.383 1151.66 938.776V938.764C1146.27 924.513 1141.37 910.865 1137.21 898.204C1123.83 857.497 1118.03 827.083 1128.03 820.081C1129.99 818.7 1132.02 817.665 1134.07 816.95C1134.48 816.802 1134.89 816.679 1135.3 816.568C1139.05 815.508 1142.91 815.483 1146.9 816.408C1149.6 817.024 1152.36 818.072 1155.16 819.502C1164.98 824.557 1175.38 834.456 1186.09 847.758C1255.56 934.104 1337.95 1163.97 1360.6 1144.11C1380.44 1126.72 1238.2 843.209 1302.09 816.864C1305.21 815.57 1308.37 815.2 1311.55 815.656C1324.52 817.493 1337.87 833.039 1351.08 856.129C1400.87 943.215 1448.47 1137.78 1464.45 1110.89C1485.71 1075.1 1414.1 882.277 1474.09 878.776C1474.69 878.739 1475.3 878.825 1475.95 878.998C1482.84 881.02 1492.54 895.678 1503.81 918.214C1547.07 1004.67 1613.65 1207.15 1635.36 1257.51C1689.35 1382.71 1722.14 1478.22 1786.98 1534.5C1808.1 1552.83 1848.73 1586.09 1893.95 1622.62Z" fill="#FDBAA0"/>
<path d="M1015.25 1346.64C1015.25 1346.64 1034.23 1319.29 1007.61 1296.77C980.988 1274.24 959.241 1274.97 956.049 1290.36C952.856 1305.74 1015.25 1346.64 1015.25 1346.64Z" fill="#FFBF00"/>
<path d="M968.818 1296.26C978.828 1298.57 987.771 1303.09 995.393 1310C999.808 1314.01 1006.39 1307.46 1001.96 1303.44C993.182 1295.49 982.837 1289.97 971.285 1287.31C965.472 1285.97 962.991 1294.92 968.818 1296.26Z" fill="#FFB44F"/>
<path d="M1231.84 1266.73C1236.94 1270.93 1242.04 1275.13 1247.14 1279.32C1249.09 1280.93 1251.79 1281.2 1253.7 1279.32C1255.36 1277.7 1255.63 1274.35 1253.7 1272.76C1248.6 1268.57 1243.5 1264.37 1238.4 1260.17C1236.46 1258.57 1233.76 1258.3 1231.84 1260.17C1230.18 1261.8 1229.91 1265.15 1231.84 1266.73Z" fill="#FFDCD1"/>
<path d="M1230.22 1238.98C1235.32 1243.18 1240.42 1247.37 1245.52 1251.57C1247.47 1253.17 1250.17 1253.44 1252.08 1251.57C1253.74 1249.95 1254.01 1246.6 1252.08 1245.01C1246.98 1240.81 1241.88 1236.61 1236.78 1232.42C1234.83 1230.81 1232.13 1230.55 1230.22 1232.42C1228.56 1234.04 1228.29 1237.39 1230.22 1238.98Z" fill="#FFDCD1"/>
<path d="M1311.65 1202.62C1320.24 1208.36 1330.01 1211.33 1340.32 1211.6C1346.3 1211.75 1346.29 1202.47 1340.32 1202.32C1331.56 1202.09 1323.62 1199.47 1316.33 1194.61C1311.35 1191.28 1306.7 1199.32 1311.65 1202.62Z" fill="#FFDCD1"/>
<path d="M1420.77 1172.83C1429.52 1170.81 1437.93 1172.8 1445.14 1178.06C1449.97 1181.58 1454.6 1173.54 1449.82 1170.05C1440.64 1163.35 1429.31 1161.34 1418.3 1163.88C1412.48 1165.22 1414.95 1174.17 1420.77 1172.83Z" fill="#FFDCD1"/>
<path d="M1524.74 1146.08C1535.36 1145.7 1545.09 1148.35 1554.04 1154.09C1559.09 1157.32 1563.74 1149.29 1558.73 1146.07C1548.51 1139.52 1536.86 1136.36 1524.74 1136.81C1518.79 1137.02 1518.76 1146.3 1524.74 1146.08Z" fill="#FFDCD1"/>
<path d="M1047.35 905.909C1047.35 905.909 1062.56 897.593 1067.9 901.425C1073.23 905.257 1109.79 941.426 1083.55 959.123C1057.31 976.819 1041.94 943.31 1039.54 929.712C1037.13 916.114 1038.43 909.809 1047.35 905.909Z" fill="#FFBF00"/>
<path d="M1140.21 819.52C1140.21 819.52 1156.1 810.757 1161.75 814.94C1167.4 819.122 1206.27 858.433 1178.89 877.152C1151.51 895.871 1134.95 859.666 1132.27 845.019C1129.58 830.373 1130.87 823.61 1140.21 819.52Z" fill="#FFBF00"/>
<path d="M1308.86 816.743C1308.86 816.743 1324.66 809.74 1329.63 813.986C1334.61 818.232 1367.87 857.169 1340.33 872.577C1312.79 887.985 1300.34 853.438 1299.09 839.736C1297.85 826.035 1299.67 819.88 1308.86 816.743Z" fill="#FFBF00"/>
<path d="M1476.24 878.891C1476.24 878.891 1486.45 874.101 1489.91 877.537C1493.36 880.972 1516.84 912.025 1499.17 922.827C1481.49 933.629 1471.96 906.701 1470.63 896.155C1469.3 885.609 1470.27 880.959 1476.24 878.891Z" fill="#FFBF00"/>
<path d="M1139.77 847.076C1141.24 857.32 1148.4 865.347 1157.8 869.179C1163.33 871.432 1165.73 862.459 1160.27 860.231C1153.73 857.568 1149.7 851.421 1148.72 844.609C1148.37 842.109 1145.22 840.788 1143.01 841.368C1140.34 842.073 1139.42 844.607 1139.77 847.076Z" fill="#FFB44F"/>
<path d="M1311.23 823.487C1306.59 828.763 1308.14 838.062 1308.82 844.499C1309.44 850.378 1318.72 850.441 1318.1 844.499C1317.81 841.818 1317.62 839.133 1317.58 836.437C1317.56 835.16 1316.9 831.072 1317.8 830.049C1321.72 825.58 1315.19 818.992 1311.23 823.487Z" fill="#FFB44F"/>
<path d="M1477.28 900.219C1477.09 906.424 1480.16 911.85 1485.12 915.42C1487.15 916.886 1490.29 915.772 1491.47 913.755C1492.84 911.416 1491.84 908.876 1489.8 907.407C1487.49 905.741 1486.47 902.966 1486.56 900.219C1486.73 894.246 1477.45 894.251 1477.28 900.219Z" fill="#FFB44F"/>
</g>
</svg>
