<svg width="238" height="240" viewBox="0 0 238 240" fill="none" xmlns="http://www.w3.org/2000/svg">
<path d="M206.64 161.609C206.64 161.609 253.984 87.8473 232.167 40.6765C210.35 -6.49431 158.278 -6.76371 140.276 12.9505C129.273 25.0003 132.48 45.1267 106.432 52.9129C90.4983 57.6757 78.8985 50.0389 55.1445 41.7571C31.3905 33.4753 3.81208 51.4795 0.423283 80.2273C-3.38012 112.494 25.9899 129.362 42.1125 140.977C58.2351 152.591 50.0697 171.856 56.7537 189.897C63.4377 207.938 171.243 227.089 206.64 161.609Z" fill="#D5FAF6"/>
<path d="M230.065 80.2272C230.065 80.2272 233.667 38.5362 206.641 17.8116C183.397 -0.0125709 160.162 8.62983 152.85 16.461C145.537 24.2928 153.538 33.7446 173.739 32.3946C193.939 31.0446 224.574 44.9976 230.065 80.2272Z" fill="white"/>
<path d="M101.35 239.4C115.57 239.4 127.097 236.908 127.097 233.834C127.097 230.76 115.57 228.269 101.35 228.269C87.1307 228.269 75.6035 230.76 75.6035 233.834C75.6035 236.908 87.1307 239.4 101.35 239.4Z" fill="#D2EDFF"/>
<path d="M192.693 233.834C206.912 233.834 218.439 231.343 218.439 228.269C218.439 225.195 206.912 222.703 192.693 222.703C178.473 222.703 166.946 225.195 166.946 228.269C166.946 231.343 178.473 233.834 192.693 233.834Z" fill="#D2EDFF"/>
<path d="M151.73 228.269C188.628 228.269 218.54 225.777 218.54 222.703C218.54 219.629 188.628 217.138 151.73 217.138C114.831 217.138 84.9189 219.629 84.9189 222.703C84.9189 225.777 114.831 228.269 151.73 228.269Z" fill="#D2EDFF"/>
<path d="M70.6231 224.48C107.522 224.48 137.434 221.989 137.434 218.915C137.434 215.841 107.522 213.349 70.6231 213.349C33.7246 213.349 3.8125 215.841 3.8125 218.915C3.8125 221.989 33.7246 224.48 70.6231 224.48Z" fill="#D2EDFF"/>
<path d="M54.9139 152C78.3498 152 97.3483 133.001 97.3483 109.565C97.3483 86.1294 78.3498 67.1309 54.9139 67.1309C31.478 67.1309 12.4795 86.1294 12.4795 109.565C12.4795 133.001 31.478 152 54.9139 152Z" fill="#ACDAFF"/>
<path d="M54.9136 146.321C75.2131 146.321 91.669 129.865 91.669 109.565C91.669 89.266 75.2131 72.8101 54.9136 72.8101C34.6142 72.8101 18.1582 89.266 18.1582 109.565C18.1582 129.865 34.6142 146.321 54.9136 146.321Z" fill="#E6FFFF"/>
<path opacity="0.57" d="M68.0616 110.996C73.188 103.25 73.7316 89.2895 71.1552 81.8537C66.4596 79.0955 61.0032 77.4881 55.1664 77.4419C37.4256 77.3027 22.9302 91.5713 22.791 109.313C22.7508 114.443 23.9214 119.299 26.0268 123.617C26.2764 123.653 26.541 123.63 26.7744 123.727C38.5074 128.619 58.4232 125.561 68.0616 110.996Z" fill="#FFFAFF"/>
<path d="M55.108 84.7902C55.726 84.795 56.2354 84.2934 56.2402 83.6754L56.2942 76.7958C56.299 76.1778 55.7974 75.6684 55.1794 75.6636C54.5614 75.6588 54.052 76.1604 54.0472 76.7784L53.9932 83.658C53.989 84.276 54.49 84.7854 55.108 84.7902Z" fill="#ACDAFF"/>
<path d="M54.6471 143.466C55.2651 143.471 55.7744 142.97 55.7792 142.352L55.8333 135.472C55.8381 134.854 55.3365 134.345 54.7185 134.34C54.1005 134.335 53.5911 134.837 53.5863 135.455L53.5323 142.334C53.5281 142.952 54.0291 143.462 54.6471 143.466Z" fill="#ACDAFF"/>
<path d="M79.6895 109.76C79.6847 110.378 80.1863 110.887 80.8043 110.892L87.6839 110.946C88.3019 110.951 88.8113 110.449 88.8161 109.831C88.8209 109.213 88.3193 108.704 87.7013 108.699L80.8217 108.645C80.2037 108.641 79.6943 109.142 79.6895 109.76Z" fill="#ACDAFF"/>
<path d="M21.0127 109.299C21.0079 109.917 21.5095 110.426 22.1275 110.431L29.0071 110.485C29.6251 110.49 30.1345 109.988 30.1393 109.37C30.1441 108.752 29.6425 108.243 29.0245 108.238L22.1449 108.184C21.5269 108.179 21.0175 108.681 21.0127 109.299Z" fill="#ACDAFF"/>
<path d="M70.1964 84.6912C70.8168 84.6912 71.3196 84.1883 71.3196 83.568C71.3196 82.9477 70.8168 82.4448 70.1964 82.4448C69.5761 82.4448 69.0732 82.9477 69.0732 83.568C69.0732 84.1883 69.5761 84.6912 70.1964 84.6912Z" fill="#ACDAFF"/>
<path d="M39.631 136.685C40.2513 136.685 40.7542 136.182 40.7542 135.562C40.7542 134.942 40.2513 134.439 39.631 134.439C39.0107 134.439 38.5078 134.942 38.5078 135.562C38.5078 136.182 39.0107 136.685 39.631 136.685Z" fill="#ACDAFF"/>
<path d="M81.1476 95.8157C81.7679 95.8157 82.2708 95.3129 82.2708 94.6925C82.2708 94.0722 81.7679 93.5693 81.1476 93.5693C80.5273 93.5693 80.0244 94.0722 80.0244 94.6925C80.0244 95.3129 80.5273 95.8157 81.1476 95.8157Z" fill="#ACDAFF"/>
<path d="M28.6798 125.561C29.3002 125.561 29.803 125.058 29.803 124.438C29.803 123.818 29.3002 123.315 28.6798 123.315C28.0595 123.315 27.5566 123.818 27.5566 124.438C27.5566 125.058 28.0595 125.561 28.6798 125.561Z" fill="#ACDAFF"/>
<path d="M80.9113 125.971C81.5316 125.971 82.0345 125.469 82.0345 124.848C82.0345 124.228 81.5316 123.725 80.9113 123.725C80.291 123.725 79.7881 124.228 79.7881 124.848C79.7881 125.469 80.291 125.971 80.9113 125.971Z" fill="#ACDAFF"/>
<path d="M28.9162 95.4056C29.5365 95.4056 30.0394 94.9027 30.0394 94.2824C30.0394 93.662 29.5365 93.1592 28.9162 93.1592C28.2958 93.1592 27.793 93.662 27.793 94.2824C27.793 94.9027 28.2958 95.4056 28.9162 95.4056Z" fill="#ACDAFF"/>
<path d="M69.7863 136.923C70.4066 136.923 70.9095 136.42 70.9095 135.799C70.9095 135.179 70.4066 134.676 69.7863 134.676C69.166 134.676 68.6631 135.179 68.6631 135.799C68.6631 136.42 69.166 136.923 69.7863 136.923Z" fill="#ACDAFF"/>
<path d="M40.0412 84.4549C40.6615 84.4549 41.1644 83.952 41.1644 83.3317C41.1644 82.7114 40.6615 82.2085 40.0412 82.2085C39.4208 82.2085 38.918 82.7114 38.918 83.3317C38.918 83.952 39.4208 84.4549 40.0412 84.4549Z" fill="#ACDAFF"/>
<path d="M66.3187 101.118C69.6787 99.8071 85.3585 93.0625 85.3585 93.0625L85.4161 93.1699L85.5301 93.3823L85.5877 93.4897C85.5877 93.4897 71.3167 102.854 68.3713 104.935C65.4259 107.016 54.9817 110.27 54.9817 110.27L54.7915 109.916L54.6775 109.704L54.4873 109.35C54.4873 109.35 62.9593 102.429 66.3187 101.118Z" fill="#FFBC00"/>
<path d="M44.2522 111.845C41.6806 111.447 29.476 110.143 29.476 110.143L29.4742 110.021L29.4706 109.78L29.4688 109.658C29.4688 109.658 41.629 107.988 44.1874 107.512C46.7458 107.036 54.4714 109.003 54.4714 109.003L54.4774 109.405L54.4809 109.646L54.487 110.048C54.487 110.048 46.8238 112.244 44.2522 111.845Z" fill="#FFBC00"/>
<path d="M54.914 111.812C56.155 111.812 57.161 110.806 57.161 109.565C57.161 108.324 56.155 107.318 54.914 107.318C53.673 107.318 52.667 108.324 52.667 109.565C52.667 110.806 53.673 111.812 54.914 111.812Z" fill="#ACDAFF"/>
<path d="M32.6072 155.453L22.6124 215.323C22.4972 216.012 23.0288 216.64 23.7278 216.64C24.26 216.64 24.7202 216.269 24.833 215.749L37.919 155.453H32.6072Z" fill="#ACDAFF"/>
<path d="M42.2697 151.857L35.2275 212.146C35.1465 212.84 35.7081 213.441 36.4065 213.407C36.9381 213.38 37.3797 212.987 37.4667 212.462L47.5755 151.596L42.2697 151.857Z" fill="#ACDAFF"/>
<path d="M83.5891 155.453L93.5839 215.323C93.6991 216.012 93.1675 216.64 92.4685 216.64C91.9363 216.64 91.4761 216.269 91.3633 215.749L78.2773 155.453H83.5891Z" fill="#ACDAFF"/>
<path d="M73.9263 151.857L80.9691 212.146C81.0501 212.84 80.4885 213.441 79.7901 213.407C79.2585 213.38 78.8169 212.987 78.7299 212.462L68.6211 151.596L73.9263 151.857Z" fill="#ACDAFF"/>
<path d="M92.0472 156.846H25.1574C23.637 156.846 22.3926 155.602 22.3926 154.082C22.3926 152.561 23.637 151.317 25.1574 151.317H92.0472C93.5676 151.317 94.812 152.561 94.812 154.082C94.812 155.603 93.5676 156.846 92.0472 156.846Z" fill="#2099FF"/>
<path d="M25.9822 203.041L25.8118 202.981C25.8322 202.924 27.8086 197.253 26.6704 190.541C25.621 184.352 21.6298 175.983 8.57617 171.261L8.63737 171.091C14.4364 173.188 18.958 176.173 22.0756 179.962C24.5716 182.995 26.1778 186.547 26.8498 190.518C27.9934 197.275 26.002 202.984 25.9822 203.041Z" fill="#6CB7D8"/>
<path d="M10.41 171.873C10.41 171.873 6.97736 172.392 5.20796 170.812C3.43796 169.233 6.45356 168.47 10.41 171.873Z" fill="#6CB7D8"/>
<path d="M13.9662 173.56C13.9662 173.56 12.8916 169.019 11.2236 168.125C9.55495 167.231 9.32035 170.467 13.9662 173.56Z" fill="#6CB7D8"/>
<path d="M13.4224 173.249C13.4224 173.249 8.80295 172.59 7.36115 173.817C5.91995 175.043 8.84615 176.443 13.4224 173.249Z" fill="#6CB7D8"/>
<path d="M16.2602 174.988C16.2602 174.988 11.6408 174.33 10.199 175.557C8.75784 176.783 11.684 178.183 16.2602 174.988Z" fill="#6CB7D8"/>
<path d="M19.1186 177.007C19.1186 177.007 14.4992 176.349 13.0574 177.575C11.6162 178.802 14.5424 180.201 19.1186 177.007Z" fill="#6CB7D8"/>
<path d="M21.8842 179.796C21.8842 179.796 17.332 178.77 15.7972 179.877C14.2618 180.984 17.0668 182.614 21.8842 179.796Z" fill="#6CB7D8"/>
<path d="M24.4146 183.499C24.4146 183.499 20.1834 181.532 18.4488 182.288C16.7142 183.046 19.11 185.233 24.4146 183.499Z" fill="#6CB7D8"/>
<path d="M26.2554 188.035C26.2554 188.035 22.8762 184.817 20.9904 184.979C19.1046 185.141 20.6742 187.98 26.2554 188.035Z" fill="#6CB7D8"/>
<path d="M27.0592 193.338C27.0592 193.338 24.949 189.177 23.1172 188.699C21.2854 188.222 21.817 191.423 27.0592 193.338Z" fill="#6CB7D8"/>
<path d="M26.8545 198.547C26.8545 198.547 25.7577 194.012 24.0855 193.126C22.4133 192.24 22.1937 195.476 26.8545 198.547Z" fill="#6CB7D8"/>
<path d="M17.1471 175.536C17.1471 175.536 17.6007 171.546 16.0653 169.411C14.5293 167.276 14.0115 169.724 14.6019 171.101C15.1917 172.478 17.1471 175.536 17.1471 175.536Z" fill="#6CB7D8"/>
<path d="M19.4763 177.385C19.4763 177.385 20.5557 173.516 19.3767 171.165C18.1977 168.815 17.2995 171.15 17.6643 172.602C18.0291 174.055 19.4763 177.385 19.4763 177.385Z" fill="#6CB7D8"/>
<path d="M21.644 179.563C21.644 179.563 23.5904 176.05 22.9886 173.49C22.3868 170.93 20.9714 172.993 20.9894 174.492C21.0074 175.989 21.644 179.563 21.644 179.563Z" fill="#6CB7D8"/>
<path d="M23.7573 182.367C23.7573 182.367 25.7037 178.854 25.1019 176.294C24.5001 173.734 23.0847 175.797 23.1027 177.295C23.1213 178.793 23.7573 182.367 23.7573 182.367Z" fill="#6CB7D8"/>
<path d="M25.5975 186.203C25.5975 186.203 27.9807 182.97 27.7137 180.353C27.4467 177.737 25.7775 179.601 25.6023 181.088C25.4277 182.577 25.5975 186.203 25.5975 186.203Z" fill="#6CB7D8"/>
<path d="M26.8408 191.296C26.8408 191.296 29.7946 188.574 30.0286 185.955C30.2632 183.335 28.27 184.848 27.8164 186.276C27.3622 187.703 26.8408 191.296 26.8408 191.296Z" fill="#6CB7D8"/>
<path d="M27.0488 195.923C27.0488 195.923 30.4886 193.85 31.2452 191.331C32.0012 188.812 29.7452 189.894 29.0132 191.201C28.2812 192.508 27.0488 195.923 27.0488 195.923Z" fill="#6CB7D8"/>
<path d="M48.1435 194.114L48.3139 194.053C48.2935 193.997 46.3171 188.325 47.4553 181.613C48.5047 175.424 52.4959 167.055 65.5495 162.333L65.4883 162.163C59.6893 164.261 55.1677 167.245 52.0501 171.034C49.5541 174.067 47.9479 177.618 47.2759 181.59C46.1323 188.347 48.1231 194.057 48.1435 194.114Z" fill="#6CB7D8"/>
<path d="M63.7158 162.945C63.7158 162.945 67.1484 163.464 68.9178 161.884C70.6878 160.305 67.6722 159.542 63.7158 162.945Z" fill="#6CB7D8"/>
<path d="M60.1592 164.632C60.1592 164.632 61.2338 160.091 62.9018 159.197C64.5704 158.304 64.805 161.539 60.1592 164.632Z" fill="#6CB7D8"/>
<path d="M60.7031 164.321C60.7031 164.321 65.3225 163.663 66.7643 164.889C68.2055 166.116 65.2793 167.516 60.7031 164.321Z" fill="#6CB7D8"/>
<path d="M57.8652 166.061C57.8652 166.061 62.4846 165.402 63.9264 166.629C65.3682 167.855 62.4414 169.256 57.8652 166.061Z" fill="#6CB7D8"/>
<path d="M55.0068 168.079C55.0068 168.079 59.6262 167.421 61.068 168.647C62.5098 169.874 59.583 171.274 55.0068 168.079Z" fill="#6CB7D8"/>
<path d="M52.2412 170.868C52.2412 170.868 56.7934 169.842 58.3282 170.949C59.8636 172.057 57.0586 173.686 52.2412 170.868Z" fill="#6CB7D8"/>
<path d="M49.7109 174.571C49.7109 174.571 53.9421 172.604 55.6767 173.361C57.4113 174.117 55.0155 176.304 49.7109 174.571Z" fill="#6CB7D8"/>
<path d="M47.8701 179.108C47.8701 179.108 51.2493 175.889 53.1351 176.051C55.0209 176.213 53.4513 179.052 47.8701 179.108Z" fill="#6CB7D8"/>
<path d="M47.0664 184.411C47.0664 184.411 49.1766 180.25 51.0084 179.772C52.8402 179.295 52.3086 182.495 47.0664 184.411Z" fill="#6CB7D8"/>
<path d="M47.2715 189.619C47.2715 189.619 48.3683 185.084 50.0405 184.198C51.7127 183.313 51.9323 186.549 47.2715 189.619Z" fill="#6CB7D8"/>
<path d="M56.9786 166.608C56.9786 166.608 56.525 162.618 58.0604 160.483C59.5964 158.348 60.1142 160.796 59.5238 162.173C58.934 163.55 56.9786 166.608 56.9786 166.608Z" fill="#6CB7D8"/>
<path d="M54.6488 168.457C54.6488 168.457 53.5694 164.588 54.7484 162.238C55.9274 159.887 56.8256 162.222 56.4608 163.675C56.096 165.128 54.6488 168.457 54.6488 168.457Z" fill="#6CB7D8"/>
<path d="M52.4816 170.636C52.4816 170.636 50.5352 167.123 51.137 164.563C51.7388 162.002 53.1542 164.066 53.1362 165.564C53.1182 167.062 52.4816 170.636 52.4816 170.636Z" fill="#6CB7D8"/>
<path d="M50.3683 173.439C50.3683 173.439 48.4219 169.926 49.0237 167.366C49.6255 164.806 51.0409 166.869 51.0229 168.368C51.0043 169.865 50.3683 173.439 50.3683 173.439Z" fill="#6CB7D8"/>
<path d="M48.5277 177.275C48.5277 177.275 46.1445 174.043 46.4115 171.426C46.6785 168.81 48.3477 170.674 48.5229 172.161C48.6975 173.649 48.5277 177.275 48.5277 177.275Z" fill="#6CB7D8"/>
<path d="M47.285 182.368C47.285 182.368 44.3312 179.647 44.0972 177.027C43.8626 174.407 45.8558 175.921 46.3094 177.348C46.7636 178.776 47.285 182.368 47.285 182.368Z" fill="#6CB7D8"/>
<path d="M47.077 186.995C47.077 186.995 43.6372 184.922 42.8806 182.403C42.124 179.885 44.3806 180.966 45.1126 182.273C45.8446 183.581 47.077 186.995 47.077 186.995Z" fill="#6CB7D8"/>
<path d="M28.2563 186.34C28.2563 186.34 24.2453 174.468 27.8555 171.058C31.4657 167.648 26.9855 162.809 28.0463 159.657C29.1077 156.505 32.9939 154.632 34.6889 160.415C36.3839 166.197 36.8639 166.376 41.1233 166.643C45.3827 166.909 45.0551 175.485 44.3021 179.431C43.5491 183.377 47.7323 177.144 48.9977 181.379C50.2631 185.615 44.1335 194.348 37.6865 198.9C31.2395 203.453 23.3543 190.506 23.8955 187.268C24.4373 184.031 26.8037 188.365 28.2563 186.34Z" fill="#82C4E8"/>
<path d="M28.8233 169.779C28.5995 170.222 28.2863 170.65 27.8549 171.058C24.2447 174.468 28.2557 186.34 28.2557 186.34C26.8031 188.365 24.4367 184.031 23.8955 187.269C23.3543 190.507 31.2389 203.453 37.6865 198.901C38.0327 198.657 38.3777 198.397 38.7209 198.13C37.9727 188.002 34.5527 178.294 28.8233 169.779Z" fill="#6CB7D8"/>
<path d="M35.4939 200.026C35.4291 200.098 35.3301 200.134 35.2287 200.115C35.0739 200.086 34.9725 199.936 35.0019 199.781C35.0325 199.619 38.0055 183.377 30.4941 159.833C30.4461 159.683 30.5289 159.522 30.6795 159.475C30.8301 159.427 30.9909 159.509 31.0383 159.66C38.5977 183.353 35.5941 199.726 35.5629 199.889C35.5521 199.942 35.5275 199.989 35.4939 200.026Z" fill="#98CFF4"/>
<path d="M32.7485 166.817L28.9493 163.756C28.8263 163.657 28.8071 163.477 28.9061 163.354C29.0051 163.234 29.1851 163.212 29.3075 163.311L32.5943 165.96L34.3265 163.057C34.4081 162.92 34.5827 162.877 34.7183 162.958C34.8539 163.039 34.8983 163.214 34.8173 163.35L32.7485 166.817Z" fill="#98CFF4"/>
<path d="M42.0381 169.144C42.0321 169.151 42.0261 169.158 42.0195 169.164L34.6281 175.926L28.7559 171.936C28.6257 171.847 28.5915 171.669 28.6803 171.539C28.7685 171.408 28.9467 171.375 29.0769 171.463L34.5753 175.199L41.6337 168.742C41.7501 168.636 41.9307 168.643 42.0375 168.76C42.1377 168.87 42.1365 169.036 42.0381 169.144Z" fill="#98CFF4"/>
<path d="M43.6393 178.571C43.6363 178.574 43.6333 178.578 43.6303 178.581L35.7979 186.479L28.0639 180.314C27.9403 180.215 27.9199 180.035 28.0183 179.912C28.1233 179.787 28.2961 179.769 28.4197 179.867L35.7523 185.712L43.2241 178.179C43.3351 178.067 43.5163 178.066 43.6279 178.177C43.7377 178.285 43.7413 178.459 43.6393 178.571Z" fill="#98CFF4"/>
<path d="M47.0084 184.138C47.006 184.141 47.003 184.144 47.0006 184.147L35.8172 195.509L26.2304 188.805C26.1014 188.715 26.0696 188.536 26.1596 188.407C26.2514 188.279 26.4284 188.247 26.5574 188.337L35.7488 194.764L46.5938 183.745C46.7042 183.633 46.8854 183.631 46.9976 183.742C47.1068 183.851 47.111 184.026 47.0084 184.138Z" fill="#98CFF4"/>
<path d="M26.4502 201.602C26.4502 201.602 17.6866 197.216 17.8144 193.335C17.9422 189.453 12.79 189.233 11.644 186.898C10.498 184.563 11.6254 181.383 15.7504 183.662C19.8748 185.941 20.2402 185.775 22.7524 183.579C25.2646 181.382 29.8042 186.325 31.5586 188.931C33.313 191.538 32.2048 185.773 35.239 187.428C38.2732 189.084 39.6778 197.309 38.6026 203.387C37.528 209.464 26.0218 206.615 24.5398 204.519C23.0578 202.422 26.7586 203.526 26.4502 201.602Z" fill="#98CFF4"/>
<path d="M17.6484 192.091C17.7684 192.46 17.8302 192.871 17.8146 193.335C17.6868 197.216 26.4504 201.601 26.4504 201.601C26.7582 203.525 23.058 202.421 24.54 204.517C26.022 206.614 37.5282 209.463 38.6028 203.385C38.6604 203.059 38.7096 202.725 38.7534 202.388C32.7624 197.175 25.5186 193.666 17.6484 192.091Z" fill="#82C4E8"/>
<path d="M38.0044 205.218C38.0074 205.293 37.9732 205.368 37.906 205.414C37.8034 205.483 37.6648 205.455 37.5964 205.353C37.5244 205.247 30.2344 194.59 13.1008 185.649C12.9916 185.592 12.9484 185.457 13.006 185.348C13.063 185.239 13.198 185.196 13.3072 185.253C30.5494 194.25 37.8952 204.997 37.9672 205.104C37.99 205.139 38.0026 205.179 38.0044 205.218Z" fill="#ACDAFF"/>
<path d="M18.197 188.286L14.402 188.677C14.2796 188.689 14.1698 188.601 14.1572 188.478C14.1458 188.356 14.234 188.245 14.3564 188.233L17.6402 187.894L17.0042 185.329C16.9742 185.208 17.0474 185.088 17.1674 185.058C17.2874 185.029 17.4086 185.101 17.438 185.221L18.197 188.286Z" fill="#ACDAFF"/>
<path d="M24.638 184.464C24.6386 184.471 24.6386 184.478 24.638 184.485L24.2552 192.309L18.7976 193.326C18.6764 193.349 18.5594 193.269 18.5372 193.148C18.5138 193.026 18.5948 192.909 18.716 192.887L23.8262 191.935L24.1916 184.463C24.1976 184.34 24.3026 184.245 24.4256 184.251C24.542 184.257 24.6332 184.35 24.638 184.464Z" fill="#ACDAFF"/>
<path d="M30.717 188.818C30.717 188.821 30.717 188.824 30.717 188.828L30.7152 197.526L23.0262 198.36C22.9032 198.373 22.7934 198.285 22.7802 198.162C22.7694 198.035 22.8558 197.929 22.9782 197.916L30.2688 197.126L30.2706 188.829C30.2706 188.705 30.3708 188.605 30.4938 188.605C30.6138 188.605 30.7116 188.7 30.717 188.818Z" fill="#ACDAFF"/>
<path d="M35.6525 190.055C35.6525 190.058 35.6525 190.061 35.6525 190.064L35.6969 202.532L26.6819 204.086C26.5601 204.107 26.4449 204.026 26.4239 203.904C26.4041 203.782 26.4845 203.666 26.6063 203.646L35.2493 202.156L35.2061 190.066C35.2055 189.943 35.3051 189.842 35.4287 189.842C35.5493 189.841 35.6477 189.936 35.6525 190.055Z" fill="#ACDAFF"/>
<path d="M46.1513 200.366C46.1513 200.366 57.7025 195.507 57.8657 190.544C58.0289 185.581 64.6217 185.732 66.2801 182.849C67.9385 179.966 66.7673 175.814 61.3127 178.375C55.8581 180.935 55.4057 180.694 52.3847 177.679C49.3637 174.664 43.1555 180.59 40.6985 183.769C38.2415 186.947 40.1399 179.684 36.1289 181.541C32.1179 183.399 29.6345 193.776 30.4955 201.621C31.3559 209.466 46.2773 206.798 48.3449 204.248C50.4107 201.697 45.5963 202.795 46.1513 200.366Z" fill="#ACDAFF"/>
<path d="M58.1823 188.971C57.9987 189.432 57.8853 189.95 57.8655 190.544C57.7023 195.507 46.1511 200.366 46.1511 200.366C45.5961 202.795 50.4111 201.697 48.3441 204.247C46.2771 206.798 31.3557 209.465 30.4947 201.62C30.4485 201.199 30.4137 200.77 30.3867 200.335C38.4693 194.188 48.0081 190.319 58.1823 188.971Z" fill="#98CFF4"/>
<path d="M31.1043 204.01C31.0935 204.105 31.1319 204.204 31.2135 204.267C31.3383 204.364 31.5177 204.34 31.6143 204.216C31.7145 204.086 41.9133 191.1 64.5279 181.132C64.6725 181.069 64.7385 180.9 64.6743 180.756C64.6107 180.611 64.4421 180.546 64.2975 180.609C41.5401 190.64 31.2633 203.735 31.1625 203.866C31.1283 203.91 31.1097 203.959 31.1043 204.01Z" fill="#D2EDFF"/>
<path d="M57.8018 184.069L62.6114 184.887C62.7668 184.914 62.9144 184.809 62.9408 184.653C62.9654 184.499 62.8622 184.35 62.7068 184.324L58.5452 183.616L59.5724 180.395C59.621 180.243 59.5376 180.084 59.387 180.036C59.2364 179.988 59.0756 180.07 59.0276 180.221L57.8018 184.069Z" fill="#D2EDFF"/>
<path d="M49.905 178.651C49.9038 178.66 49.9032 178.669 49.9032 178.678L49.7334 188.694L56.6124 190.451C56.7654 190.49 56.9208 190.398 56.9598 190.245C57 190.092 56.9064 189.936 56.7534 189.897L50.3124 188.252L50.4744 178.687C50.4768 178.53 50.3514 178.399 50.1936 178.397C50.0448 178.395 49.9212 178.506 49.905 178.651Z" fill="#D2EDFF"/>
<path d="M41.781 183.696C41.7804 183.701 41.7798 183.705 41.7798 183.709L41.0508 194.808L50.7924 196.518C50.9478 196.545 51.096 196.441 51.123 196.286C51.147 196.125 51.0462 195.983 50.8914 195.956L41.655 194.334L42.3498 183.746C42.36 183.589 42.2412 183.453 42.0834 183.443C41.931 183.432 41.7978 183.545 41.781 183.696Z" fill="#D2EDFF"/>
<path d="M35.3792 184.859C35.3786 184.863 35.3786 184.867 35.378 184.87L34.2734 200.775L45.6458 203.517C45.7994 203.554 45.9536 203.46 45.9908 203.307C46.0262 203.153 45.9332 202.999 45.7802 202.962L34.877 200.333L35.948 184.91C35.9588 184.753 35.8406 184.616 35.6828 184.605C35.5292 184.595 35.396 184.708 35.3792 184.859Z" fill="#D2EDFF"/>
<path d="M79.824 185.586C79.824 185.586 83.1636 175.701 80.1576 172.862C77.1516 170.023 80.8818 165.994 79.9986 163.37C79.1148 160.745 75.879 159.186 74.4678 164.001C73.0566 168.815 72.6564 168.965 69.1104 169.186C65.5638 169.407 65.8368 176.549 66.4638 179.834C67.0908 183.12 63.6078 177.93 62.5542 181.456C61.5006 184.982 66.6042 192.254 71.9724 196.044C77.3406 199.834 83.9058 189.055 83.4546 186.359C83.0034 183.663 81.033 187.272 79.824 185.586Z" fill="#82C4E8"/>
<path d="M79.3507 171.798C79.5367 172.167 79.7978 172.523 80.1572 172.863C83.1632 175.702 79.8235 185.587 79.8235 185.587C81.0331 187.273 83.003 183.664 83.4542 186.36C83.9054 189.056 77.3395 199.835 71.9719 196.045C71.6839 195.842 71.3966 195.626 71.1104 195.404C71.7326 186.971 74.5801 178.887 79.3507 171.798Z" fill="#6CB7D8"/>
<path d="M73.7982 196.982C73.8522 197.042 73.9344 197.072 74.019 197.056C74.148 197.032 74.2326 196.907 74.208 196.778C74.1822 196.643 71.7072 183.12 77.9616 163.517C78.0018 163.391 77.9328 163.258 77.8074 163.218C77.682 163.178 77.5482 163.247 77.5086 163.372C71.2146 183.1 73.7154 196.732 73.7412 196.867C73.749 196.912 73.7694 196.951 73.7982 196.982Z" fill="#98CFF4"/>
<path d="M76.0843 169.331L79.2474 166.783C79.3494 166.7 79.3657 166.55 79.2835 166.448C79.2013 166.348 79.0512 166.33 78.9492 166.412L76.2126 168.617L74.7696 166.2C74.7012 166.086 74.5561 166.05 74.4433 166.117C74.3305 166.184 74.2932 166.331 74.361 166.444L76.0843 169.331Z" fill="#98CFF4"/>
<path d="M68.3488 171.269C68.3536 171.275 68.359 171.28 68.3644 171.285L74.5186 176.915L79.408 173.593C79.5166 173.519 79.5448 173.371 79.471 173.262C79.3978 173.152 79.249 173.125 79.1404 173.199L74.5618 176.309L68.6848 170.933C68.5876 170.845 68.4376 170.852 68.3488 170.948C68.266 171.04 68.2672 171.179 68.3488 171.269Z" fill="#98CFF4"/>
<path d="M67.0159 179.118C67.0183 179.121 67.0207 179.124 67.0231 179.126L73.5445 185.702L79.9837 180.569C80.0863 180.487 80.1037 180.338 80.0215 180.235C79.9339 180.131 79.7899 180.116 79.6873 180.197L73.5817 185.064L67.3609 178.792C67.2685 178.699 67.1179 178.698 67.0243 178.791C66.9337 178.88 66.9307 179.025 67.0159 179.118Z" fill="#98CFF4"/>
<path d="M64.2099 183.753C64.2123 183.756 64.2141 183.758 64.2165 183.761L73.5279 193.221L81.5103 187.64C81.6177 187.564 81.6441 187.416 81.5691 187.308C81.4923 187.202 81.3453 187.175 81.2379 187.25L73.5849 192.601L64.5555 183.427C64.4631 183.333 64.3125 183.332 64.2195 183.424C64.1283 183.514 64.1247 183.659 64.2099 183.753Z" fill="#98CFF4"/>
<path d="M66.3564 199.369C66.3564 199.369 57.5928 194.984 57.7206 191.102C57.8484 187.221 52.6962 187 51.5502 184.666C50.4042 182.331 51.5316 179.151 55.6566 181.43C59.781 183.709 60.1465 183.543 62.6587 181.346C65.1709 179.149 69.7104 184.093 71.4648 186.699C73.2186 189.305 72.111 183.541 75.1452 185.196C78.1794 186.851 79.584 195.077 78.5088 201.154C77.4342 207.232 65.928 204.383 64.446 202.286C62.9634 200.189 66.6642 201.293 66.3564 199.369Z" fill="#98CFF4"/>
<path d="M57.5537 189.859C57.6737 190.228 57.7355 190.638 57.7199 191.102C57.5921 194.983 66.3557 199.369 66.3557 199.369C66.6635 201.293 62.9633 200.188 64.4453 202.285C65.9273 204.381 77.4335 207.23 78.5081 201.153C78.5657 200.826 78.6149 200.493 78.6587 200.155C72.6683 194.943 65.4239 191.434 57.5537 189.859Z" fill="#82C4E8"/>
<path d="M77.9097 202.986C77.9133 203.061 77.8785 203.136 77.8113 203.181C77.7087 203.25 77.5701 203.223 77.5017 203.121C77.4297 203.015 70.1397 192.358 53.0061 183.417C52.8969 183.36 52.8537 183.225 52.9113 183.116C52.9683 183.006 53.1033 182.964 53.2125 183.021C70.4547 192.018 77.8005 202.765 77.8725 202.872C77.8959 202.906 77.9079 202.946 77.9097 202.986Z" fill="#ACDAFF"/>
<path d="M58.1023 186.053L54.3073 186.445C54.1849 186.457 54.0751 186.368 54.0625 186.245C54.0511 186.124 54.1393 186.013 54.2617 186.001L57.5455 185.662L56.9095 183.097C56.8795 182.975 56.9527 182.855 57.0727 182.826C57.1927 182.796 57.3139 182.869 57.3433 182.989L58.1023 186.053Z" fill="#ACDAFF"/>
<path d="M64.5433 182.231C64.5439 182.239 64.5439 182.245 64.5433 182.252L64.1605 190.077L58.7029 191.094C58.5817 191.117 58.4647 191.036 58.4425 190.915C58.4191 190.793 58.5001 190.677 58.6213 190.655L63.7315 189.703L64.0969 182.231C64.1029 182.108 64.2079 182.012 64.3309 182.018C64.4473 182.024 64.5385 182.117 64.5433 182.231Z" fill="#ACDAFF"/>
<path d="M70.6223 186.585C70.6223 186.588 70.6223 186.592 70.6223 186.596L70.6205 195.294L62.9315 196.128C62.8085 196.141 62.6987 196.052 62.6855 195.93C62.6747 195.803 62.7611 195.697 62.8835 195.684L70.1741 194.894L70.1759 186.596C70.1759 186.473 70.2761 186.373 70.3991 186.373C70.5191 186.372 70.6169 186.467 70.6223 186.585Z" fill="#ACDAFF"/>
<path d="M75.5587 187.823C75.5587 187.826 75.5587 187.829 75.5587 187.832L75.6031 200.299L66.5881 201.854C66.4663 201.875 66.3511 201.793 66.3301 201.672C66.3103 201.55 66.3907 201.434 66.5125 201.414L75.1555 199.923L75.1123 187.834C75.1117 187.71 75.2113 187.61 75.3349 187.609C75.4549 187.609 75.5533 187.704 75.5587 187.823Z" fill="#ACDAFF"/>
<path d="M54.3374 201.845C54.3374 201.845 46.3789 200.809 45.4345 197.772C44.4895 194.736 40.445 195.95 38.9306 194.453C37.4162 192.955 37.4335 190.192 41.2369 190.845C45.0403 191.499 45.2785 191.273 46.6309 188.898C47.9833 186.523 52.8241 189.126 54.8821 190.67C56.9401 192.215 54.5323 188.053 57.3247 188.518C60.1171 188.983 63.4154 194.967 64.2182 199.958C65.021 204.948 55.3544 205.838 53.6444 204.615C51.9344 203.391 55.0934 203.25 54.3374 201.845Z" fill="#82C4E8"/>
<path d="M44.9717 196.855C45.1637 197.108 45.3221 197.409 45.4349 197.772C46.3799 200.808 54.3377 201.844 54.3377 201.844C55.0937 203.25 51.9341 203.39 53.6441 204.614C55.3541 205.837 65.0207 204.947 64.2179 199.956C64.1747 199.688 64.1231 199.417 64.0661 199.145C58.0301 196.724 51.4829 195.957 44.9717 196.855Z" fill="#6CB7D8"/>
<path d="M64.2471 201.535C64.2699 201.592 64.2633 201.66 64.2231 201.713C64.1625 201.794 64.0479 201.81 63.9669 201.749C63.8829 201.686 55.3773 195.403 39.7197 193.094C39.6195 193.08 39.5505 192.987 39.5655 192.887C39.5799 192.787 39.6735 192.718 39.7731 192.733C55.5297 195.056 64.1019 201.393 64.1865 201.457C64.2147 201.478 64.2351 201.505 64.2471 201.535Z" fill="#98CFF4"/>
<path d="M44.3717 193.764L41.5409 195.087C41.4497 195.129 41.3405 195.09 41.2979 194.999C41.2565 194.907 41.2949 194.798 41.3861 194.756L43.8347 193.611L42.6527 191.797C42.5969 191.711 42.6215 191.599 42.7061 191.544C42.7907 191.489 42.9041 191.513 42.9593 191.597L44.3717 193.764Z" fill="#98CFF4"/>
<path d="M48.3259 189.076C48.3283 189.081 48.3301 189.086 48.3313 189.092L50.1397 195.247L46.1911 197.501C46.1035 197.551 45.9919 197.521 45.9415 197.433C45.8905 197.345 45.9217 197.234 46.0099 197.183L49.7071 195.073L47.9803 189.194C47.9521 189.097 48.0073 188.996 48.1045 188.967C48.1963 188.941 48.2917 188.989 48.3259 189.076Z" fill="#98CFF4"/>
<path d="M54.1994 190.809C54.2006 190.812 54.2012 190.815 54.2024 190.817L56.54 197.546L50.8166 200.259C50.7254 200.302 50.6162 200.263 50.573 200.172C50.5304 200.076 50.5688 199.971 50.66 199.928L56.087 197.356L53.8574 190.937C53.8244 190.842 53.8748 190.737 53.9702 190.704C54.0626 190.672 54.1634 190.719 54.1994 190.809Z" fill="#98CFF4"/>
<path d="M58.3502 190.438C58.3514 190.44 58.352 190.443 58.3526 190.445L61.7396 200.077L55.1846 203.704C55.0964 203.753 54.9848 203.721 54.9356 203.633C54.8876 203.544 54.9188 203.433 55.007 203.384L61.292 199.907L58.0076 190.566C57.974 190.471 58.0244 190.367 58.1192 190.333C58.2128 190.301 58.3142 190.347 58.3502 190.438Z" fill="#98CFF4"/>
<path d="M86.0566 200.366C86.0566 200.366 97.6078 195.507 97.771 190.544C97.9342 185.581 104.527 185.732 106.185 182.849C107.844 179.966 106.673 175.814 101.218 178.375C95.7634 180.935 95.311 180.694 92.29 177.679C89.269 174.664 83.0608 180.59 80.6038 183.769C78.1468 186.947 80.0452 179.684 76.0342 181.541C72.0232 183.399 69.5398 193.776 70.4008 201.621C71.2612 209.466 86.1826 206.798 88.2502 204.248C90.3166 201.697 85.5016 202.795 86.0566 200.366Z" fill="#ACDAFF"/>
<path d="M98.0876 188.971C97.904 189.432 97.7906 189.95 97.7708 190.544C97.6076 195.507 86.0564 200.366 86.0564 200.366C85.5014 202.795 90.3164 201.697 88.2494 204.247C86.1824 206.798 71.261 209.465 70.4 201.62C70.3538 201.199 70.319 200.77 70.292 200.335C78.3746 194.188 87.9134 190.319 98.0876 188.971Z" fill="#98CFF4"/>
<path d="M71.0096 204.01C70.9988 204.105 71.0372 204.204 71.1188 204.267C71.2436 204.364 71.423 204.34 71.5196 204.216C71.6198 204.086 81.8186 191.1 104.433 181.132C104.578 181.069 104.644 180.9 104.58 180.756C104.516 180.611 104.347 180.546 104.203 180.609C81.4454 190.64 71.1686 203.735 71.0678 203.866C71.0342 203.91 71.015 203.959 71.0096 204.01Z" fill="#D2EDFF"/>
<path d="M97.708 184.069L102.518 184.887C102.673 184.914 102.821 184.809 102.847 184.653C102.872 184.499 102.768 184.35 102.613 184.324L98.4514 183.616L99.4786 180.395C99.5272 180.243 99.4438 180.084 99.2932 180.036C99.1426 179.988 98.9818 180.07 98.9338 180.221L97.708 184.069Z" fill="#D2EDFF"/>
<path d="M89.8103 178.651C89.8091 178.66 89.8085 178.669 89.8085 178.678L89.6387 188.694L96.5177 190.451C96.6707 190.49 96.8261 190.398 96.8651 190.245C96.9053 190.092 96.8117 189.936 96.6587 189.897L90.2177 188.252L90.3797 178.687C90.3821 178.53 90.2567 178.399 90.0989 178.397C89.9507 178.395 89.8265 178.506 89.8103 178.651Z" fill="#D2EDFF"/>
<path d="M81.6872 183.696C81.6866 183.701 81.686 183.705 81.686 183.709L80.957 194.808L90.6986 196.518C90.854 196.545 91.0022 196.441 91.0292 196.286C91.0532 196.125 90.9524 195.983 90.7976 195.956L81.5612 194.334L82.256 183.746C82.2662 183.589 82.1474 183.453 81.9896 183.443C81.8366 183.432 81.704 183.545 81.6872 183.696Z" fill="#D2EDFF"/>
<path d="M75.2845 184.859C75.2839 184.863 75.2839 184.867 75.2833 184.87L74.1787 200.775L85.5511 203.517C85.7047 203.554 85.8589 203.46 85.8961 203.307C85.9315 203.153 85.8385 202.999 85.6855 202.962L74.7823 200.333L75.8533 184.91C75.8641 184.753 75.7459 184.616 75.5881 184.605C75.4351 184.595 75.3013 184.708 75.2845 184.859Z" fill="#D2EDFF"/>
<path d="M103.658 218.915H17.618L15.458 199.268H105.818L103.658 218.915Z" fill="#FF9900"/>
<path d="M104.285 213.204H16.9902L17.1534 214.69H104.122L104.285 213.204Z" fill="#FFBC00"/>
<path d="M104.864 207.938H16.4111L16.7279 210.818H104.548L104.864 207.938Z" fill="#FFBC00"/>
<path d="M107.008 197.909H14.1074V202.536H107.008V197.909Z" fill="#FFBC00"/>
<path d="M183.523 223.373H110.452C105.281 223.373 97.2443 219.485 97.8443 214.314L120.162 58.9686C120.762 53.7972 125.441 49.6044 130.613 49.6044L199.211 46.9302C207.554 46.9302 212.561 53.7966 211.961 58.9686L193.973 214.009C193.373 219.181 188.694 223.373 183.523 223.373Z" fill="#144182"/>
<path d="M178.138 220.655H105.068C99.8965 220.655 96.1903 216.463 96.7903 211.291L114.778 56.2499C115.378 51.0785 120.056 46.8857 125.228 46.8857H198.299C203.47 46.8857 207.176 51.0779 206.576 56.2499L188.589 211.291C187.989 216.462 183.31 220.655 178.138 220.655Z" fill="#2099FF"/>
<path d="M178.12 217.404H105.84C101.904 217.404 99.0841 214.213 99.5407 210.278L117.355 56.7312C117.811 52.7952 121.372 49.605 125.308 49.605H197.588C201.524 49.605 204.344 52.7958 203.887 56.7312L186.073 210.278C185.617 214.213 182.056 217.404 178.12 217.404Z" fill="#ACDAFF"/>
<path d="M148.545 213.54H133.479C131.735 213.54 130.473 212.113 130.676 210.369C130.878 208.625 132.471 207.197 134.216 207.197H149.282C151.026 207.197 152.288 208.625 152.085 210.369C151.883 212.113 150.29 213.54 148.545 213.54Z" fill="#2099FF"/>
<path d="M128.57 56.9339C129.584 55.9774 129.715 54.4701 128.863 53.5673C128.011 52.6645 126.499 52.708 125.485 53.6645C124.471 54.6211 124.34 56.1284 125.192 57.0312C126.044 57.934 127.556 57.8904 128.57 56.9339Z" fill="#2099FF"/>
<path d="M134.339 56.2838C134.949 55.7075 135.028 54.7994 134.515 54.2554C134.002 53.7115 133.091 53.7377 132.48 54.314C131.869 54.8903 131.79 55.7984 132.303 56.3423C132.817 56.8863 133.728 56.8601 134.339 56.2838Z" fill="#2099FF"/>
<path d="M183.005 203.572H103.561L120.028 61.6372H199.472L183.005 203.572Z" fill="white"/>
<path d="M188.473 83.5373H126.014C124.096 83.5373 122.721 81.982 122.944 80.0632L124.205 69.1888C124.428 67.27 126.164 65.7148 128.082 65.7148H190.541C192.46 65.7148 193.834 67.27 193.612 69.1888L192.35 80.0632C192.127 81.982 190.391 83.5373 188.473 83.5373Z" fill="#E6F2FF"/>
<path d="M132.112 72.8197H133.175L134.971 78.8839H135.057L138.26 72.8197H139.323L138.476 80.1253H137.643L138.286 74.5748H138.215L135.273 80.1253H134.468L132.814 74.5748H132.742L132.098 80.1253H131.265L132.112 72.8197ZM142.374 80.2395C141.876 80.2395 141.453 80.1217 141.104 79.8863C140.758 79.6509 140.504 79.3215 140.343 78.8982C140.184 78.4749 140.137 77.9802 140.202 77.4142C140.269 76.8435 140.431 76.3453 140.688 75.9196C140.948 75.4939 141.279 75.1634 141.679 74.9279C142.083 74.6925 142.533 74.5748 143.031 74.5748C143.529 74.5748 143.951 74.6925 144.297 74.9279C144.646 75.1634 144.9 75.4939 145.059 75.9196C145.22 76.3453 145.267 76.8435 145.201 77.4142C145.136 77.9802 144.973 78.4749 144.713 78.8982C144.456 79.3215 144.125 79.6509 143.722 79.8863C143.322 80.1217 142.872 80.2395 142.374 80.2395ZM142.462 79.4832C142.84 79.4832 143.163 79.3869 143.429 79.1943C143.696 79.0016 143.906 78.7484 144.059 78.4345C144.213 78.1206 144.311 77.7805 144.354 77.4142C144.396 77.048 144.377 76.7068 144.297 76.3905C144.216 76.0742 144.065 75.8185 143.843 75.6235C143.622 75.4285 143.322 75.331 142.943 75.331C142.565 75.331 142.243 75.4285 141.976 75.6235C141.709 75.8185 141.499 76.0742 141.345 76.3905C141.191 76.7068 141.092 77.048 141.05 77.4142C141.007 77.7805 141.027 78.1206 141.108 78.4345C141.189 78.7484 141.34 79.0016 141.562 79.1943C141.784 79.3869 142.084 79.4832 142.462 79.4832ZM147.41 76.8292L147.028 80.1253H146.181L146.816 74.6461H147.635L147.535 75.5022H147.607C147.769 75.224 147.991 75.0004 148.274 74.8316C148.557 74.6604 148.907 74.5748 149.324 74.5748C149.697 74.5748 150.015 74.6509 150.278 74.8031C150.54 74.9529 150.732 75.1812 150.852 75.488C150.972 75.7924 151.005 76.1776 150.951 76.6437L150.547 80.1253H149.7L150.097 76.7008C150.147 76.2704 150.073 75.9351 149.876 75.6949C149.679 75.4523 149.384 75.331 148.992 75.331C148.721 75.331 148.473 75.3893 148.246 75.5058C148.022 75.6223 147.836 75.7924 147.688 76.0159C147.54 76.2395 147.447 76.5106 147.41 76.8292ZM154.166 80.2395C153.706 80.2395 153.314 80.1241 152.988 79.8934C152.663 79.6604 152.426 79.3322 152.277 78.9089C152.127 78.4832 152.086 77.9802 152.154 77.4C152.22 76.8245 152.378 76.3251 152.625 75.9018C152.873 75.4785 153.188 75.1515 153.569 74.9208C153.95 74.6901 154.372 74.5748 154.837 74.5748C155.196 74.5748 155.473 74.6342 155.667 74.7531C155.864 74.8697 156.009 75.0028 156.102 75.1526C156.198 75.3001 156.271 75.4214 156.322 75.5165H156.394L156.707 72.8197H157.554L156.707 80.1253H155.888L155.986 79.2835H155.885C155.811 79.3833 155.708 79.5094 155.576 79.6616C155.443 79.8114 155.264 79.9458 155.037 80.0647C154.81 80.1812 154.52 80.2395 154.166 80.2395ZM154.368 79.4832C154.708 79.4832 155.006 79.3952 155.261 79.2192C155.516 79.0409 155.723 78.7948 155.881 78.4808C156.04 78.1645 156.144 77.7995 156.192 77.3857C156.239 76.9767 156.221 76.6188 156.137 76.312C156.053 76.0028 155.903 75.7626 155.689 75.5914C155.474 75.4178 155.195 75.331 154.85 75.331C154.491 75.331 154.181 75.4226 153.92 75.6057C153.662 75.7864 153.455 76.0326 153.299 76.3441C153.146 76.6532 153.047 77.0005 153.003 77.3857C152.957 77.7757 152.976 78.1301 153.059 78.4487C153.144 78.765 153.295 79.0171 153.51 79.205C153.728 79.3905 154.014 79.4832 154.368 79.4832ZM159.985 80.2537C159.636 80.2537 159.326 80.1883 159.056 80.0575C158.787 79.9244 158.583 79.7329 158.444 79.4832C158.306 79.2311 158.257 78.9267 158.299 78.57C158.335 78.2561 158.427 78.0016 158.574 77.8066C158.721 77.6093 158.906 77.4547 159.127 77.3429C159.348 77.2311 159.588 77.1479 159.845 77.0932C160.106 77.0361 160.366 76.9909 160.626 76.9576C160.966 76.9148 161.242 76.8827 161.452 76.8613C161.666 76.8376 161.823 76.7983 161.926 76.7436C162.03 76.6889 162.09 76.5938 162.106 76.4582L162.109 76.4297C162.15 76.0777 162.085 75.8043 161.914 75.6092C161.745 75.4142 161.465 75.3167 161.075 75.3167C160.67 75.3167 160.343 75.4047 160.093 75.5807C159.842 75.7567 159.659 75.9446 159.542 76.1443L158.771 75.859C158.953 75.526 159.175 75.2668 159.436 75.0813C159.699 74.8934 159.978 74.7626 160.271 74.6889C160.567 74.6128 160.854 74.5748 161.132 74.5748C161.309 74.5748 161.51 74.5962 161.735 74.639C161.963 74.6794 162.177 74.7638 162.377 74.8922C162.58 75.0207 162.739 75.2145 162.852 75.4737C162.966 75.7329 162.997 76.0801 162.947 76.5153L162.528 80.1253H161.681L161.767 79.3833H161.724C161.652 79.5022 161.542 79.6295 161.392 79.765C161.242 79.9006 161.051 80.0159 160.817 80.111C160.583 80.2062 160.306 80.2537 159.985 80.2537ZM160.202 79.4975C160.537 79.4975 160.827 79.4321 161.072 79.3013C161.32 79.1705 161.514 79.0016 161.655 78.7948C161.799 78.5879 161.884 78.3703 161.911 78.142L162 77.3714C161.959 77.4142 161.876 77.4535 161.749 77.4892C161.626 77.5225 161.483 77.5522 161.322 77.5783C161.164 77.6021 161.01 77.6235 160.859 77.6425C160.711 77.6592 160.591 77.6735 160.498 77.6854C160.275 77.7139 160.064 77.7603 159.865 77.8245C159.668 77.8863 159.504 77.9802 159.372 78.1063C159.243 78.2299 159.166 78.3988 159.141 78.6128C159.107 78.9053 159.191 79.1265 159.391 79.2763C159.594 79.4238 159.865 79.4975 160.202 79.4975ZM164.185 82.18C164.041 82.18 163.915 82.1681 163.805 82.1443C163.695 82.1229 163.62 82.1015 163.579 82.0801L163.88 81.3382C164.08 81.3905 164.26 81.4095 164.42 81.3952C164.579 81.381 164.728 81.3108 164.864 81.1848C165.003 81.0611 165.14 80.8602 165.275 80.5819L165.483 80.1538L164.082 74.6461H165.001L166.018 79.0123H166.075L168.104 74.6461H169.023L165.954 80.9244C165.816 81.2074 165.658 81.4416 165.481 81.6271C165.304 81.815 165.107 81.9541 164.89 82.0445C164.676 82.1348 164.441 82.18 164.185 82.18ZM133.186 84.7398L132.339 92.0454H131.448L132.188 85.6673H132.145L130.212 86.8516L130.316 85.9527L132.295 84.7398H133.186ZM137.887 84.7398L137.04 92.0454H136.149L136.889 85.6673H136.846L134.913 86.8516L135.017 85.9527L136.996 84.7398H137.887ZM139.346 92.1025C139.168 92.1025 139.024 92.0395 138.911 91.9134C138.799 91.7874 138.753 91.6364 138.774 91.4604C138.794 91.2844 138.875 91.1334 139.017 91.0074C139.158 90.8813 139.317 90.8183 139.495 90.8183C139.672 90.8183 139.816 90.8813 139.929 91.0074C140.041 91.1334 140.087 91.2844 140.066 91.4604C140.053 91.5769 140.011 91.6839 139.939 91.7814C139.871 91.8789 139.784 91.9574 139.679 92.0169C139.576 92.074 139.465 92.1025 139.346 92.1025ZM143.636 92.1453C143.094 92.1453 142.651 91.999 142.304 91.7065C141.957 91.4116 141.716 90.9848 141.58 90.4259C141.444 89.8647 141.422 89.1869 141.514 88.3926C141.605 87.6031 141.784 86.9289 142.05 86.37C142.319 85.8088 142.66 85.3807 143.075 85.0858C143.493 84.7886 143.97 84.6399 144.506 84.6399C145.042 84.6399 145.484 84.7886 145.83 85.0858C146.179 85.3807 146.421 85.8088 146.557 86.37C146.696 86.9289 146.719 87.6031 146.628 88.3926C146.536 89.1869 146.356 89.8647 146.09 90.4259C145.824 90.9848 145.484 91.4116 145.069 91.7065C144.654 91.999 144.177 92.1453 143.636 92.1453ZM143.727 91.3605C144.263 91.3605 144.709 91.1037 145.066 90.59C145.422 90.0763 145.655 89.3439 145.766 88.3926C145.839 87.76 145.833 87.2214 145.749 86.7767C145.666 86.332 145.511 85.9931 145.285 85.76C145.06 85.527 144.771 85.4104 144.417 85.4104C143.885 85.4104 143.44 85.6708 143.08 86.1917C142.721 86.7101 142.486 87.4437 142.376 88.3926C142.302 89.0252 142.307 89.5626 142.39 90.005C142.473 90.4473 142.626 90.7838 142.851 91.0145C143.078 91.2452 143.37 91.3605 143.727 91.3605ZM149.956 92.1453C149.415 92.1453 148.971 91.999 148.624 91.7065C148.278 91.4116 148.036 90.9848 147.9 90.4259C147.764 89.8647 147.742 89.1869 147.834 88.3926C147.926 87.6031 148.105 86.9289 148.37 86.37C148.639 85.8088 148.981 85.3807 149.396 85.0858C149.813 84.7886 150.29 84.6399 150.826 84.6399C151.363 84.6399 151.804 84.7886 152.15 85.0858C152.499 85.3807 152.741 85.8088 152.877 86.37C153.016 86.9289 153.04 87.6031 152.948 88.3926C152.856 89.1869 152.677 89.8647 152.411 90.4259C152.145 90.9848 151.804 91.4116 151.389 91.7065C150.975 91.999 150.497 92.1453 149.956 92.1453ZM150.047 91.3605C150.583 91.3605 151.03 91.1037 151.386 90.59C151.742 90.0763 151.976 89.3439 152.086 88.3926C152.159 87.76 152.154 87.2214 152.069 86.7767C151.986 86.332 151.832 85.9931 151.605 85.76C151.381 85.527 151.091 85.4104 150.737 85.4104C150.205 85.4104 149.76 85.6708 149.4 86.1917C149.041 86.7101 148.806 87.4437 148.696 88.3926C148.623 89.0252 148.627 89.5626 148.71 90.005C148.793 90.4473 148.947 90.7838 149.171 91.0145C149.398 91.2452 149.69 91.3605 150.047 91.3605ZM157.164 92.0454H156.23L159.778 84.7398H160.697L162.551 92.0454H161.617L160.132 85.8956H160.075L157.164 92.0454ZM157.84 89.1917H161.603L161.512 89.9764H157.749L157.84 89.1917ZM164.544 84.7398H165.607L167.403 90.804H167.489L170.692 84.7398H171.754L170.907 92.0454H170.074L170.718 86.4949H170.646L167.704 92.0454H166.9L165.245 86.4949H165.173L164.529 92.0454H163.696L164.544 84.7398Z" fill="#ACDAFF"/>
<path d="M134.49 103.073H120.273L121.922 88.8569H136.139L134.49 103.073Z" fill="#E6F2FF"/>
<path d="M152.887 103.073H138.67L140.319 88.8569H154.536L152.887 103.073Z" fill="#ACDAFF"/>
<path d="M171.283 103.073H157.066L158.716 88.8569H172.933L171.283 103.073Z" fill="#E6F2FF"/>
<path d="M189.68 103.073H175.463L177.112 88.8569H191.329L189.68 103.073Z" fill="#E6F2FF"/>
<path d="M132.381 121.254H118.164L119.813 107.037H134.03L132.381 121.254Z" fill="#E6F2FF"/>
<path d="M150.778 121.254H136.561L138.21 107.037H152.427L150.778 121.254Z" fill="#E6F2FF"/>
<path d="M169.174 121.254H154.957L156.606 107.037H170.823L169.174 121.254Z" fill="#E6F2FF"/>
<path d="M187.571 121.254H173.354L175.003 107.037H189.22L187.571 121.254Z" fill="#E6F2FF"/>
<path d="M130.272 139.434H116.056L117.705 125.217H131.921L130.272 139.434Z" fill="#E6F2FF"/>
<path d="M148.669 139.434H134.452L136.102 125.217H150.318L148.669 139.434Z" fill="#E6F2FF"/>
<path d="M167.065 139.434H152.849L154.498 125.217H168.714L167.065 139.434Z" fill="#E6F2FF"/>
<path d="M185.462 139.434H171.245L172.895 125.217H187.111L185.462 139.434Z" fill="#E6F2FF"/>
<path d="M128.163 157.614H113.946L115.596 143.397H129.812L128.163 157.614Z" fill="#E6F2FF"/>
<path d="M146.559 157.614H132.343L133.992 143.397H148.209L146.559 157.614Z" fill="#E6F2FF"/>
<path d="M164.956 157.614H150.739L152.389 143.397H166.606L164.956 157.614Z" fill="#E6F2FF"/>
<path d="M183.353 157.614H169.136L170.785 143.397H185.002L183.353 157.614Z" fill="#E6F2FF"/>
<path d="M124.662 187.017C124.792 185.902 125.804 184.996 126.919 184.996H139.765C140.971 184.996 142.089 184.303 142.68 183.188C143.271 182.073 143.169 180.85 142.415 179.997L137.428 174.355C136.939 173.802 136.239 173.498 135.457 173.498H119.832C118.974 173.498 118.269 172.953 118.081 172.142L117.419 169.299C117.273 168.673 117.446 168.004 117.892 167.462C118.339 166.922 118.976 166.612 119.64 166.612H141.192C141.727 166.612 142.208 166.819 142.545 167.195L150.613 176.192C150.683 175.796 150.763 175.401 150.844 175.01L143.256 166.55C142.768 166.006 142.072 165.706 141.297 165.706H119.744C118.783 165.706 117.861 166.155 117.214 166.938C116.566 167.722 116.316 168.691 116.527 169.598L117.189 172.441C117.463 173.615 118.482 174.404 119.726 174.404H135.351C135.891 174.404 136.374 174.614 136.711 174.997L141.699 180.638C142.321 181.342 142.201 182.239 141.881 182.842C141.561 183.445 140.864 184.09 139.868 184.09H127.022C125.407 184.09 123.942 185.403 123.754 187.018L123.409 189.997C123.222 191.612 124.383 192.925 125.997 192.925H140.191C141.306 192.925 142.107 193.832 141.974 194.981C141.845 196.096 140.832 197.003 139.717 197.003H111.325L111.22 197.909H139.612C141.227 197.909 142.693 196.596 142.884 194.947C143.071 193.333 141.91 192.019 140.296 192.019H126.102C124.987 192.019 124.186 191.112 124.315 189.997L124.662 187.017Z" fill="#E6F2FF"/>
<path d="M155.891 168.899C155.623 171.21 150.727 177.345 150.727 177.345C150.727 177.345 147.255 171.21 147.523 168.899C147.79 166.588 149.881 164.715 152.192 164.715C154.504 164.715 156.16 166.588 155.891 168.899Z" fill="#ACDAFF"/>
<path d="M153.181 170.254C154.137 169.351 154.261 167.929 153.457 167.077C152.654 166.225 151.227 166.267 150.27 167.169C149.314 168.072 149.19 169.494 149.993 170.346C150.797 171.198 152.224 171.156 153.181 170.254Z" fill="white"/>
<path d="M115.375 199.871C116.87 198.46 117.063 196.238 115.807 194.907C114.551 193.576 112.321 193.64 110.827 195.051C109.332 196.461 109.138 198.684 110.394 200.015C111.65 201.346 113.88 201.281 115.375 199.871Z" fill="#ACDAFF"/>
<path d="M114.275 198.705C115.047 197.977 115.146 196.83 114.498 196.143C113.85 195.456 112.699 195.489 111.927 196.217C111.156 196.945 111.056 198.092 111.704 198.779C112.353 199.466 113.504 199.433 114.275 198.705Z" fill="white"/>
<path d="M80.1034 132.396C80.1034 132.396 87.5722 121.524 88.756 118.937C89.9398 116.35 90.0688 114.15 88.213 112.806C86.3572 111.462 82.9366 110.408 79.9132 114.668C76.8904 118.928 71.302 132.013 71.0734 136.107C70.8448 140.201 89.3572 152.595 91.0024 153.396C92.8156 152.922 93.5848 150.215 93.5848 150.215C93.5848 150.215 81.6316 135.039 80.1034 132.396Z" fill="#FF9900"/>
<path d="M86.2315 222.34C86.2315 222.34 86.6065 224.488 85.3789 227.727C84.1513 230.966 84.0835 231.989 85.3789 232.705C86.6743 233.421 87.5953 233.625 91.2091 232.705C94.8229 231.784 98.8465 229.773 98.8465 229.773C98.8465 229.773 94.9255 227.284 93.9709 226.227C93.0163 225.169 91.0045 221.385 91.0387 220.84C91.0729 220.295 86.2315 222.34 86.2315 222.34Z" fill="#F79E77"/>
<path d="M96.0589 227.903C94.6045 228.873 93.2155 229.932 91.3531 229.666C89.8579 229.293 89.2975 227.797 88.3627 226.676C87.7183 226.161 86.7187 226.001 85.8535 226.258C85.7311 226.717 85.5757 227.208 85.3789 227.727C84.1513 230.966 84.0835 231.989 85.3789 232.705C86.6743 233.421 87.5953 233.625 91.2091 232.705C94.8229 231.784 98.8465 229.773 98.8465 229.773C98.8465 229.773 97.4059 228.859 96.0589 227.903Z" fill="#0C2C51"/>
<path d="M130.069 110.47L134.595 112.418C136.096 110.558 137.223 109.157 137.959 109.004C139.875 109.261 140.697 108.451 141.21 107.796C141.722 107.142 141.081 106.767 141.165 106.516C141.694 105.737 140.796 105.431 140.94 105.247C141.496 104.598 141.393 104.246 141.058 104.069C140.722 103.891 140.157 103.726 140.261 103.4C140.365 103.073 141.742 102.203 142.939 101.636C144.136 101.069 145.452 100.16 144.724 99.6816C143.995 99.2034 137.195 102.47 135.922 103.864C134.65 105.258 134.977 106.742 133.381 108.277C132.802 108.835 131.519 109.659 130.069 110.47Z" fill="#FFB797"/>
<path d="M90.9588 221.681C90.9588 221.681 91.2768 226.091 89.868 229.682C88.4586 233.273 88.8678 234.864 91.4136 235.592C93.9594 236.32 95.3688 234.592 98.6874 234.683C102.006 234.774 106.415 234.41 107.552 231.365C108.688 228.319 103.383 229.68 100.171 228.726C96.9594 227.773 98.3874 222.136 98.3874 222.136L90.9588 221.681Z" fill="#FFAE83"/>
<path d="M100.261 228.662C99.9732 229.627 102.592 230.646 101.819 231.162C99.0156 233.217 95.6514 229.666 92.4744 228.545C91.827 228.222 91.0554 228.21 90.303 228.366C90.18 228.81 90.0366 229.252 89.868 229.682C88.4586 233.274 88.8678 234.864 91.4136 235.592C93.9594 236.319 95.3688 234.592 98.6874 234.683C102.006 234.774 108.283 234.145 109.42 231.1C110.544 228.084 103.481 229.56 100.261 228.662Z" fill="#0F3163"/>
<path d="M109.03 229.645C109.012 229.716 108.991 229.789 108.963 229.865C107.826 232.911 101.549 233.54 98.2304 233.449C94.9118 233.357 93.5024 235.085 90.9566 234.358C90.083 234.108 89.4674 233.753 89.084 233.254C89.1932 234.464 89.9468 235.172 91.4132 235.591C93.959 236.318 95.3684 234.591 98.6864 234.682C102.005 234.773 108.282 234.145 109.419 231.099C109.68 230.402 109.498 229.946 109.03 229.645Z" fill="#0C2C51"/>
<path d="M96.3231 165.13C94.5855 164.307 93.4173 163.084 92.6595 161.731C91.1583 159.049 91.2783 155.852 91.8225 154.22C92.6409 151.765 95.9139 145.583 95.9139 145.583L87.8673 144.094C87.8673 144.094 84.2535 150.334 82.4121 155.243C80.5707 160.153 82.0713 165.335 82.9575 169.222C83.8437 173.109 86.0943 184.224 85.1397 188.383C84.1851 192.543 82.4121 198.884 82.8897 203.726C83.3673 208.567 85.7535 220.091 85.6857 222.682C86.4909 223.042 87.2793 223.165 88.0077 223.147C90.1791 223.095 91.8225 221.795 91.8225 221.795C91.8225 221.795 92.3679 201.952 94.4139 193.224C96.4593 184.496 98.5053 168.267 96.3231 165.13Z" fill="#144182"/>
<path d="M96.3229 165.13C94.5853 164.307 93.4171 163.084 92.6593 161.731C89.2543 160.122 91.6285 153.873 91.3525 150.016C90.0043 153.739 84.8461 160.451 91.8949 168.814C94.4035 171.144 91.9549 189.422 89.8039 197.666C87.8761 204.655 88.7185 215.881 89.0593 223.023C90.6865 222.689 91.8217 221.795 91.8217 221.795C91.8217 221.795 92.3671 201.952 94.4131 193.224C96.4591 184.496 98.5051 168.267 96.3229 165.13Z" fill="#0F3163"/>
<path d="M109.188 145.492C109.188 145.492 111.552 154.493 110.825 164.13C110.098 173.767 103.642 189.951 102.915 193.497C102.188 197.043 101.188 207.239 100.279 211.824C99.3699 216.409 98.9151 220.682 99.4149 221.864C97.2783 224.137 91.5957 223.864 90.3231 221.864C90.7779 212.499 90.5505 204.453 92.3235 198.134C94.0965 191.815 93.0051 190.178 93.7329 186.223C94.4601 182.268 95.1873 170.039 95.5515 168.585C95.9151 167.131 92.2785 166.403 90.9603 164.039C89.6421 161.675 86.9145 155.992 94.4607 144.4C102.505 144.128 109.188 145.492 109.188 145.492Z" fill="#144182"/>
<path d="M109.189 145.492C109.189 145.492 102.506 144.128 94.4598 144.401C94.3086 144.633 94.1682 144.859 94.0254 145.087C100.662 145.171 105.744 146.208 105.744 146.208C105.744 146.208 108.108 155.209 107.381 164.846C106.654 174.484 101.498 190.399 100.771 193.945C100.044 197.491 99.756 207.225 98.847 211.81C98.0628 215.763 97.9194 220.682 98.2152 222.721C98.6766 222.49 99.0906 222.211 99.4152 221.864C98.9154 220.682 99.3696 216.409 100.279 211.825C101.188 207.24 102.188 197.044 102.916 193.498C103.643 189.952 110.098 173.768 110.825 164.131C111.553 154.493 109.189 145.492 109.189 145.492Z" fill="#164E91"/>
<path d="M105.051 91.122C105.051 91.122 105.733 99.2136 104.824 101.714C103.915 104.214 103.005 106.033 102.505 106.532C102.005 107.032 99.5981 106.123 99.1199 106.532C98.6411 106.942 98.6867 111.624 98.6867 111.624L92.0039 111.351C92.0039 111.351 92.7767 102.896 93.3677 100.577C93.9587 98.259 104.369 90.9402 105.051 91.122Z" fill="#FFAE83"/>
<path d="M89.2321 111.192C89.2321 111.192 94.4143 108.601 98.6425 110.647C102.87 112.692 109.484 121.284 110.507 122.921C111.53 124.558 112.212 128.24 110.507 131.581C108.803 134.922 109.417 144.741 110.303 146.446C103.143 148.56 92.0281 147.196 86.9143 144.946C89.7781 140.786 91.2787 139.218 89.2327 134.649C87.1866 130.08 84.7315 117.125 89.2321 111.192Z" fill="#FFAA00"/>
<path d="M107.289 132.211C108.993 128.87 108.312 125.187 107.289 123.551C106.266 121.914 99.6513 113.323 95.4237 111.277C93.9633 110.57 92.3925 110.423 90.9573 110.525C89.9061 110.859 89.2323 111.192 89.2323 111.192C84.7317 117.125 87.1863 130.081 89.2323 134.649C91.2777 139.218 89.7777 140.786 86.9139 144.946C91.2171 146.84 99.7695 148.105 106.639 147.199C106.788 147.159 106.938 147.119 107.084 147.076C106.197 145.371 105.584 135.552 107.289 132.211Z" fill="#FF9900"/>
<path d="M115.348 121.08C115.348 121.08 104.558 113.495 101.983 112.283C99.4084 111.072 97.21 110.92 95.8462 112.761C94.4824 114.602 93.3916 118.012 97.6192 121.08C101.847 124.148 114.871 129.877 118.962 130.149C123.054 130.422 135.646 112.043 136.464 110.407C136.01 108.588 133.311 107.79 133.311 107.79C133.311 107.79 118.007 119.58 115.348 121.08Z" fill="#FFBC00"/>
<path d="M97.6187 121.079C97.4753 120.975 97.3517 120.877 97.2197 120.776C97.3469 120.877 97.4795 120.979 97.6187 121.079Z" fill="#FF69A6"/>
<path d="M95.5819 114.541C96.9457 112.7 99.1447 112.853 101.719 114.064C104.293 115.275 114.673 122.058 114.673 122.058C117.332 120.558 133.309 107.789 133.309 107.789C133.309 107.789 118.007 119.58 115.348 121.08C115.348 121.08 104.557 113.494 101.983 112.283C99.4081 111.072 97.2097 110.919 95.8459 112.761C95.2081 113.622 94.6297 114.827 94.6279 116.179C94.8187 115.623 95.1745 115.092 95.5819 114.541Z" fill="#FFD815"/>
<path d="M104.551 87.3034C101.46 84.2122 95.7318 83.0302 95.7318 83.0302C90.8712 81.3796 87.0948 85.9396 86.0034 90.031C84.9126 94.1224 85.449 98.8828 83.7762 104.259C82.9302 106.879 70.824 125.63 86.6952 139.211C90.7296 141.204 93.8178 142.082 98.1786 138.717C93.5838 127.794 95.0358 117.311 95.9622 114.167C96.858 111.128 98.6988 111.015 100.388 111.642C100.465 111.672 100.54 111.702 100.619 111.734C100.462 111.426 100.259 111.072 100.018 110.684C99.1674 108.148 99.9684 102.888 101.71 101.031C103.755 98.8492 104.71 95.3038 105.051 92.7124C105.529 95.7808 104.437 97.69 103.687 98.7814C106.619 96.5314 107.642 90.3946 104.551 87.3034Z" fill="#144182"/>
<path d="M85.0854 127.955C83.2932 115.411 88.311 102.508 92.9706 90.6808C94.365 87.0556 98.3628 85.384 102.432 85.6642C99.3858 83.7856 95.7318 83.0302 95.7318 83.0302C90.8712 81.3796 87.0948 85.9396 86.0034 90.031C84.9126 94.1224 85.449 98.8828 83.7762 104.259C82.9302 106.879 70.824 125.63 86.6952 139.211C89.9568 140.823 92.5998 141.704 95.7966 140.205C94.4334 139.962 92.8374 139.072 92.4984 138.797C88.9146 136.289 85.8024 132.256 85.0854 127.955Z" fill="#0F3163"/>
<path d="M181.257 139.332C181.257 139.332 174.383 118.982 180.57 113.137C186.759 107.293 179.079 98.9977 180.898 93.5947C182.717 88.1917 189.379 84.9817 192.284 94.8937C195.188 104.806 196.012 105.112 203.313 105.569C210.615 106.025 210.053 120.726 208.762 127.49C207.471 134.254 214.642 123.569 216.81 130.829C218.979 138.089 208.473 153.06 197.421 160.862C186.37 168.664 172.854 146.474 173.783 140.924C174.712 135.373 178.768 142.803 181.257 139.332Z" fill="#82C4E8"/>
<path d="M182.23 110.945C181.847 111.704 181.311 112.438 180.571 113.137C174.382 118.982 181.258 139.332 181.258 139.332C178.768 142.803 174.712 135.373 173.784 140.923C172.855 146.473 186.371 168.664 197.422 160.862C198.016 160.443 198.607 160 199.195 159.541C197.914 142.182 192.051 125.541 182.23 110.945Z" fill="#6CB7D8"/>
<path d="M193.663 162.791C193.552 162.914 193.382 162.977 193.208 162.943C192.942 162.892 192.768 162.636 192.819 162.37C192.872 162.094 197.968 134.254 185.092 93.8959C185.009 93.6385 185.151 93.3619 185.409 93.2809C185.667 93.1981 185.943 93.3408 186.024 93.5982C198.982 134.212 193.834 162.276 193.78 162.554C193.763 162.647 193.721 162.727 193.663 162.791Z" fill="#98CFF4"/>
<path d="M188.957 105.867L182.445 100.619C182.234 100.45 182.201 100.141 182.371 99.9308C182.541 99.7238 182.849 99.6872 183.059 99.857L188.693 104.397L191.663 99.4208C191.803 99.1856 192.102 99.1124 192.334 99.251C192.566 99.3896 192.643 99.6902 192.504 99.9224L188.957 105.867Z" fill="#98CFF4"/>
<path d="M204.881 109.856C204.871 109.868 204.86 109.879 204.849 109.889L192.178 121.48L182.113 114.641C181.889 114.489 181.831 114.184 181.983 113.96C182.134 113.735 182.44 113.679 182.664 113.831L192.089 120.234L204.188 109.166C204.388 108.984 204.697 108.998 204.88 109.198C205.051 109.385 205.049 109.672 204.881 109.856Z" fill="#98CFF4"/>
<path d="M207.626 126.016C207.621 126.021 207.616 126.027 207.611 126.032L194.185 139.57L180.929 129.002C180.717 128.833 180.682 128.525 180.851 128.314C181.031 128.1 181.327 128.068 181.539 128.236L194.109 138.256L206.916 125.343C207.106 125.151 207.416 125.149 207.608 125.34C207.795 125.525 207.801 125.823 207.626 126.016Z" fill="#98CFF4"/>
<path d="M213.401 135.558C213.397 135.563 213.392 135.568 213.387 135.572L194.217 155.049L177.785 143.558C177.563 143.403 177.509 143.098 177.663 142.876C177.821 142.657 178.124 142.6 178.346 142.755L194.1 153.772L212.689 134.886C212.879 134.693 213.189 134.69 213.382 134.881C213.569 135.065 213.576 135.365 213.401 135.558Z" fill="#98CFF4"/>
<path d="M178.428 184.527C178.428 184.527 163.406 177.01 163.625 170.356C163.844 163.704 155.013 163.324 153.048 159.322C151.084 155.32 153.016 149.87 160.087 153.775C167.157 157.681 167.783 157.398 172.089 153.632C176.395 149.866 184.177 158.34 187.183 162.807C190.19 167.274 188.291 157.392 193.492 160.23C198.693 163.068 201.1 177.166 199.258 187.584C197.415 198.001 177.693 193.117 175.152 189.524C172.613 185.932 178.956 187.825 178.428 184.527Z" fill="#98CFF4"/>
<path d="M163.34 168.226C163.545 168.859 163.651 169.562 163.625 170.357C163.406 177.01 178.427 184.527 178.427 184.527C178.955 187.825 172.612 185.932 175.153 189.526C177.692 193.119 197.416 198.002 199.258 187.585C199.357 187.026 199.441 186.454 199.516 185.876C189.247 176.939 176.83 170.925 163.34 168.226Z" fill="#82C4E8"/>
<path d="M198.232 190.726C198.237 190.855 198.178 190.983 198.063 191.061C197.887 191.179 197.649 191.132 197.532 190.956C197.409 190.774 184.912 172.506 155.543 157.181C155.355 157.083 155.282 156.852 155.381 156.664C155.479 156.477 155.71 156.404 155.898 156.502C185.453 171.925 198.044 190.345 198.168 190.53C198.208 190.59 198.229 190.658 198.232 190.726Z" fill="#ACDAFF"/>
<path d="M164.279 161.702L157.774 162.373C157.564 162.395 157.376 162.242 157.354 162.032C157.334 161.823 157.486 161.633 157.696 161.612L163.324 161.031L162.234 156.633C162.182 156.426 162.308 156.22 162.514 156.17C162.719 156.119 162.926 156.244 162.977 156.449L164.279 161.702Z" fill="#ACDAFF"/>
<path d="M175.32 155.151C175.32 155.163 175.32 155.175 175.32 155.187L174.664 168.6L165.309 170.343C165.101 170.382 164.901 170.245 164.862 170.037C164.822 169.828 164.961 169.629 165.169 169.59L173.929 167.958L174.555 155.15C174.566 154.939 174.746 154.776 174.957 154.787C175.155 154.796 175.311 154.956 175.32 155.151Z" fill="#ACDAFF"/>
<path d="M185.741 162.615C185.741 162.62 185.741 162.626 185.741 162.632L185.738 177.542L172.558 178.971C172.347 178.994 172.158 178.842 172.135 178.632C172.117 178.414 172.264 178.233 172.474 178.21L184.971 176.855L184.975 162.632C184.975 162.421 185.146 162.25 185.357 162.25C185.564 162.25 185.732 162.411 185.741 162.615Z" fill="#ACDAFF"/>
<path d="M194.201 164.735C194.201 164.74 194.202 164.745 194.202 164.751L194.277 186.121L178.825 188.786C178.617 188.822 178.418 188.682 178.382 188.474C178.348 188.265 178.486 188.067 178.694 188.031L193.509 185.476L193.435 164.754C193.435 164.542 193.605 164.37 193.817 164.37C194.023 164.368 194.192 164.531 194.201 164.735Z" fill="#ACDAFF"/>
<path d="M217.625 174.819C217.625 174.819 230.479 157.609 226.411 150.132C222.344 142.654 232.219 137.154 232.168 131.453C232.116 125.752 226.78 120.633 220.941 129.153C215.102 137.673 214.224 137.709 207.142 135.876C200.06 134.043 196.028 148.191 195.156 155.022C194.284 161.852 190.784 149.469 186.469 155.697C182.153 161.924 187.492 179.418 195.574 190.265C203.657 201.113 223.394 184.215 224.236 178.651C225.077 173.088 218.914 178.891 217.625 174.819Z" fill="#ACDAFF"/>
<path d="M225.514 147.532C225.643 148.373 225.925 149.238 226.411 150.131C230.479 157.609 217.625 174.818 217.625 174.818C218.914 178.891 225.076 173.087 224.236 178.652C223.395 184.216 203.657 201.113 195.574 190.265C195.141 189.683 194.716 189.078 194.299 188.459C200.907 172.356 211.647 158.357 225.514 147.532Z" fill="#98CFF4"/>
<path d="M198.549 193.267C198.616 193.417 198.758 193.53 198.934 193.552C199.202 193.587 199.448 193.396 199.481 193.128C199.517 192.849 203.317 164.802 228.088 130.437C228.246 130.218 228.197 129.911 227.977 129.754C227.757 129.595 227.451 129.645 227.293 129.865C202.366 164.448 198.546 192.723 198.51 193.005C198.498 193.098 198.513 193.188 198.549 193.267Z" fill="#D2EDFF"/>
<path d="M220.697 140.616L228.516 137.65C228.769 137.554 228.896 137.271 228.8 137.019C228.703 136.769 228.421 136.639 228.169 136.735L221.403 139.301L220.125 133.649C220.064 133.382 219.803 133.219 219.539 133.279C219.275 133.338 219.11 133.601 219.169 133.864L220.697 140.616Z" fill="#D2EDFF"/>
<path d="M204.321 139.465C204.327 139.479 204.334 139.493 204.341 139.506L212.786 154.458L224.478 151.082C224.738 151.007 224.888 150.735 224.812 150.476C224.738 150.214 224.465 150.066 224.205 150.141L213.258 153.302L205.193 139.024C205.06 138.789 204.761 138.706 204.526 138.839C204.305 138.965 204.219 139.237 204.321 139.465Z" fill="#D2EDFF"/>
<path d="M196.694 153.973C196.697 153.98 196.7 153.987 196.704 153.993L205.262 171.03L221.145 165.101C221.399 165.006 221.527 164.724 221.433 164.471C221.329 164.211 221.056 164.089 220.803 164.183L205.744 169.805L197.579 153.553C197.458 153.311 197.163 153.214 196.922 153.335C196.686 153.454 196.588 153.736 196.694 153.973Z" fill="#D2EDFF"/>
<path d="M188.242 161.251C188.245 161.257 188.247 161.263 188.25 161.269L200.426 185.735L219.614 179.914C219.873 179.836 220.019 179.563 219.941 179.304C219.86 179.046 219.588 178.899 219.33 178.977L200.934 184.557L189.128 160.833C189.007 160.591 188.713 160.492 188.471 160.612C188.235 160.73 188.135 161.013 188.242 161.251Z" fill="#D2EDFF"/>
<path d="M175.138 191.75H212.98L205.11 229.214H180.712L175.138 191.75Z" fill="#FF9900"/>
<path d="M209.728 207.228H177.44L178.024 211.147H208.906L209.728 207.228Z" fill="#FFBC00"/>
<path d="M208.55 212.839H178.275L178.567 214.798H208.139L208.55 212.839Z" fill="#FFBC00"/>
<path d="M214.045 191.129H174.001V196.453H214.045V191.129Z" fill="#FFBC00"/>
</svg>
