<svg width="25" height="25" viewBox="0 0 25 25" fill="none" xmlns="http://www.w3.org/2000/svg">
<path d="M12.4616 0.503967C5.65952 0.503967 0.144531 5.84846 0.144531 12.4403C0.144531 19.0321 5.65952 24.3766 12.4616 24.3766C19.2638 24.3766 24.7787 19.0321 24.7787 12.4403C24.7787 5.84846 19.2638 0.503967 12.4616 0.503967ZM7.83862 5.8783C8.70287 5.8783 9.27869 6.43633 9.27869 7.18036C9.27869 7.92439 8.70287 8.48242 7.74316 8.48242C6.87891 8.48341 6.30308 7.92439 6.30308 7.18036C6.30308 6.43633 6.87891 5.8783 7.83862 5.8783ZM9.38236 17.4138H6.30308V9.45622H9.38236V17.4138ZM19.6466 17.4138H16.748V13.065C16.748 11.8624 15.9751 11.5849 15.6856 11.5849C15.3962 11.5849 14.4293 11.7699 14.4293 13.065C14.4293 13.25 14.4293 17.4138 14.4293 17.4138H11.4352V9.45622H14.4303V10.5663C14.8163 9.91876 15.5892 9.45622 17.0385 9.45622C18.4878 9.45622 19.6466 10.5663 19.6466 13.065V17.4138Z" fill="black"/>
</svg>
