<svg width="32" height="18" viewBox="0 0 32 18" fill="none" xmlns="http://www.w3.org/2000/svg">
<path d="M8.95216 0.482666C7.80642 0.482666 6.67191 0.701359 5.61339 1.12626C4.55487 1.55116 3.59308 2.17394 2.78292 2.95905C1.97276 3.74416 1.33011 4.67622 0.891661 5.70202C0.453208 6.72782 0.227539 7.82726 0.227539 8.93757C0.227539 10.0479 0.453208 11.1473 0.891661 12.1731C1.33011 13.1989 1.97276 14.131 2.78292 14.9161C3.59308 15.7012 4.55487 16.324 5.61339 16.7489C6.67191 17.1738 7.80642 17.3925 8.95216 17.3925C10.0979 17.3925 11.2324 17.1738 12.2909 16.7489C13.3494 16.324 14.3112 15.7012 15.1214 14.9161C15.9315 14.131 16.5742 13.1989 17.0127 12.1731C17.4511 11.1473 17.6768 10.0479 17.6768 8.93757C17.6768 7.82726 17.4511 6.72782 17.0127 5.70202C16.5742 4.67622 15.9315 3.74416 15.1214 2.95905C14.3112 2.17394 13.3494 1.55116 12.2909 1.12626C11.2324 0.701359 10.0979 0.482666 8.95216 0.482666ZM22.8089 1.47736C22.2697 1.47736 21.7358 1.67033 21.2377 2.04524C20.7396 2.42015 20.287 2.96966 19.9057 3.66241C19.5245 4.35515 19.2221 5.17756 19.0157 6.08267C18.8094 6.98779 18.7032 7.95788 18.7032 8.93757C18.7032 9.91726 18.8094 10.8874 19.0157 11.7925C19.2221 12.6976 19.5245 13.52 19.9057 14.2127C20.287 14.9055 20.7396 15.455 21.2377 15.8299C21.7358 16.2048 22.2697 16.3978 22.8089 16.3978C23.3481 16.3978 23.882 16.2048 24.3801 15.8299C24.8782 15.455 25.3308 14.9055 25.7121 14.2127C26.0933 13.52 26.3957 12.6976 26.6021 11.7925C26.8084 10.8874 26.9146 9.91726 26.9146 8.93757C26.9146 7.95788 26.8084 6.98779 26.6021 6.08267C26.3957 5.17756 26.0933 4.35515 25.7121 3.66241C25.3308 2.96966 24.8782 2.42015 24.3801 2.04524C23.882 1.67033 23.3481 1.47736 22.8089 1.47736ZM29.4807 2.47206C29.0723 2.47206 28.6807 3.15324 28.392 4.36576C28.1032 5.57828 27.941 7.22281 27.941 8.93757C27.941 10.6523 28.1032 12.2969 28.392 13.5094C28.6807 14.7219 29.0723 15.4031 29.4807 15.4031C29.889 15.4031 30.2806 14.7219 30.5694 13.5094C30.8581 12.2969 31.0203 10.6523 31.0203 8.93757C31.0203 7.22281 30.8581 5.57828 30.5694 4.36576C30.2806 3.15324 29.889 2.47206 29.4807 2.47206Z" fill="black"/>
</svg>
